<mxfile host="65bd71144e">
    <diagram id="hv8SrUTNiJTrZ-Ng24qx" name="Page-1">
        <mxGraphModel dx="131" dy="2249" grid="1" gridSize="10" guides="1" tooltips="1" connect="1" arrows="1" fold="1" page="1" pageScale="1" pageWidth="850" pageHeight="1100" math="0" shadow="0">
            <root>
                <mxCell id="0"/>
                <mxCell id="1" parent="0"/>
                <UserObject label="" mermaidData="{&#10;  &quot;data&quot;: &quot;sequenceDiagram\n  autonumber\n  participant AS as Archival Service\n  participant L as Landing Zone\n  participant J as Worker\n  participant A as Staging\n  participant S as SciCat\n  participant LTS as LTS\n\n\n  %% Note over AS, S: Subflow `Create Datablocks`\n\n  S --) AS: Archive: POST /api/v1/jobs\n  activate AS\n  Note right of AS: Job {\&quot;id\&quot; : \&quot;id\&quot;, \&quot;type\&quot;:\&quot;archive\&quot;, \&quot;datasetlist\&quot;: [], ... } as defined in Scicat\n\n  AS --) J: Create Archival Flow for All Dataset\n  activate S\n  AS --&gt;&gt; S: \n  S --&gt;&gt; S: Reply? scheduleForArchiving status? Already set?\n  deactivate S\n\n  loop Retry: Exponential backoff\n    activate J\n      activate S\n        J --) S: PATCH /api/v4/Jobs/{JobId}\n        Note left of S: {\&quot;jobStatusMessage\&quot;: \&quot;inProgress\&quot;}, \n      deactivate S\n    deactivate J\n  end\n  deactivate AS\n  \n  critical Job for datasetlist\n    critical Subflow for {DatasetIf}\n      activate J\n        loop Retry: Exponential backoff\n          activate J\n            activate S\n              J --) S:  PATCH /api/v4/Dataset/{DatasetId}\n              Note left of S: {\&quot;datasetlifecycle\&quot;: {\&quot;archiveStatusMessage\&quot;: \&quot;started\&quot;}}  \n            deactivate S\n          deactivate J\n        end\n        loop Retry: Exponential backoff\n          activate J\n            activate S\n              J --&gt; S: GET /api/v4/Datasets/{dataset_id}/origdatablocks\n              S --) J:sdf\n              Note right of J: {\&quot;\&quot;}, \n            deactivate S\n          deactivate J\n        end\n        J --&gt;&gt; L: Create Datablocks\n        L --&gt;&gt; A: Move Datablocks to Staging\n        loop Retry: Exponential backoff\n          activate J\n          J --&gt;&gt; S: Register datablocks POST /api/v4/Datasets/{DatasetID}\n          Note left of S: ?\n          deactivate J\n        end\n        J --&gt;&gt; L: Cleanup Dataset files, Datablocks\n        Note right of L: Dataset files only get cleaned up when everythings succeeds\n      deactivate J\n    option Failure User Error\n      activate J\n        %% J --) S: Report Error: PATCH /api/v4/Jobs/{JobId}\n        %% Note left of S: {\&quot;jobStatusMessage\&quot;: \&quot;finishedWithDatasetErrors\&quot; ,&lt;br&gt;  \&quot;updatedAt\&quot;: \&quot;...\&quot;,&lt;br&gt;  \&quot;updatedBy\&quot;: \&quot;...\&quot;}\n        J --) S: Report Error: PATCH /api/v4/Dataset/{DatasetId}\n        Note left of S: {\&quot;datasetlifecycle:{\&quot;archiveStatusMessage\&quot;: \&quot;missingFilesError\&quot;, \&quot;archivable\&quot;: False, \&quot;retrievable\&quot;:False}}\n        J --&gt;&gt; A: Cleanup Datablocks\n        J --&gt;&gt; L: Cleanup Datablocks\n        Note right of L: No cleanup of dataset files\n      deactivate J\n    option Failure System Error\n      activate J\n        %% J --) S: Report Error: PATCH /api/v4/Jobs/{JobId}\n        %% Note left of S: {\&quot;jobStatusMessage\&quot;: \&quot;finishedUnsuccessful\&quot;,&lt;br&gt;  \&quot;updatedAt\&quot;: \&quot;...\&quot;,&lt;br&gt;  \&quot;updatedBy\&quot;: \&quot;...\&quot;}\n        J --) S: Report Error: PATCH /api/v4/Dataset/{DatasetId}\n        Note left of S: {\&quot;datasetlifecycle:{\&quot;archiveStatusMessage\&quot;: \&quot;scheduleArchiveJobFailed\&quot;, \&quot;archivable\&quot;: \&quot;false\&quot;, \&quot;retrievable\&quot;:\&quot;false\&quot;}}\n        J --&gt;&gt; A: Cleanup Datablocks\n        J --&gt;&gt; L: Cleanup Datablocks\n        Note right of L: No cleanup of dataset files\n      deactivate J\n    end\n    option Failure User Error\n      activate J\n        J --) S: Report Error: PATCH /api/v4/Jobs/{JobId}\n        Note left of S: {\&quot;jobStatusMessage\&quot;: \&quot;finishedWithDatasetErrors\&quot;}\n      deactivate J\n    option Failure System Error\n      activate J\n        J --) S: Report Error: PATCH /api/v4/Jobs/{JobId}\n        Note left of S: {\&quot;jobStatusMessage\&quot;: \&quot;finishedUnsuccessful\&quot;}\n      deactivate J\n  end\n  \n\n  Note over J, LTS: Subflow `Move Datablocks to LTS`\n    S --&gt;&gt; AS: Optional re-trigger from Scicat\n    AS --) J: Create `Move datablock to LTS` Pipeline\n  critical\n    activate J\n    A --&gt;&gt; LTS: Move Datablocks to LTS\n    deactivate J\n  option Move to LTS Failure\n    activate J\n    J --&gt;&gt; LTS: Cleanup LTS folder\n    J --&gt;&gt; S: Report Error\n    Note left of S: ?\n    deactivate J\n  end\n  critical\n    J --&gt;&gt; LTS:  Validate Datablocks in LTS\n    J --&gt;&gt; L: Cleanup Dataset files, Datablocks\n  option Validation Failure\n    activate J\n    J --&gt;&gt; S: Report Error\n    Note left of S: ?\n    J --&gt;&gt; LTS: Cleanup Datablocks\n    deactivate J\n  end\n  loop Retry: Exponential backoff\n    activate J\n    J --&gt;&gt; S:  PATCH /api/v4/Datasets/{DatasetId}\n    Note left of S: {\&quot;datasetlifecycle\&quot;: {\&quot;archivable\&quot;: False, \&quot;retrievable\&quot;: True, \&quot;archiveStatusMessage\&quot;: \&quot;datasetOnArchiveDisk\&quot;}} \n    deactivate J\n  end \n  loop Retry: Exponential backoff\n    activate J\n    J --&gt;&gt; S: PATCH /api/v4/Jobs/{JobId}\n    Note left of S: {\&quot;jobStatusMessage\&quot;: \&quot;finishedSuccessful\&quot;} \n    deactivate J\n  end &quot;,&#10;  &quot;config&quot;: {&#10;    &quot;theme&quot;: &quot;neutral&quot;,&#10;    &quot;arrowMarkerAbsolute&quot;: false,&#10;    &quot;flowchart&quot;: {&#10;      &quot;htmlLabels&quot;: false&#10;    },&#10;    &quot;sequence&quot;: {&#10;      &quot;diagramMarginX&quot;: 50,&#10;      &quot;diagramMarginY&quot;: 10,&#10;      &quot;actorMargin&quot;: 50,&#10;      &quot;width&quot;: 150,&#10;      &quot;height&quot;: 65,&#10;      &quot;boxMargin&quot;: 10,&#10;      &quot;boxTextMargin&quot;: 5,&#10;      &quot;noteMargin&quot;: 10,&#10;      &quot;messageMargin&quot;: 35,&#10;      &quot;mirrorActors&quot;: true,&#10;      &quot;bottomMarginAdj&quot;: 1,&#10;      &quot;useMaxWidth&quot;: true,&#10;      &quot;rightAngles&quot;: false,&#10;      &quot;showSequenceNumbers&quot;: false&#10;    },&#10;    &quot;gantt&quot;: {&#10;      &quot;titleTopMargin&quot;: 25,&#10;      &quot;barHeight&quot;: 20,&#10;      &quot;barGap&quot;: 4,&#10;      &quot;topPadding&quot;: 50,&#10;      &quot;leftPadding&quot;: 75,&#10;      &quot;gridLineStartPadding&quot;: 35,&#10;      &quot;fontSize&quot;: 11,&#10;      &quot;fontFamily&quot;: &quot;\&quot;Open-Sans\&quot;, \&quot;sans-serif\&quot;&quot;,&#10;      &quot;numberSectionStyles&quot;: 4,&#10;      &quot;axisFormat&quot;: &quot;%Y-%m-%d&quot;&#10;    }&#10;  }&#10;}" id="2">
                    <mxCell style="shape=image;noLabel=1;verticalAlign=top;imageAspect=1;image=data:image/svg+xml,PHN2ZyBhcmlhLWxhYmVsbGVkYnk9ImNoYXJ0LXRpdGxlLWdlTWVybWFpZE91dHB1dC0xNzI3Nzg2OTM5MjY5IGNoYXJ0LWRlc2MtZ2VNZXJtYWlkT3V0cHV0LTE3Mjc3ODY5MzkyNjkiIHJvbGU9ImltZyIgdmlld0JveD0iLTUwIC0xMCAyNDM4LjUgMzA5NSIgc3R5bGU9Im1heC13aWR0aDogMjQzOC41cHg7IiBoZWlnaHQ9IjMwOTUiIHhtbG5zPSJodHRwOi8vd3d3LnczLm9yZy8yMDAwL3N2ZyIgd2lkdGg9IjEwMCUiIGlkPSJnZU1lcm1haWRPdXRwdXQtMTcyNzc4NjkzOTI2OSI+PHRpdGxlIGlkPSJjaGFydC10aXRsZS1nZU1lcm1haWRPdXRwdXQtMTcyNzc4NjkzOTI2OSI+PC90aXRsZT48ZGVzYyBpZD0iY2hhcnQtZGVzYy1nZU1lcm1haWRPdXRwdXQtMTcyNzc4NjkzOTI2OSI+PC9kZXNjPjxzdHlsZT4jZ2VNZXJtYWlkT3V0cHV0LTE3Mjc3ODY5MzkyNjkge2ZvbnQtZmFtaWx5OiJ0cmVidWNoZXQgbXMiLHZlcmRhbmEsYXJpYWwsc2Fucy1zZXJpZjtmb250LXNpemU6MTZweDtmaWxsOiNjY2M7fSNnZU1lcm1haWRPdXRwdXQtMTcyNzc4NjkzOTI2OSAuZXJyb3ItaWNvbntmaWxsOiNhNDQxNDE7fSNnZU1lcm1haWRPdXRwdXQtMTcyNzc4NjkzOTI2OSAuZXJyb3ItdGV4dHtmaWxsOiNkZGQ7c3Ryb2tlOiNkZGQ7fSNnZU1lcm1haWRPdXRwdXQtMTcyNzc4NjkzOTI2OSAuZWRnZS10aGlja25lc3Mtbm9ybWFse3N0cm9rZS13aWR0aDoycHg7fSNnZU1lcm1haWRPdXRwdXQtMTcyNzc4NjkzOTI2OSAuZWRnZS10aGlja25lc3MtdGhpY2t7c3Ryb2tlLXdpZHRoOjMuNXB4O30jZ2VNZXJtYWlkT3V0cHV0LTE3Mjc3ODY5MzkyNjkgLmVkZ2UtcGF0dGVybi1zb2xpZHtzdHJva2UtZGFzaGFycmF5OjA7fSNnZU1lcm1haWRPdXRwdXQtMTcyNzc4NjkzOTI2OSAuZWRnZS1wYXR0ZXJuLWRhc2hlZHtzdHJva2UtZGFzaGFycmF5OjM7fSNnZU1lcm1haWRPdXRwdXQtMTcyNzc4NjkzOTI2OSAuZWRnZS1wYXR0ZXJuLWRvdHRlZHtzdHJva2UtZGFzaGFycmF5OjI7fSNnZU1lcm1haWRPdXRwdXQtMTcyNzc4NjkzOTI2OSAubWFya2Vye2ZpbGw6bGlnaHRncmV5O3N0cm9rZTpsaWdodGdyZXk7fSNnZU1lcm1haWRPdXRwdXQtMTcyNzc4NjkzOTI2OSAubWFya2VyLmNyb3Nze3N0cm9rZTpsaWdodGdyZXk7fSNnZU1lcm1haWRPdXRwdXQtMTcyNzc4NjkzOTI2OSBzdmd7Zm9udC1mYW1pbHk6InRyZWJ1Y2hldCBtcyIsdmVyZGFuYSxhcmlhbCxzYW5zLXNlcmlmO2ZvbnQtc2l6ZToxNnB4O30jZ2VNZXJtYWlkT3V0cHV0LTE3Mjc3ODY5MzkyNjkgLmFjdG9ye3N0cm9rZTojODFCMURCO2ZpbGw6IzFmMjAyMDt9I2dlTWVybWFpZE91dHB1dC0xNzI3Nzg2OTM5MjY5IHRleHQuYWN0b3ImZ3Q7dHNwYW57ZmlsbDpsaWdodGdyZXk7c3Ryb2tlOm5vbmU7fSNnZU1lcm1haWRPdXRwdXQtMTcyNzc4NjkzOTI2OSAuYWN0b3ItbGluZXtzdHJva2U6bGlnaHRncmV5O30jZ2VNZXJtYWlkT3V0cHV0LTE3Mjc3ODY5MzkyNjkgLm1lc3NhZ2VMaW5lMHtzdHJva2Utd2lkdGg6MS41O3N0cm9rZS1kYXNoYXJyYXk6bm9uZTtzdHJva2U6bGlnaHRncmV5O30jZ2VNZXJtYWlkT3V0cHV0LTE3Mjc3ODY5MzkyNjkgLm1lc3NhZ2VMaW5lMXtzdHJva2Utd2lkdGg6MS41O3N0cm9rZS1kYXNoYXJyYXk6MiwyO3N0cm9rZTpsaWdodGdyZXk7fSNnZU1lcm1haWRPdXRwdXQtMTcyNzc4NjkzOTI2OSAjYXJyb3doZWFkIHBhdGh7ZmlsbDpsaWdodGdyZXk7c3Ryb2tlOmxpZ2h0Z3JleTt9I2dlTWVybWFpZE91dHB1dC0xNzI3Nzg2OTM5MjY5IC5zZXF1ZW5jZU51bWJlcntmaWxsOmJsYWNrO30jZ2VNZXJtYWlkT3V0cHV0LTE3Mjc3ODY5MzkyNjkgI3NlcXVlbmNlbnVtYmVye2ZpbGw6bGlnaHRncmV5O30jZ2VNZXJtYWlkT3V0cHV0LTE3Mjc3ODY5MzkyNjkgI2Nyb3NzaGVhZCBwYXRoe2ZpbGw6bGlnaHRncmV5O3N0cm9rZTpsaWdodGdyZXk7fSNnZU1lcm1haWRPdXRwdXQtMTcyNzc4NjkzOTI2OSAubWVzc2FnZVRleHR7ZmlsbDpsaWdodGdyZXk7c3Ryb2tlOmxpZ2h0Z3JleTt9I2dlTWVybWFpZE91dHB1dC0xNzI3Nzg2OTM5MjY5IC5sYWJlbEJveHtzdHJva2U6IzgxQjFEQjtmaWxsOiMxZjIwMjA7fSNnZU1lcm1haWRPdXRwdXQtMTcyNzc4NjkzOTI2OSAubGFiZWxUZXh0LCNnZU1lcm1haWRPdXRwdXQtMTcyNzc4NjkzOTI2OSAubGFiZWxUZXh0Jmd0O3RzcGFue2ZpbGw6bGlnaHRncmV5O3N0cm9rZTpub25lO30jZ2VNZXJtYWlkT3V0cHV0LTE3Mjc3ODY5MzkyNjkgLmxvb3BUZXh0LCNnZU1lcm1haWRPdXRwdXQtMTcyNzc4NjkzOTI2OSAubG9vcFRleHQmZ3Q7dHNwYW57ZmlsbDpsaWdodGdyZXk7c3Ryb2tlOm5vbmU7fSNnZU1lcm1haWRPdXRwdXQtMTcyNzc4NjkzOTI2OSAubG9vcExpbmV7c3Ryb2tlLXdpZHRoOjJweDtzdHJva2UtZGFzaGFycmF5OjIsMjtzdHJva2U6IzgxQjFEQjtmaWxsOiM4MUIxREI7fSNnZU1lcm1haWRPdXRwdXQtMTcyNzc4NjkzOTI2OSAubm90ZXtzdHJva2U6aHNsKDE4MCwgMCUsIDE4LjM1Mjk0MTE3NjUlKTtmaWxsOmhzbCgxODAsIDEuNTg3MzAxNTg3MyUsIDI4LjM1Mjk0MTE3NjUlKTt9I2dlTWVybWFpZE91dHB1dC0xNzI3Nzg2OTM5MjY5IC5ub3RlVGV4dCwjZ2VNZXJtYWlkT3V0cHV0LTE3Mjc3ODY5MzkyNjkgLm5vdGVUZXh0Jmd0O3RzcGFue2ZpbGw6cmdiKDE4My44NDc2MTkwNDc1LCAxODEuNTUyMzgwOTUyMywgMTgxLjU1MjM4MDk1MjMpO3N0cm9rZTpub25lO30jZ2VNZXJtYWlkT3V0cHV0LTE3Mjc3ODY5MzkyNjkgLmFjdGl2YXRpb24we2ZpbGw6aHNsKDE4MCwgMS41ODczMDE1ODczJSwgMjguMzUyOTQxMTc2NSUpO3N0cm9rZTojODFCMURCO30jZ2VNZXJtYWlkT3V0cHV0LTE3Mjc3ODY5MzkyNjkgLmFjdGl2YXRpb24xe2ZpbGw6aHNsKDE4MCwgMS41ODczMDE1ODczJSwgMjguMzUyOTQxMTc2NSUpO3N0cm9rZTojODFCMURCO30jZ2VNZXJtYWlkT3V0cHV0LTE3Mjc3ODY5MzkyNjkgLmFjdGl2YXRpb24ye2ZpbGw6aHNsKDE4MCwgMS41ODczMDE1ODczJSwgMjguMzUyOTQxMTc2NSUpO3N0cm9rZTojODFCMURCO30jZ2VNZXJtYWlkT3V0cHV0LTE3Mjc3ODY5MzkyNjkgLmFjdG9yUG9wdXBNZW51e3Bvc2l0aW9uOmFic29sdXRlO30jZ2VNZXJtYWlkT3V0cHV0LTE3Mjc3ODY5MzkyNjkgLmFjdG9yUG9wdXBNZW51UGFuZWx7cG9zaXRpb246YWJzb2x1dGU7ZmlsbDojMWYyMDIwO2JveC1zaGFkb3c6MHB4IDhweCAxNnB4IDBweCByZ2JhKDAsMCwwLDAuMik7ZmlsdGVyOmRyb3Atc2hhZG93KDNweCA1cHggMnB4IHJnYigwIDAgMCAvIDAuNCkpO30jZ2VNZXJtYWlkT3V0cHV0LTE3Mjc3ODY5MzkyNjkgLmFjdG9yLW1hbiBsaW5le3N0cm9rZTojODFCMURCO2ZpbGw6IzFmMjAyMDt9I2dlTWVybWFpZE91dHB1dC0xNzI3Nzg2OTM5MjY5IC5hY3Rvci1tYW4gY2lyY2xlLCNnZU1lcm1haWRPdXRwdXQtMTcyNzc4NjkzOTI2OSBsaW5le3N0cm9rZTojODFCMURCO2ZpbGw6IzFmMjAyMDtzdHJva2Utd2lkdGg6MnB4O30jZ2VNZXJtYWlkT3V0cHV0LTE3Mjc3ODY5MzkyNjkgOnJvb3R7LS1tZXJtYWlkLWZvbnQtZmFtaWx5OiJ0cmVidWNoZXQgbXMiLHZlcmRhbmEsYXJpYWwsc2Fucy1zZXJpZjt9PC9zdHlsZT48Zz48L2c+PGRlZnM+PHN5bWJvbCBoZWlnaHQ9IjI0IiB3aWR0aD0iMjQiIGlkPSJjb21wdXRlciI+PHBhdGggZD0iTTIgMnYxM2gyMHYtMTNoLTIwem0xOCAxMWgtMTZ2LTloMTZ2OXptLTEwLjIyOCA2bC40NjYtMWgzLjUyNGwuNDY3IDFoLTQuNDU3em0xNC4yMjggM2gtMjRsMi02aDIuMTA0bC0xLjMzIDRoMTguNDVsLTEuMjk3LTRoMi4wNzNsMiA2em0tNS0xMGgtMTR2LTdoMTR2N3oiIHRyYW5zZm9ybT0ic2NhbGUoLjUpIj48L3BhdGg+PC9zeW1ib2w+PC9kZWZzPjxkZWZzPjxzeW1ib2wgY2xpcC1ydWxlPSJldmVub2RkIiBmaWxsLXJ1bGU9ImV2ZW5vZGQiIGlkPSJkYXRhYmFzZSI+PHBhdGggZD0iTTEyLjI1OC4wMDFsLjI1Ni4wMDQuMjU1LjAwNS4yNTMuMDA4LjI1MS4wMS4yNDkuMDEyLjI0Ny4wMTUuMjQ2LjAxNi4yNDIuMDE5LjI0MS4wMi4yMzkuMDIzLjIzNi4wMjQuMjMzLjAyNy4yMzEuMDI4LjIyOS4wMzEuMjI1LjAzMi4yMjMuMDM0LjIyLjAzNi4yMTcuMDM4LjIxNC4wNC4yMTEuMDQxLjIwOC4wNDMuMjA1LjA0NS4yMDEuMDQ2LjE5OC4wNDguMTk0LjA1LjE5MS4wNTEuMTg3LjA1My4xODMuMDU0LjE4LjA1Ni4xNzUuMDU3LjE3Mi4wNTkuMTY4LjA2LjE2My4wNjEuMTYuMDYzLjE1NS4wNjQuMTUuMDY2LjA3NC4wMzMuMDczLjAzMy4wNzEuMDM0LjA3LjAzNC4wNjkuMDM1LjA2OC4wMzUuMDY3LjAzNS4wNjYuMDM1LjA2NC4wMzYuMDY0LjAzNi4wNjIuMDM2LjA2LjAzNi4wNi4wMzcuMDU4LjAzNy4wNTguMDM3LjA1NS4wMzguMDU1LjAzOC4wNTMuMDM4LjA1Mi4wMzguMDUxLjAzOS4wNS4wMzkuMDQ4LjAzOS4wNDcuMDM5LjA0NS4wNC4wNDQuMDQuMDQzLjA0LjA0MS4wNC4wNC4wNDEuMDM5LjA0MS4wMzcuMDQxLjAzNi4wNDEuMDM0LjA0MS4wMzMuMDQyLjAzMi4wNDIuMDMuMDQyLjAyOS4wNDIuMDI3LjA0Mi4wMjYuMDQzLjAyNC4wNDMuMDIzLjA0My4wMjEuMDQzLjAyLjA0My4wMTguMDQ0LjAxNy4wNDMuMDE1LjA0NC4wMTMuMDQ0LjAxMi4wNDQuMDExLjA0NS4wMDkuMDQ0LjAwNy4wNDUuMDA2LjA0NS4wMDQuMDQ1LjAwMi4wNDUuMDAxLjA0NXYxN2wtLjAwMS4wNDUtLjAwMi4wNDUtLjAwNC4wNDUtLjAwNi4wNDUtLjAwNy4wNDUtLjAwOS4wNDQtLjAxMS4wNDUtLjAxMi4wNDQtLjAxMy4wNDQtLjAxNS4wNDQtLjAxNy4wNDMtLjAxOC4wNDQtLjAyLjA0My0uMDIxLjA0My0uMDIzLjA0My0uMDI0LjA0My0uMDI2LjA0My0uMDI3LjA0Mi0uMDI5LjA0Mi0uMDMuMDQyLS4wMzIuMDQyLS4wMzMuMDQyLS4wMzQuMDQxLS4wMzYuMDQxLS4wMzcuMDQxLS4wMzkuMDQxLS4wNC4wNDEtLjA0MS4wNC0uMDQzLjA0LS4wNDQuMDQtLjA0NS4wNC0uMDQ3LjAzOS0uMDQ4LjAzOS0uMDUuMDM5LS4wNTEuMDM5LS4wNTIuMDM4LS4wNTMuMDM4LS4wNTUuMDM4LS4wNTUuMDM4LS4wNTguMDM3LS4wNTguMDM3LS4wNi4wMzctLjA2LjAzNi0uMDYyLjAzNi0uMDY0LjAzNi0uMDY0LjAzNi0uMDY2LjAzNS0uMDY3LjAzNS0uMDY4LjAzNS0uMDY5LjAzNS0uMDcuMDM0LS4wNzEuMDM0LS4wNzMuMDMzLS4wNzQuMDMzLS4xNS4wNjYtLjE1NS4wNjQtLjE2LjA2My0uMTYzLjA2MS0uMTY4LjA2LS4xNzIuMDU5LS4xNzUuMDU3LS4xOC4wNTYtLjE4My4wNTQtLjE4Ny4wNTMtLjE5MS4wNTEtLjE5NC4wNS0uMTk4LjA0OC0uMjAxLjA0Ni0uMjA1LjA0NS0uMjA4LjA0My0uMjExLjA0MS0uMjE0LjA0LS4yMTcuMDM4LS4yMi4wMzYtLjIyMy4wMzQtLjIyNS4wMzItLjIyOS4wMzEtLjIzMS4wMjgtLjIzMy4wMjctLjIzNi4wMjQtLjIzOS4wMjMtLjI0MS4wMi0uMjQyLjAxOS0uMjQ2LjAxNi0uMjQ3LjAxNS0uMjQ5LjAxMi0uMjUxLjAxLS4yNTMuMDA4LS4yNTUuMDA1LS4yNTYuMDA0LS4yNTguMDAxLS4yNTgtLjAwMS0uMjU2LS4wMDQtLjI1NS0uMDA1LS4yNTMtLjAwOC0uMjUxLS4wMS0uMjQ5LS4wMTItLjI0Ny0uMDE1LS4yNDUtLjAxNi0uMjQzLS4wMTktLjI0MS0uMDItLjIzOC0uMDIzLS4yMzYtLjAyNC0uMjM0LS4wMjctLjIzMS0uMDI4LS4yMjgtLjAzMS0uMjI2LS4wMzItLjIyMy0uMDM0LS4yMi0uMDM2LS4yMTctLjAzOC0uMjE0LS4wNC0uMjExLS4wNDEtLjIwOC0uMDQzLS4yMDQtLjA0NS0uMjAxLS4wNDYtLjE5OC0uMDQ4LS4xOTUtLjA1LS4xOS0uMDUxLS4xODctLjA1My0uMTg0LS4wNTQtLjE3OS0uMDU2LS4xNzYtLjA1Ny0uMTcyLS4wNTktLjE2Ny0uMDYtLjE2NC0uMDYxLS4xNTktLjA2My0uMTU1LS4wNjQtLjE1MS0uMDY2LS4wNzQtLjAzMy0uMDcyLS4wMzMtLjA3Mi0uMDM0LS4wNy0uMDM0LS4wNjktLjAzNS0uMDY4LS4wMzUtLjA2Ny0uMDM1LS4wNjYtLjAzNS0uMDY0LS4wMzYtLjA2My0uMDM2LS4wNjItLjAzNi0uMDYxLS4wMzYtLjA2LS4wMzctLjA1OC0uMDM3LS4wNTctLjAzNy0uMDU2LS4wMzgtLjA1NS0uMDM4LS4wNTMtLjAzOC0uMDUyLS4wMzgtLjA1MS0uMDM5LS4wNDktLjAzOS0uMDQ5LS4wMzktLjA0Ni0uMDM5LS4wNDYtLjA0LS4wNDQtLjA0LS4wNDMtLjA0LS4wNDEtLjA0LS4wNC0uMDQxLS4wMzktLjA0MS0uMDM3LS4wNDEtLjAzNi0uMDQxLS4wMzQtLjA0MS0uMDMzLS4wNDItLjAzMi0uMDQyLS4wMy0uMDQyLS4wMjktLjA0Mi0uMDI3LS4wNDItLjAyNi0uMDQzLS4wMjQtLjA0My0uMDIzLS4wNDMtLjAyMS0uMDQzLS4wMi0uMDQzLS4wMTgtLjA0NC0uMDE3LS4wNDMtLjAxNS0uMDQ0LS4wMTMtLjA0NC0uMDEyLS4wNDQtLjAxMS0uMDQ1LS4wMDktLjA0NC0uMDA3LS4wNDUtLjAwNi0uMDQ1LS4wMDQtLjA0NS0uMDAyLS4wNDUtLjAwMS0uMDQ1di0xN2wuMDAxLS4wNDUuMDAyLS4wNDUuMDA0LS4wNDUuMDA2LS4wNDUuMDA3LS4wNDUuMDA5LS4wNDQuMDExLS4wNDUuMDEyLS4wNDQuMDEzLS4wNDQuMDE1LS4wNDQuMDE3LS4wNDMuMDE4LS4wNDQuMDItLjA0My4wMjEtLjA0My4wMjMtLjA0My4wMjQtLjA0My4wMjYtLjA0My4wMjctLjA0Mi4wMjktLjA0Mi4wMy0uMDQyLjAzMi0uMDQyLjAzMy0uMDQyLjAzNC0uMDQxLjAzNi0uMDQxLjAzNy0uMDQxLjAzOS0uMDQxLjA0LS4wNDEuMDQxLS4wNC4wNDMtLjA0LjA0NC0uMDQuMDQ2LS4wNC4wNDYtLjAzOS4wNDktLjAzOS4wNDktLjAzOS4wNTEtLjAzOS4wNTItLjAzOC4wNTMtLjAzOC4wNTUtLjAzOC4wNTYtLjAzOC4wNTctLjAzNy4wNTgtLjAzNy4wNi0uMDM3LjA2MS0uMDM2LjA2Mi0uMDM2LjA2My0uMDM2LjA2NC0uMDM2LjA2Ni0uMDM1LjA2Ny0uMDM1LjA2OC0uMDM1LjA2OS0uMDM1LjA3LS4wMzQuMDcyLS4wMzQuMDcyLS4wMzMuMDc0LS4wMzMuMTUxLS4wNjYuMTU1LS4wNjQuMTU5LS4wNjMuMTY0LS4wNjEuMTY3LS4wNi4xNzItLjA1OS4xNzYtLjA1Ny4xNzktLjA1Ni4xODQtLjA1NC4xODctLjA1My4xOS0uMDUxLjE5NS0uMDUuMTk4LS4wNDguMjAxLS4wNDYuMjA0LS4wNDUuMjA4LS4wNDMuMjExLS4wNDEuMjE0LS4wNC4yMTctLjAzOC4yMi0uMDM2LjIyMy0uMDM0LjIyNi0uMDMyLjIyOC0uMDMxLjIzMS0uMDI4LjIzNC0uMDI3LjIzNi0uMDI0LjIzOC0uMDIzLjI0MS0uMDIuMjQzLS4wMTkuMjQ1LS4wMTYuMjQ3LS4wMTUuMjQ5LS4wMTIuMjUxLS4wMS4yNTMtLjAwOC4yNTUtLjAwNS4yNTYtLjAwNC4yNTgtLjAwMS4yNTguMDAxem0tOS4yNTggMjAuNDk5di4wMWwuMDAxLjAyMS4wMDMuMDIxLjAwNC4wMjIuMDA1LjAyMS4wMDYuMDIyLjAwNy4wMjIuMDA5LjAyMy4wMS4wMjIuMDExLjAyMy4wMTIuMDIzLjAxMy4wMjMuMDE1LjAyMy4wMTYuMDI0LjAxNy4wMjMuMDE4LjAyNC4wMTkuMDI0LjAyMS4wMjQuMDIyLjAyNS4wMjMuMDI0LjAyNC4wMjUuMDUyLjA0OS4wNTYuMDUuMDYxLjA1MS4wNjYuMDUxLjA3LjA1MS4wNzUuMDUxLjA3OS4wNTIuMDg0LjA1Mi4wODguMDUyLjA5Mi4wNTIuMDk3LjA1Mi4xMDIuMDUxLjEwNS4wNTIuMTEuMDUyLjExNC4wNTEuMTE5LjA1MS4xMjMuMDUxLjEyNy4wNS4xMzEuMDUuMTM1LjA1LjEzOS4wNDguMTQ0LjA0OS4xNDcuMDQ3LjE1Mi4wNDcuMTU1LjA0Ny4xNi4wNDUuMTYzLjA0NS4xNjcuMDQzLjE3MS4wNDMuMTc2LjA0MS4xNzguMDQxLjE4My4wMzkuMTg3LjAzOS4xOS4wMzcuMTk0LjAzNS4xOTcuMDM1LjIwMi4wMzMuMjA0LjAzMS4yMDkuMDMuMjEyLjAyOS4yMTYuMDI3LjIxOS4wMjUuMjIyLjAyNC4yMjYuMDIxLjIzLjAyLjIzMy4wMTguMjM2LjAxNi4yNC4wMTUuMjQzLjAxMi4yNDYuMDEuMjQ5LjAwOC4yNTMuMDA1LjI1Ni4wMDQuMjU5LjAwMS4yNi0uMDAxLjI1Ny0uMDA0LjI1NC0uMDA1LjI1LS4wMDguMjQ3LS4wMTEuMjQ0LS4wMTIuMjQxLS4wMTQuMjM3LS4wMTYuMjMzLS4wMTguMjMxLS4wMjEuMjI2LS4wMjEuMjI0LS4wMjQuMjItLjAyNi4yMTYtLjAyNy4yMTItLjAyOC4yMS0uMDMxLjIwNS0uMDMxLjIwMi0uMDM0LjE5OC0uMDM0LjE5NC0uMDM2LjE5MS0uMDM3LjE4Ny0uMDM5LjE4My0uMDQuMTc5LS4wNC4xNzUtLjA0Mi4xNzItLjA0My4xNjgtLjA0NC4xNjMtLjA0NS4xNi0uMDQ2LjE1NS0uMDQ2LjE1Mi0uMDQ3LjE0OC0uMDQ4LjE0My0uMDQ5LjEzOS0uMDQ5LjEzNi0uMDUuMTMxLS4wNS4xMjYtLjA1LjEyMy0uMDUxLjExOC0uMDUyLjExNC0uMDUxLjExLS4wNTIuMTA2LS4wNTIuMTAxLS4wNTIuMDk2LS4wNTIuMDkyLS4wNTIuMDg4LS4wNTMuMDgzLS4wNTEuMDc5LS4wNTIuMDc0LS4wNTIuMDctLjA1MS4wNjUtLjA1MS4wNi0uMDUxLjA1Ni0uMDUuMDUxLS4wNS4wMjMtLjAyNC4wMjMtLjAyNS4wMjEtLjAyNC4wMi0uMDI0LjAxOS0uMDI0LjAxOC0uMDI0LjAxNy0uMDI0LjAxNS0uMDIzLjAxNC0uMDI0LjAxMy0uMDIzLjAxMi0uMDIzLjAxLS4wMjMuMDEtLjAyMi4wMDgtLjAyMi4wMDYtLjAyMi4wMDYtLjAyMi4wMDQtLjAyMi4wMDQtLjAyMS4wMDEtLjAyMS4wMDEtLjAyMXYtNC4xMjdsLS4wNzcuMDU1LS4wOC4wNTMtLjA4My4wNTQtLjA4NS4wNTMtLjA4Ny4wNTItLjA5LjA1Mi0uMDkzLjA1MS0uMDk1LjA1LS4wOTcuMDUtLjEuMDQ5LS4xMDIuMDQ5LS4xMDUuMDQ4LS4xMDYuMDQ3LS4xMDkuMDQ3LS4xMTEuMDQ2LS4xMTQuMDQ1LS4xMTUuMDQ1LS4xMTguMDQ0LS4xMi4wNDMtLjEyMi4wNDItLjEyNC4wNDItLjEyNi4wNDEtLjEyOC4wNC0uMTMuMDQtLjEzMi4wMzgtLjEzNC4wMzgtLjEzNS4wMzctLjEzOC4wMzctLjEzOS4wMzUtLjE0Mi4wMzUtLjE0My4wMzQtLjE0NC4wMzMtLjE0Ny4wMzItLjE0OC4wMzEtLjE1LjAzLS4xNTEuMDMtLjE1My4wMjktLjE1NC4wMjctLjE1Ni4wMjctLjE1OC4wMjYtLjE1OS4wMjUtLjE2MS4wMjQtLjE2Mi4wMjMtLjE2My4wMjItLjE2NS4wMjEtLjE2Ni4wMi0uMTY3LjAxOS0uMTY5LjAxOC0uMTY5LjAxNy0uMTcxLjAxNi0uMTczLjAxNS0uMTczLjAxNC0uMTc1LjAxMy0uMTc1LjAxMi0uMTc3LjAxMS0uMTc4LjAxLS4xNzkuMDA4LS4xNzkuMDA4LS4xODEuMDA2LS4xODIuMDA1LS4xODIuMDA0LS4xODQuMDAzLS4xODQuMDAyaC0uMzdsLS4xODQtLjAwMi0uMTg0LS4wMDMtLjE4Mi0uMDA0LS4xODItLjAwNS0uMTgxLS4wMDYtLjE3OS0uMDA4LS4xNzktLjAwOC0uMTc4LS4wMS0uMTc2LS4wMTEtLjE3Ni0uMDEyLS4xNzUtLjAxMy0uMTczLS4wMTQtLjE3Mi0uMDE1LS4xNzEtLjAxNi0uMTctLjAxNy0uMTY5LS4wMTgtLjE2Ny0uMDE5LS4xNjYtLjAyLS4xNjUtLjAyMS0uMTYzLS4wMjItLjE2Mi0uMDIzLS4xNjEtLjAyNC0uMTU5LS4wMjUtLjE1Ny0uMDI2LS4xNTYtLjAyNy0uMTU1LS4wMjctLjE1My0uMDI5LS4xNTEtLjAzLS4xNS0uMDMtLjE0OC0uMDMxLS4xNDYtLjAzMi0uMTQ1LS4wMzMtLjE0My0uMDM0LS4xNDEtLjAzNS0uMTQtLjAzNS0uMTM3LS4wMzctLjEzNi0uMDM3LS4xMzQtLjAzOC0uMTMyLS4wMzgtLjEzLS4wNC0uMTI4LS4wNC0uMTI2LS4wNDEtLjEyNC0uMDQyLS4xMjItLjA0Mi0uMTItLjA0NC0uMTE3LS4wNDMtLjExNi0uMDQ1LS4xMTMtLjA0NS0uMTEyLS4wNDYtLjEwOS0uMDQ3LS4xMDYtLjA0Ny0uMTA1LS4wNDgtLjEwMi0uMDQ5LS4xLS4wNDktLjA5Ny0uMDUtLjA5NS0uMDUtLjA5My0uMDUyLS4wOS0uMDUxLS4wODctLjA1Mi0uMDg1LS4wNTMtLjA4My0uMDU0LS4wOC0uMDU0LS4wNzctLjA1NHY0LjEyN3ptMC01LjY1NHYuMDExbC4wMDEuMDIxLjAwMy4wMjEuMDA0LjAyMS4wMDUuMDIyLjAwNi4wMjIuMDA3LjAyMi4wMDkuMDIyLjAxLjAyMi4wMTEuMDIzLjAxMi4wMjMuMDEzLjAyMy4wMTUuMDI0LjAxNi4wMjMuMDE3LjAyNC4wMTguMDI0LjAxOS4wMjQuMDIxLjAyNC4wMjIuMDI0LjAyMy4wMjUuMDI0LjAyNC4wNTIuMDUuMDU2LjA1LjA2MS4wNS4wNjYuMDUxLjA3LjA1MS4wNzUuMDUyLjA3OS4wNTEuMDg0LjA1Mi4wODguMDUyLjA5Mi4wNTIuMDk3LjA1Mi4xMDIuMDUyLjEwNS4wNTIuMTEuMDUxLjExNC4wNTEuMTE5LjA1Mi4xMjMuMDUuMTI3LjA1MS4xMzEuMDUuMTM1LjA0OS4xMzkuMDQ5LjE0NC4wNDguMTQ3LjA0OC4xNTIuMDQ3LjE1NS4wNDYuMTYuMDQ1LjE2My4wNDUuMTY3LjA0NC4xNzEuMDQyLjE3Ni4wNDIuMTc4LjA0LjE4My4wNC4xODcuMDM4LjE5LjAzNy4xOTQuMDM2LjE5Ny4wMzQuMjAyLjAzMy4yMDQuMDMyLjIwOS4wMy4yMTIuMDI4LjIxNi4wMjcuMjE5LjAyNS4yMjIuMDI0LjIyNi4wMjIuMjMuMDIuMjMzLjAxOC4yMzYuMDE2LjI0LjAxNC4yNDMuMDEyLjI0Ni4wMS4yNDkuMDA4LjI1My4wMDYuMjU2LjAwMy4yNTkuMDAxLjI2LS4wMDEuMjU3LS4wMDMuMjU0LS4wMDYuMjUtLjAwOC4yNDctLjAxLjI0NC0uMDEyLjI0MS0uMDE1LjIzNy0uMDE2LjIzMy0uMDE4LjIzMS0uMDIuMjI2LS4wMjIuMjI0LS4wMjQuMjItLjAyNS4yMTYtLjAyNy4yMTItLjAyOS4yMS0uMDMuMjA1LS4wMzIuMjAyLS4wMzMuMTk4LS4wMzUuMTk0LS4wMzYuMTkxLS4wMzcuMTg3LS4wMzkuMTgzLS4wMzkuMTc5LS4wNDEuMTc1LS4wNDIuMTcyLS4wNDMuMTY4LS4wNDQuMTYzLS4wNDUuMTYtLjA0NS4xNTUtLjA0Ny4xNTItLjA0Ny4xNDgtLjA0OC4xNDMtLjA0OC4xMzktLjA1LjEzNi0uMDQ5LjEzMS0uMDUuMTI2LS4wNTEuMTIzLS4wNTEuMTE4LS4wNTEuMTE0LS4wNTIuMTEtLjA1Mi4xMDYtLjA1Mi4xMDEtLjA1Mi4wOTYtLjA1Mi4wOTItLjA1Mi4wODgtLjA1Mi4wODMtLjA1Mi4wNzktLjA1Mi4wNzQtLjA1MS4wNy0uMDUyLjA2NS0uMDUxLjA2LS4wNS4wNTYtLjA1MS4wNTEtLjA0OS4wMjMtLjAyNS4wMjMtLjAyNC4wMjEtLjAyNS4wMi0uMDI0LjAxOS0uMDI0LjAxOC0uMDI0LjAxNy0uMDI0LjAxNS0uMDIzLjAxNC0uMDIzLjAxMy0uMDI0LjAxMi0uMDIyLjAxLS4wMjMuMDEtLjAyMy4wMDgtLjAyMi4wMDYtLjAyMi4wMDYtLjAyMi4wMDQtLjAyMS4wMDQtLjAyMi4wMDEtLjAyMS4wMDEtLjAyMXYtNC4xMzlsLS4wNzcuMDU0LS4wOC4wNTQtLjA4My4wNTQtLjA4NS4wNTItLjA4Ny4wNTMtLjA5LjA1MS0uMDkzLjA1MS0uMDk1LjA1MS0uMDk3LjA1LS4xLjA0OS0uMTAyLjA0OS0uMTA1LjA0OC0uMTA2LjA0Ny0uMTA5LjA0Ny0uMTExLjA0Ni0uMTE0LjA0NS0uMTE1LjA0NC0uMTE4LjA0NC0uMTIuMDQ0LS4xMjIuMDQyLS4xMjQuMDQyLS4xMjYuMDQxLS4xMjguMDQtLjEzLjAzOS0uMTMyLjAzOS0uMTM0LjAzOC0uMTM1LjAzNy0uMTM4LjAzNi0uMTM5LjAzNi0uMTQyLjAzNS0uMTQzLjAzMy0uMTQ0LjAzMy0uMTQ3LjAzMy0uMTQ4LjAzMS0uMTUuMDMtLjE1MS4wMy0uMTUzLjAyOC0uMTU0LjAyOC0uMTU2LjAyNy0uMTU4LjAyNi0uMTU5LjAyNS0uMTYxLjAyNC0uMTYyLjAyMy0uMTYzLjAyMi0uMTY1LjAyMS0uMTY2LjAyLS4xNjcuMDE5LS4xNjkuMDE4LS4xNjkuMDE3LS4xNzEuMDE2LS4xNzMuMDE1LS4xNzMuMDE0LS4xNzUuMDEzLS4xNzUuMDEyLS4xNzcuMDExLS4xNzguMDA5LS4xNzkuMDA5LS4xNzkuMDA3LS4xODEuMDA3LS4xODIuMDA1LS4xODIuMDA0LS4xODQuMDAzLS4xODQuMDAyaC0uMzdsLS4xODQtLjAwMi0uMTg0LS4wMDMtLjE4Mi0uMDA0LS4xODItLjAwNS0uMTgxLS4wMDctLjE3OS0uMDA3LS4xNzktLjAwOS0uMTc4LS4wMDktLjE3Ni0uMDExLS4xNzYtLjAxMi0uMTc1LS4wMTMtLjE3My0uMDE0LS4xNzItLjAxNS0uMTcxLS4wMTYtLjE3LS4wMTctLjE2OS0uMDE4LS4xNjctLjAxOS0uMTY2LS4wMi0uMTY1LS4wMjEtLjE2My0uMDIyLS4xNjItLjAyMy0uMTYxLS4wMjQtLjE1OS0uMDI1LS4xNTctLjAyNi0uMTU2LS4wMjctLjE1NS0uMDI4LS4xNTMtLjAyOC0uMTUxLS4wMy0uMTUtLjAzLS4xNDgtLjAzMS0uMTQ2LS4wMzMtLjE0NS0uMDMzLS4xNDMtLjAzMy0uMTQxLS4wMzUtLjE0LS4wMzYtLjEzNy0uMDM2LS4xMzYtLjAzNy0uMTM0LS4wMzgtLjEzMi0uMDM5LS4xMy0uMDM5LS4xMjgtLjA0LS4xMjYtLjA0MS0uMTI0LS4wNDItLjEyMi0uMDQzLS4xMi0uMDQzLS4xMTctLjA0NC0uMTE2LS4wNDQtLjExMy0uMDQ2LS4xMTItLjA0Ni0uMTA5LS4wNDYtLjEwNi0uMDQ3LS4xMDUtLjA0OC0uMTAyLS4wNDktLjEtLjA0OS0uMDk3LS4wNS0uMDk1LS4wNTEtLjA5My0uMDUxLS4wOS0uMDUxLS4wODctLjA1My0uMDg1LS4wNTItLjA4My0uMDU0LS4wOC0uMDU0LS4wNzctLjA1NHY0LjEzOXptMC01LjY2NnYuMDExbC4wMDEuMDIuMDAzLjAyMi4wMDQuMDIxLjAwNS4wMjIuMDA2LjAyMS4wMDcuMDIyLjAwOS4wMjMuMDEuMDIyLjAxMS4wMjMuMDEyLjAyMy4wMTMuMDIzLjAxNS4wMjMuMDE2LjAyNC4wMTcuMDI0LjAxOC4wMjMuMDE5LjAyNC4wMjEuMDI1LjAyMi4wMjQuMDIzLjAyNC4wMjQuMDI1LjA1Mi4wNS4wNTYuMDUuMDYxLjA1LjA2Ni4wNTEuMDcuMDUxLjA3NS4wNTIuMDc5LjA1MS4wODQuMDUyLjA4OC4wNTIuMDkyLjA1Mi4wOTcuMDUyLjEwMi4wNTIuMTA1LjA1MS4xMS4wNTIuMTE0LjA1MS4xMTkuMDUxLjEyMy4wNTEuMTI3LjA1LjEzMS4wNS4xMzUuMDUuMTM5LjA0OS4xNDQuMDQ4LjE0Ny4wNDguMTUyLjA0Ny4xNTUuMDQ2LjE2LjA0NS4xNjMuMDQ1LjE2Ny4wNDMuMTcxLjA0My4xNzYuMDQyLjE3OC4wNC4xODMuMDQuMTg3LjAzOC4xOS4wMzcuMTk0LjAzNi4xOTcuMDM0LjIwMi4wMzMuMjA0LjAzMi4yMDkuMDMuMjEyLjAyOC4yMTYuMDI3LjIxOS4wMjUuMjIyLjAyNC4yMjYuMDIxLjIzLjAyLjIzMy4wMTguMjM2LjAxNy4yNC4wMTQuMjQzLjAxMi4yNDYuMDEuMjQ5LjAwOC4yNTMuMDA2LjI1Ni4wMDMuMjU5LjAwMS4yNi0uMDAxLjI1Ny0uMDAzLjI1NC0uMDA2LjI1LS4wMDguMjQ3LS4wMS4yNDQtLjAxMy4yNDEtLjAxNC4yMzctLjAxNi4yMzMtLjAxOC4yMzEtLjAyLjIyNi0uMDIyLjIyNC0uMDI0LjIyLS4wMjUuMjE2LS4wMjcuMjEyLS4wMjkuMjEtLjAzLjIwNS0uMDMyLjIwMi0uMDMzLjE5OC0uMDM1LjE5NC0uMDM2LjE5MS0uMDM3LjE4Ny0uMDM5LjE4My0uMDM5LjE3OS0uMDQxLjE3NS0uMDQyLjE3Mi0uMDQzLjE2OC0uMDQ0LjE2My0uMDQ1LjE2LS4wNDUuMTU1LS4wNDcuMTUyLS4wNDcuMTQ4LS4wNDguMTQzLS4wNDkuMTM5LS4wNDkuMTM2LS4wNDkuMTMxLS4wNTEuMTI2LS4wNS4xMjMtLjA1MS4xMTgtLjA1Mi4xMTQtLjA1MS4xMS0uMDUyLjEwNi0uMDUyLjEwMS0uMDUyLjA5Ni0uMDUyLjA5Mi0uMDUyLjA4OC0uMDUyLjA4My0uMDUyLjA3OS0uMDUyLjA3NC0uMDUyLjA3LS4wNTEuMDY1LS4wNTEuMDYtLjA1MS4wNTYtLjA1LjA1MS0uMDQ5LjAyMy0uMDI1LjAyMy0uMDI1LjAyMS0uMDI0LjAyLS4wMjQuMDE5LS4wMjQuMDE4LS4wMjQuMDE3LS4wMjQuMDE1LS4wMjMuMDE0LS4wMjQuMDEzLS4wMjMuMDEyLS4wMjMuMDEtLjAyMi4wMS0uMDIzLjAwOC0uMDIyLjAwNi0uMDIyLjAwNi0uMDIyLjAwNC0uMDIyLjAwNC0uMDIxLjAwMS0uMDIxLjAwMS0uMDIxdi00LjE1M2wtLjA3Ny4wNTQtLjA4LjA1NC0uMDgzLjA1My0uMDg1LjA1My0uMDg3LjA1My0uMDkuMDUxLS4wOTMuMDUxLS4wOTUuMDUxLS4wOTcuMDUtLjEuMDQ5LS4xMDIuMDQ4LS4xMDUuMDQ4LS4xMDYuMDQ4LS4xMDkuMDQ2LS4xMTEuMDQ2LS4xMTQuMDQ2LS4xMTUuMDQ0LS4xMTguMDQ0LS4xMi4wNDMtLjEyMi4wNDMtLjEyNC4wNDItLjEyNi4wNDEtLjEyOC4wNC0uMTMuMDM5LS4xMzIuMDM5LS4xMzQuMDM4LS4xMzUuMDM3LS4xMzguMDM2LS4xMzkuMDM2LS4xNDIuMDM0LS4xNDMuMDM0LS4xNDQuMDMzLS4xNDcuMDMyLS4xNDguMDMyLS4xNS4wMy0uMTUxLjAzLS4xNTMuMDI4LS4xNTQuMDI4LS4xNTYuMDI3LS4xNTguMDI2LS4xNTkuMDI0LS4xNjEuMDI0LS4xNjIuMDIzLS4xNjMuMDIzLS4xNjUuMDIxLS4xNjYuMDItLjE2Ny4wMTktLjE2OS4wMTgtLjE2OS4wMTctLjE3MS4wMTYtLjE3My4wMTUtLjE3My4wMTQtLjE3NS4wMTMtLjE3NS4wMTItLjE3Ny4wMS0uMTc4LjAxLS4xNzkuMDA5LS4xNzkuMDA3LS4xODEuMDA2LS4xODIuMDA2LS4xODIuMDA0LS4xODQuMDAzLS4xODQuMDAxLS4xODUuMDAxLS4xODUtLjAwMS0uMTg0LS4wMDEtLjE4NC0uMDAzLS4xODItLjAwNC0uMTgyLS4wMDYtLjE4MS0uMDA2LS4xNzktLjAwNy0uMTc5LS4wMDktLjE3OC0uMDEtLjE3Ni0uMDEtLjE3Ni0uMDEyLS4xNzUtLjAxMy0uMTczLS4wMTQtLjE3Mi0uMDE1LS4xNzEtLjAxNi0uMTctLjAxNy0uMTY5LS4wMTgtLjE2Ny0uMDE5LS4xNjYtLjAyLS4xNjUtLjAyMS0uMTYzLS4wMjMtLjE2Mi0uMDIzLS4xNjEtLjAyNC0uMTU5LS4wMjQtLjE1Ny0uMDI2LS4xNTYtLjAyNy0uMTU1LS4wMjgtLjE1My0uMDI4LS4xNTEtLjAzLS4xNS0uMDMtLjE0OC0uMDMyLS4xNDYtLjAzMi0uMTQ1LS4wMzMtLjE0My0uMDM0LS4xNDEtLjAzNC0uMTQtLjAzNi0uMTM3LS4wMzYtLjEzNi0uMDM3LS4xMzQtLjAzOC0uMTMyLS4wMzktLjEzLS4wMzktLjEyOC0uMDQxLS4xMjYtLjA0MS0uMTI0LS4wNDEtLjEyMi0uMDQzLS4xMi0uMDQzLS4xMTctLjA0NC0uMTE2LS4wNDQtLjExMy0uMDQ2LS4xMTItLjA0Ni0uMTA5LS4wNDYtLjEwNi0uMDQ4LS4xMDUtLjA0OC0uMTAyLS4wNDgtLjEtLjA1LS4wOTctLjA0OS0uMDk1LS4wNTEtLjA5My0uMDUxLS4wOS0uMDUyLS4wODctLjA1Mi0uMDg1LS4wNTMtLjA4My0uMDUzLS4wOC0uMDU0LS4wNzctLjA1NHY0LjE1M3ptOC43NC04LjE3OWwtLjI1Ny4wMDQtLjI1NC4wMDUtLjI1LjAwOC0uMjQ3LjAxMS0uMjQ0LjAxMi0uMjQxLjAxNC0uMjM3LjAxNi0uMjMzLjAxOC0uMjMxLjAyMS0uMjI2LjAyMi0uMjI0LjAyMy0uMjIuMDI2LS4yMTYuMDI3LS4yMTIuMDI4LS4yMS4wMzEtLjIwNS4wMzItLjIwMi4wMzMtLjE5OC4wMzQtLjE5NC4wMzYtLjE5MS4wMzgtLjE4Ny4wMzgtLjE4My4wNC0uMTc5LjA0MS0uMTc1LjA0Mi0uMTcyLjA0My0uMTY4LjA0My0uMTYzLjA0NS0uMTYuMDQ2LS4xNTUuMDQ2LS4xNTIuMDQ4LS4xNDguMDQ4LS4xNDMuMDQ4LS4xMzkuMDQ5LS4xMzYuMDUtLjEzMS4wNS0uMTI2LjA1MS0uMTIzLjA1MS0uMTE4LjA1MS0uMTE0LjA1Mi0uMTEuMDUyLS4xMDYuMDUyLS4xMDEuMDUyLS4wOTYuMDUyLS4wOTIuMDUyLS4wODguMDUyLS4wODMuMDUyLS4wNzkuMDUyLS4wNzQuMDUxLS4wNy4wNTItLjA2NS4wNTEtLjA2LjA1LS4wNTYuMDUtLjA1MS4wNS0uMDIzLjAyNS0uMDIzLjAyNC0uMDIxLjAyNC0uMDIuMDI1LS4wMTkuMDI0LS4wMTguMDI0LS4wMTcuMDIzLS4wMTUuMDI0LS4wMTQuMDIzLS4wMTMuMDIzLS4wMTIuMDIzLS4wMS4wMjMtLjAxLjAyMi0uMDA4LjAyMi0uMDA2LjAyMy0uMDA2LjAyMS0uMDA0LjAyMi0uMDA0LjAyMS0uMDAxLjAyMS0uMDAxLjAyMS4wMDEuMDIxLjAwMS4wMjEuMDA0LjAyMS4wMDQuMDIyLjAwNi4wMjEuMDA2LjAyMy4wMDguMDIyLjAxLjAyMi4wMS4wMjMuMDEyLjAyMy4wMTMuMDIzLjAxNC4wMjMuMDE1LjAyNC4wMTcuMDIzLjAxOC4wMjQuMDE5LjAyNC4wMi4wMjUuMDIxLjAyNC4wMjMuMDI0LjAyMy4wMjUuMDUxLjA1LjA1Ni4wNS4wNi4wNS4wNjUuMDUxLjA3LjA1Mi4wNzQuMDUxLjA3OS4wNTIuMDgzLjA1Mi4wODguMDUyLjA5Mi4wNTIuMDk2LjA1Mi4xMDEuMDUyLjEwNi4wNTIuMTEuMDUyLjExNC4wNTIuMTE4LjA1MS4xMjMuMDUxLjEyNi4wNTEuMTMxLjA1LjEzNi4wNS4xMzkuMDQ5LjE0My4wNDguMTQ4LjA0OC4xNTIuMDQ4LjE1NS4wNDYuMTYuMDQ2LjE2My4wNDUuMTY4LjA0My4xNzIuMDQzLjE3NS4wNDIuMTc5LjA0MS4xODMuMDQuMTg3LjAzOC4xOTEuMDM4LjE5NC4wMzYuMTk4LjAzNC4yMDIuMDMzLjIwNS4wMzIuMjEuMDMxLjIxMi4wMjguMjE2LjAyNy4yMi4wMjYuMjI0LjAyMy4yMjYuMDIyLjIzMS4wMjEuMjMzLjAxOC4yMzcuMDE2LjI0MS4wMTQuMjQ0LjAxMi4yNDcuMDExLjI1LjAwOC4yNTQuMDA1LjI1Ny4wMDQuMjYuMDAxLjI2LS4wMDEuMjU3LS4wMDQuMjU0LS4wMDUuMjUtLjAwOC4yNDctLjAxMS4yNDQtLjAxMi4yNDEtLjAxNC4yMzctLjAxNi4yMzMtLjAxOC4yMzEtLjAyMS4yMjYtLjAyMi4yMjQtLjAyMy4yMi0uMDI2LjIxNi0uMDI3LjIxMi0uMDI4LjIxLS4wMzEuMjA1LS4wMzIuMjAyLS4wMzMuMTk4LS4wMzQuMTk0LS4wMzYuMTkxLS4wMzguMTg3LS4wMzguMTgzLS4wNC4xNzktLjA0MS4xNzUtLjA0Mi4xNzItLjA0My4xNjgtLjA0My4xNjMtLjA0NS4xNi0uMDQ2LjE1NS0uMDQ2LjE1Mi0uMDQ4LjE0OC0uMDQ4LjE0My0uMDQ4LjEzOS0uMDQ5LjEzNi0uMDUuMTMxLS4wNS4xMjYtLjA1MS4xMjMtLjA1MS4xMTgtLjA1MS4xMTQtLjA1Mi4xMS0uMDUyLjEwNi0uMDUyLjEwMS0uMDUyLjA5Ni0uMDUyLjA5Mi0uMDUyLjA4OC0uMDUyLjA4My0uMDUyLjA3OS0uMDUyLjA3NC0uMDUxLjA3LS4wNTIuMDY1LS4wNTEuMDYtLjA1LjA1Ni0uMDUuMDUxLS4wNS4wMjMtLjAyNS4wMjMtLjAyNC4wMjEtLjAyNC4wMi0uMDI1LjAxOS0uMDI0LjAxOC0uMDI0LjAxNy0uMDIzLjAxNS0uMDI0LjAxNC0uMDIzLjAxMy0uMDIzLjAxMi0uMDIzLjAxLS4wMjMuMDEtLjAyMi4wMDgtLjAyMi4wMDYtLjAyMy4wMDYtLjAyMS4wMDQtLjAyMi4wMDQtLjAyMS4wMDEtLjAyMS4wMDEtLjAyMS0uMDAxLS4wMjEtLjAwMS0uMDIxLS4wMDQtLjAyMS0uMDA0LS4wMjItLjAwNi0uMDIxLS4wMDYtLjAyMy0uMDA4LS4wMjItLjAxLS4wMjItLjAxLS4wMjMtLjAxMi0uMDIzLS4wMTMtLjAyMy0uMDE0LS4wMjMtLjAxNS0uMDI0LS4wMTctLjAyMy0uMDE4LS4wMjQtLjAxOS0uMDI0LS4wMi0uMDI1LS4wMjEtLjAyNC0uMDIzLS4wMjQtLjAyMy0uMDI1LS4wNTEtLjA1LS4wNTYtLjA1LS4wNi0uMDUtLjA2NS0uMDUxLS4wNy0uMDUyLS4wNzQtLjA1MS0uMDc5LS4wNTItLjA4My0uMDUyLS4wODgtLjA1Mi0uMDkyLS4wNTItLjA5Ni0uMDUyLS4xMDEtLjA1Mi0uMTA2LS4wNTItLjExLS4wNTItLjExNC0uMDUyLS4xMTgtLjA1MS0uMTIzLS4wNTEtLjEyNi0uMDUxLS4xMzEtLjA1LS4xMzYtLjA1LS4xMzktLjA0OS0uMTQzLS4wNDgtLjE0OC0uMDQ4LS4xNTItLjA0OC0uMTU1LS4wNDYtLjE2LS4wNDYtLjE2My0uMDQ1LS4xNjgtLjA0My0uMTcyLS4wNDMtLjE3NS0uMDQyLS4xNzktLjA0MS0uMTgzLS4wNC0uMTg3LS4wMzgtLjE5MS0uMDM4LS4xOTQtLjAzNi0uMTk4LS4wMzQtLjIwMi0uMDMzLS4yMDUtLjAzMi0uMjEtLjAzMS0uMjEyLS4wMjgtLjIxNi0uMDI3LS4yMi0uMDI2LS4yMjQtLjAyMy0uMjI2LS4wMjItLjIzMS0uMDIxLS4yMzMtLjAxOC0uMjM3LS4wMTYtLjI0MS0uMDE0LS4yNDQtLjAxMi0uMjQ3LS4wMTEtLjI1LS4wMDgtLjI1NC0uMDA1LS4yNTctLjAwNC0uMjYtLjAwMS0uMjYuMDAxeiIgdHJhbnNmb3JtPSJzY2FsZSguNSkiPjwvcGF0aD48L3N5bWJvbD48L2RlZnM+PGRlZnM+PHN5bWJvbCBoZWlnaHQ9IjI0IiB3aWR0aD0iMjQiIGlkPSJjbG9jayI+PHBhdGggZD0iTTEyIDJjNS41MTQgMCAxMCA0LjQ4NiAxMCAxMHMtNC40ODYgMTAtMTAgMTAtMTAtNC40ODYtMTAtMTAgNC40ODYtMTAgMTAtMTB6bTAtMmMtNi42MjcgMC0xMiA1LjM3My0xMiAxMnM1LjM3MyAxMiAxMiAxMiAxMi01LjM3MyAxMi0xMi01LjM3My0xMi0xMi0xMnptNS44NDggMTIuNDU5Yy4yMDIuMDM4LjIwMi4zMzMuMDAxLjM3Mi0xLjkwNy4zNjEtNi4wNDUgMS4xMTEtNi41NDcgMS4xMTEtLjcxOSAwLTEuMzAxLS41ODItMS4zMDEtMS4zMDEgMC0uNTEyLjc3LTUuNDQ3IDEuMTI1LTcuNDQ1LjAzNC0uMTkyLjMxMi0uMTgxLjM0My4wMTRsLjk4NSA2LjIzOCA1LjM5NCAxLjAxMXoiIHRyYW5zZm9ybT0ic2NhbGUoLjUpIj48L3BhdGg+PC9zeW1ib2w+PC9kZWZzPjxnPjxsaW5lIHN0cm9rZT0iIzk5OSIgc3Ryb2tlLXdpZHRoPSIwLjVweCIgY2xhc3M9IjIwMCIgeTI9IjMwMjkiIHgyPSI3NSIgeTE9IjUiIHgxPSI3NSIgaWQ9ImFjdG9yMCI+PC9saW5lPjxnIGlkPSJyb290LTAiPjxyZWN0IGNsYXNzPSJhY3RvciIgcnk9IjMiIHJ4PSIzIiBoZWlnaHQ9IjY1IiB3aWR0aD0iMTUwIiBzdHJva2U9IiM2NjYiIGZpbGw9IiNlYWVhZWEiIHk9IjAiIHg9IjAiPjwvcmVjdD48dGV4dCBzdHlsZT0idGV4dC1hbmNob3I6IG1pZGRsZTsgZm9udC1zaXplOiAxNHB4OyBmb250LXdlaWdodDogNDAwOyBmb250LWZhbWlseTogJnF1b3Q7T3BlbiBTYW5zJnF1b3Q7LCBzYW5zLXNlcmlmOyIgY2xhc3M9ImFjdG9yIiBhbGlnbm1lbnQtYmFzZWxpbmU9ImNlbnRyYWwiIGRvbWluYW50LWJhc2VsaW5lPSJjZW50cmFsIiB5PSIzMi41IiB4PSI3NSI+PHRzcGFuIGR5PSIwIiB4PSI3NSI+QXJjaGl2YWwgU2VydmljZTwvdHNwYW4+PC90ZXh0PjwvZz48L2c+PGc+PGxpbmUgc3Ryb2tlPSIjOTk5IiBzdHJva2Utd2lkdGg9IjAuNXB4IiBjbGFzcz0iMjAwIiB5Mj0iMzAyOSIgeDI9IjU4MiIgeTE9IjUiIHgxPSI1ODIiIGlkPSJhY3RvcjEiPjwvbGluZT48ZyBpZD0icm9vdC0xIj48cmVjdCBjbGFzcz0iYWN0b3IiIHJ5PSIzIiByeD0iMyIgaGVpZ2h0PSI2NSIgd2lkdGg9IjE1MCIgc3Ryb2tlPSIjNjY2IiBmaWxsPSIjZWFlYWVhIiB5PSIwIiB4PSI1MDciPjwvcmVjdD48dGV4dCBzdHlsZT0idGV4dC1hbmNob3I6IG1pZGRsZTsgZm9udC1zaXplOiAxNHB4OyBmb250LXdlaWdodDogNDAwOyBmb250LWZhbWlseTogJnF1b3Q7T3BlbiBTYW5zJnF1b3Q7LCBzYW5zLXNlcmlmOyIgY2xhc3M9ImFjdG9yIiBhbGlnbm1lbnQtYmFzZWxpbmU9ImNlbnRyYWwiIGRvbWluYW50LWJhc2VsaW5lPSJjZW50cmFsIiB5PSIzMi41IiB4PSI1ODIiPjx0c3BhbiBkeT0iMCIgeD0iNTgyIj5MYW5kaW5nIFpvbmU8L3RzcGFuPjwvdGV4dD48L2c+PC9nPjxnPjxsaW5lIHN0cm9rZT0iIzk5OSIgc3Ryb2tlLXdpZHRoPSIwLjVweCIgY2xhc3M9IjIwMCIgeTI9IjMwMjkiIHgyPSIxMDMwIiB5MT0iNSIgeDE9IjEwMzAiIGlkPSJhY3RvcjIiPjwvbGluZT48ZyBpZD0icm9vdC0yIj48cmVjdCBjbGFzcz0iYWN0b3IiIHJ5PSIzIiByeD0iMyIgaGVpZ2h0PSI2NSIgd2lkdGg9IjE1MCIgc3Ryb2tlPSIjNjY2IiBmaWxsPSIjZWFlYWVhIiB5PSIwIiB4PSI5NTUiPjwvcmVjdD48dGV4dCBzdHlsZT0idGV4dC1hbmNob3I6IG1pZGRsZTsgZm9udC1zaXplOiAxNHB4OyBmb250LXdlaWdodDogNDAwOyBmb250LWZhbWlseTogJnF1b3Q7T3BlbiBTYW5zJnF1b3Q7LCBzYW5zLXNlcmlmOyIgY2xhc3M9ImFjdG9yIiBhbGlnbm1lbnQtYmFzZWxpbmU9ImNlbnRyYWwiIGRvbWluYW50LWJhc2VsaW5lPSJjZW50cmFsIiB5PSIzMi41IiB4PSIxMDMwIj48dHNwYW4gZHk9IjAiIHg9IjEwMzAiPldvcmtlcjwvdHNwYW4+PC90ZXh0PjwvZz48L2c+PGc+PGxpbmUgc3Ryb2tlPSIjOTk5IiBzdHJva2Utd2lkdGg9IjAuNXB4IiBjbGFzcz0iMjAwIiB5Mj0iMzAyOSIgeDI9IjEyNDMiIHkxPSI1IiB4MT0iMTI0MyIgaWQ9ImFjdG9yMyI+PC9saW5lPjxnIGlkPSJyb290LTMiPjxyZWN0IGNsYXNzPSJhY3RvciIgcnk9IjMiIHJ4PSIzIiBoZWlnaHQ9IjY1IiB3aWR0aD0iMTUwIiBzdHJva2U9IiM2NjYiIGZpbGw9IiNlYWVhZWEiIHk9IjAiIHg9IjExNjgiPjwvcmVjdD48dGV4dCBzdHlsZT0idGV4dC1hbmNob3I6IG1pZGRsZTsgZm9udC1zaXplOiAxNHB4OyBmb250LXdlaWdodDogNDAwOyBmb250LWZhbWlseTogJnF1b3Q7T3BlbiBTYW5zJnF1b3Q7LCBzYW5zLXNlcmlmOyIgY2xhc3M9ImFjdG9yIiBhbGlnbm1lbnQtYmFzZWxpbmU9ImNlbnRyYWwiIGRvbWluYW50LWJhc2VsaW5lPSJjZW50cmFsIiB5PSIzMi41IiB4PSIxMjQzIj48dHNwYW4gZHk9IjAiIHg9IjEyNDMiPlN0YWdpbmc8L3RzcGFuPjwvdGV4dD48L2c+PC9nPjxnPjxsaW5lIHN0cm9rZT0iIzk5OSIgc3Ryb2tlLXdpZHRoPSIwLjVweCIgY2xhc3M9IjIwMCIgeTI9IjMwMjkiIHgyPSIyMDI1IiB5MT0iNSIgeDE9IjIwMjUiIGlkPSJhY3RvcjQiPjwvbGluZT48ZyBpZD0icm9vdC00Ij48cmVjdCBjbGFzcz0iYWN0b3IiIHJ5PSIzIiByeD0iMyIgaGVpZ2h0PSI2NSIgd2lkdGg9IjE1MCIgc3Ryb2tlPSIjNjY2IiBmaWxsPSIjZWFlYWVhIiB5PSIwIiB4PSIxOTUwIj48L3JlY3Q+PHRleHQgc3R5bGU9InRleHQtYW5jaG9yOiBtaWRkbGU7IGZvbnQtc2l6ZTogMTRweDsgZm9udC13ZWlnaHQ6IDQwMDsgZm9udC1mYW1pbHk6ICZxdW90O09wZW4gU2FucyZxdW90Oywgc2Fucy1zZXJpZjsiIGNsYXNzPSJhY3RvciIgYWxpZ25tZW50LWJhc2VsaW5lPSJjZW50cmFsIiBkb21pbmFudC1iYXNlbGluZT0iY2VudHJhbCIgeT0iMzIuNSIgeD0iMjAyNSI+PHRzcGFuIGR5PSIwIiB4PSIyMDI1Ij5TY2lDYXQ8L3RzcGFuPjwvdGV4dD48L2c+PC9nPjxnPjxsaW5lIHN0cm9rZT0iIzk5OSIgc3Ryb2tlLXdpZHRoPSIwLjVweCIgY2xhc3M9IjIwMCIgeTI9IjMwMjkiIHgyPSIyMjYzLjUiIHkxPSI1IiB4MT0iMjI2My41IiBpZD0iYWN0b3I1Ij48L2xpbmU+PGcgaWQ9InJvb3QtNSI+PHJlY3QgY2xhc3M9ImFjdG9yIiByeT0iMyIgcng9IjMiIGhlaWdodD0iNjUiIHdpZHRoPSIxNTAiIHN0cm9rZT0iIzY2NiIgZmlsbD0iI2VhZWFlYSIgeT0iMCIgeD0iMjE4OC41Ij48L3JlY3Q+PHRleHQgc3R5bGU9InRleHQtYW5jaG9yOiBtaWRkbGU7IGZvbnQtc2l6ZTogMTRweDsgZm9udC13ZWlnaHQ6IDQwMDsgZm9udC1mYW1pbHk6ICZxdW90O09wZW4gU2FucyZxdW90Oywgc2Fucy1zZXJpZjsiIGNsYXNzPSJhY3RvciIgYWxpZ25tZW50LWJhc2VsaW5lPSJjZW50cmFsIiBkb21pbmFudC1iYXNlbGluZT0iY2VudHJhbCIgeT0iMzIuNSIgeD0iMjI2My41Ij48dHNwYW4gZHk9IjAiIHg9IjIyNjMuNSI+TFRTPC90c3Bhbj48L3RleHQ+PC9nPjwvZz48ZGVmcz48bWFya2VyIG9yaWVudD0iYXV0byIgbWFya2VySGVpZ2h0PSIxMiIgbWFya2VyV2lkdGg9IjEyIiBtYXJrZXJVbml0cz0idXNlclNwYWNlT25Vc2UiIHJlZlk9IjUiIHJlZlg9IjkiIGlkPSJhcnJvd2hlYWQiPjxwYXRoIGQ9Ik0gMCAwIEwgMTAgNSBMIDAgMTAgeiI+PC9wYXRoPjwvbWFya2VyPjwvZGVmcz48ZGVmcz48bWFya2VyIHJlZlk9IjQiIHJlZlg9IjE2IiBvcmllbnQ9ImF1dG8iIG1hcmtlckhlaWdodD0iOCIgbWFya2VyV2lkdGg9IjE1IiBpZD0iY3Jvc3NoZWFkIj48cGF0aCBzdHlsZT0ic3Ryb2tlLWRhc2hhcnJheTogMCwgMDsiIGQ9Ik0gOSwyIFYgNiBMMTYsNCBaIiBzdHJva2Utd2lkdGg9IjFweCIgc3Ryb2tlPSIjMDAwMDAwIiBmaWxsPSJibGFjayI+PC9wYXRoPjxwYXRoIHN0eWxlPSJzdHJva2UtZGFzaGFycmF5OiAwLCAwOyIgZD0iTSAwLDEgTCA2LDcgTSA2LDEgTCAwLDciIHN0cm9rZS13aWR0aD0iMXB4IiBzdHJva2U9IiMwMDAwMDAiIGZpbGw9Im5vbmUiPjwvcGF0aD48L21hcmtlcj48L2RlZnM+PGRlZnM+PG1hcmtlciBvcmllbnQ9ImF1dG8iIG1hcmtlckhlaWdodD0iMjgiIG1hcmtlcldpZHRoPSIyMCIgcmVmWT0iNyIgcmVmWD0iMTgiIGlkPSJmaWxsZWQtaGVhZCI+PHBhdGggZD0iTSAxOCw3IEw5LDEzIEwxNCw3IEw5LDEgWiI+PC9wYXRoPjwvbWFya2VyPjwvZGVmcz48ZGVmcz48bWFya2VyIG9yaWVudD0iYXV0byIgbWFya2VySGVpZ2h0PSI0MCIgbWFya2VyV2lkdGg9IjYwIiByZWZZPSIxNSIgcmVmWD0iMTUiIGlkPSJzZXF1ZW5jZW51bWJlciI+PGNpcmNsZSByPSI2IiBjeT0iMTUiIGN4PSIxNSI+PC9jaXJjbGU+PC9tYXJrZXI+PC9kZWZzPjxnPjxyZWN0IGNsYXNzPSJhY3RpdmF0aW9uMCIgcnk9IjAiIHJ4PSIwIiBoZWlnaHQ9IjMxNyIgd2lkdGg9IjEwIiBzdHJva2U9IiM2NjYiIGZpbGw9IiNFREYyQUUiIHk9IjExMSIgeD0iNzAiPjwvcmVjdD48L2c+PGc+PHJlY3QgY2xhc3M9Im5vdGUiIHJ5PSIwIiByeD0iMCIgaGVpZ2h0PSIzNiIgd2lkdGg9IjQ1NyIgc3Ryb2tlPSIjNjY2IiBmaWxsPSIjRURGMkFFIiB5PSIxMTkiIHg9IjEwMCI+PC9yZWN0Pjx0ZXh0IHN0eWxlPSJmb250LWZhbWlseTogJnF1b3Q7dHJlYnVjaGV0IG1zJnF1b3Q7LCB2ZXJkYW5hLCBhcmlhbCwgc2Fucy1zZXJpZjsgZm9udC1zaXplOiAxNHB4OyBmb250LXdlaWdodDogNDAwOyIgZHk9IjFlbSIgY2xhc3M9Im5vdGVUZXh0IiBhbGlnbm1lbnQtYmFzZWxpbmU9Im1pZGRsZSIgZG9taW5hbnQtYmFzZWxpbmU9Im1pZGRsZSIgdGV4dC1hbmNob3I9Im1pZGRsZSIgeT0iMTI0IiB4PSIzMjkiPjx0c3BhbiB4PSIzMjkiPkpvYiB7ImlkIiA6ICJpZCIsICJ0eXBlIjoiYXJjaGl2ZSIsICJkYXRhc2V0bGlzdCI6IFtdLCAuLi4gfSBhcyBkZWZpbmVkIGluIFNjaWNhdDwvdHNwYW4+PC90ZXh0PjwvZz48Zz48cmVjdCBjbGFzcz0iYWN0aXZhdGlvbjAiIHJ5PSIwIiByeD0iMCIgaGVpZ2h0PSI4MiIgd2lkdGg9IjEwIiBzdHJva2U9IiM2NjYiIGZpbGw9IiNFREYyQUUiIHk9IjIwMSIgeD0iMjAyMCI+PC9yZWN0PjwvZz48Zz48cmVjdCBjbGFzcz0iYWN0aXZhdGlvbjAiIHJ5PSIwIiByeD0iMCIgaGVpZ2h0PSI4OCIgd2lkdGg9IjEwIiBzdHJva2U9IiM2NjYiIGZpbGw9IiNFREYyQUUiIHk9IjMzMCIgeD0iMTAyNSI+PC9yZWN0PjwvZz48Zz48cmVjdCBjbGFzcz0iYWN0aXZhdGlvbjAiIHJ5PSIwIiByeD0iMCIgaGVpZ2h0PSI4OCIgd2lkdGg9IjEwIiBzdHJva2U9IiM2NjYiIGZpbGw9IiNFREYyQUUiIHk9IjMzMCIgeD0iMjAyMCI+PC9yZWN0PjwvZz48Zz48cmVjdCBjbGFzcz0ibm90ZSIgcnk9IjAiIHJ4PSIwIiBoZWlnaHQ9IjM2IiB3aWR0aD0iMjQzIiBzdHJva2U9IiM2NjYiIGZpbGw9IiNFREYyQUUiIHk9IjM4MiIgeD0iMTc1NyI+PC9yZWN0Pjx0ZXh0IHN0eWxlPSJmb250LWZhbWlseTogJnF1b3Q7dHJlYnVjaGV0IG1zJnF1b3Q7LCB2ZXJkYW5hLCBhcmlhbCwgc2Fucy1zZXJpZjsgZm9udC1zaXplOiAxNHB4OyBmb250LXdlaWdodDogNDAwOyIgZHk9IjFlbSIgY2xhc3M9Im5vdGVUZXh0IiBhbGlnbm1lbnQtYmFzZWxpbmU9Im1pZGRsZSIgZG9taW5hbnQtYmFzZWxpbmU9Im1pZGRsZSIgdGV4dC1hbmNob3I9Im1pZGRsZSIgeT0iMzg3IiB4PSIxODc5Ij48dHNwYW4geD0iMTg3OSI+eyJqb2JTdGF0dXNNZXNzYWdlIjogImluUHJvZ3Jlc3MifSw8L3RzcGFuPjwvdGV4dD48L2c+PGc+PGxpbmUgY2xhc3M9Imxvb3BMaW5lIiB5Mj0iMjkzIiB4Mj0iMjA0MCIgeTE9IjI5MyIgeDE9IjEwMTUiPjwvbGluZT48bGluZSBjbGFzcz0ibG9vcExpbmUiIHkyPSI0MjgiIHgyPSIyMDQwIiB5MT0iMjkzIiB4MT0iMjA0MCI+PC9saW5lPjxsaW5lIGNsYXNzPSJsb29wTGluZSIgeTI9IjQyOCIgeDI9IjIwNDAiIHkxPSI0MjgiIHgxPSIxMDE1Ij48L2xpbmU+PGxpbmUgY2xhc3M9Imxvb3BMaW5lIiB5Mj0iNDI4IiB4Mj0iMTAxNSIgeTE9IjI5MyIgeDE9IjEwMTUiPjwvbGluZT48cG9seWdvbiBjbGFzcz0ibGFiZWxCb3giIHBvaW50cz0iMTAxNSwyOTMgMTA2NSwyOTMgMTA2NSwzMDYgMTA1Ni42LDMxMyAxMDE1LDMxMyI+PC9wb2x5Z29uPjx0ZXh0IHN0eWxlPSJmb250LWZhbWlseTogJnF1b3Q7dHJlYnVjaGV0IG1zJnF1b3Q7LCB2ZXJkYW5hLCBhcmlhbCwgc2Fucy1zZXJpZjsgZm9udC1zaXplOiAxNnB4OyBmb250LXdlaWdodDogNDAwOyIgY2xhc3M9ImxhYmVsVGV4dCIgYWxpZ25tZW50LWJhc2VsaW5lPSJtaWRkbGUiIGRvbWluYW50LWJhc2VsaW5lPSJtaWRkbGUiIHRleHQtYW5jaG9yPSJtaWRkbGUiIHk9IjMwNiIgeD0iMTA0MCI+bG9vcDwvdGV4dD48dGV4dCBzdHlsZT0iZm9udC1mYW1pbHk6ICZxdW90O3RyZWJ1Y2hldCBtcyZxdW90OywgdmVyZGFuYSwgYXJpYWwsIHNhbnMtc2VyaWY7IGZvbnQtc2l6ZTogMTZweDsgZm9udC13ZWlnaHQ6IDQwMDsiIGNsYXNzPSJsb29wVGV4dCIgdGV4dC1hbmNob3I9Im1pZGRsZSIgeT0iMzExIiB4PSIxNTUyLjUiPjx0c3BhbiB4PSIxNTUyLjUiPltSZXRyeTogRXhwb25lbnRpYWwgYmFja29mZl08L3RzcGFuPjwvdGV4dD48L2c+PGc+PHJlY3QgY2xhc3M9ImFjdGl2YXRpb24wIiByeT0iMCIgcng9IjAiIGhlaWdodD0iNjU3IiB3aWR0aD0iMTAiIHN0cm9rZT0iIzY2NiIgZmlsbD0iI0VERjJBRSIgeT0iNTIwIiB4PSIxMDI1Ij48L3JlY3Q+PC9nPjxnPjxyZWN0IGNsYXNzPSJhY3RpdmF0aW9uMSIgcnk9IjAiIHJ4PSIwIiBoZWlnaHQ9Ijg4IiB3aWR0aD0iMTAiIHN0cm9rZT0iIzY2NiIgZmlsbD0iI0VERjJBRSIgeT0iNTY1IiB4PSIxMDMwIj48L3JlY3Q+PC9nPjxnPjxyZWN0IGNsYXNzPSJhY3RpdmF0aW9uMCIgcnk9IjAiIHJ4PSIwIiBoZWlnaHQ9Ijg4IiB3aWR0aD0iMTAiIHN0cm9rZT0iIzY2NiIgZmlsbD0iI0VERjJBRSIgeT0iNTY1IiB4PSIyMDIwIj48L3JlY3Q+PC9nPjxnPjxyZWN0IGNsYXNzPSJub3RlIiByeT0iMCIgcng9IjAiIGhlaWdodD0iMzYiIHdpZHRoPSIzNjUiIHN0cm9rZT0iIzY2NiIgZmlsbD0iI0VERjJBRSIgeT0iNjE3IiB4PSIxNjM1Ij48L3JlY3Q+PHRleHQgc3R5bGU9ImZvbnQtZmFtaWx5OiAmcXVvdDt0cmVidWNoZXQgbXMmcXVvdDssIHZlcmRhbmEsIGFyaWFsLCBzYW5zLXNlcmlmOyBmb250LXNpemU6IDE0cHg7IGZvbnQtd2VpZ2h0OiA0MDA7IiBkeT0iMWVtIiBjbGFzcz0ibm90ZVRleHQiIGFsaWdubWVudC1iYXNlbGluZT0ibWlkZGxlIiBkb21pbmFudC1iYXNlbGluZT0ibWlkZGxlIiB0ZXh0LWFuY2hvcj0ibWlkZGxlIiB5PSI2MjIiIHg9IjE4MTgiPjx0c3BhbiB4PSIxODE4Ij57ImRhdGFzZXRsaWZlY3ljbGUiOiB7ImFyY2hpdmVTdGF0dXNNZXNzYWdlIjogInN0YXJ0ZWQifX08L3RzcGFuPjwvdGV4dD48L2c+PGc+PGxpbmUgY2xhc3M9Imxvb3BMaW5lIiB5Mj0iNTI4IiB4Mj0iMjA0MCIgeTE9IjUyOCIgeDE9IjEwMTUiPjwvbGluZT48bGluZSBjbGFzcz0ibG9vcExpbmUiIHkyPSI2NjMiIHgyPSIyMDQwIiB5MT0iNTI4IiB4MT0iMjA0MCI+PC9saW5lPjxsaW5lIGNsYXNzPSJsb29wTGluZSIgeTI9IjY2MyIgeDI9IjIwNDAiIHkxPSI2NjMiIHgxPSIxMDE1Ij48L2xpbmU+PGxpbmUgY2xhc3M9Imxvb3BMaW5lIiB5Mj0iNjYzIiB4Mj0iMTAxNSIgeTE9IjUyOCIgeDE9IjEwMTUiPjwvbGluZT48cG9seWdvbiBjbGFzcz0ibGFiZWxCb3giIHBvaW50cz0iMTAxNSw1MjggMTA2NSw1MjggMTA2NSw1NDEgMTA1Ni42LDU0OCAxMDE1LDU0OCI+PC9wb2x5Z29uPjx0ZXh0IHN0eWxlPSJmb250LWZhbWlseTogJnF1b3Q7dHJlYnVjaGV0IG1zJnF1b3Q7LCB2ZXJkYW5hLCBhcmlhbCwgc2Fucy1zZXJpZjsgZm9udC1zaXplOiAxNnB4OyBmb250LXdlaWdodDogNDAwOyIgY2xhc3M9ImxhYmVsVGV4dCIgYWxpZ25tZW50LWJhc2VsaW5lPSJtaWRkbGUiIGRvbWluYW50LWJhc2VsaW5lPSJtaWRkbGUiIHRleHQtYW5jaG9yPSJtaWRkbGUiIHk9IjU0MSIgeD0iMTA0MCI+bG9vcDwvdGV4dD48dGV4dCBzdHlsZT0iZm9udC1mYW1pbHk6ICZxdW90O3RyZWJ1Y2hldCBtcyZxdW90OywgdmVyZGFuYSwgYXJpYWwsIHNhbnMtc2VyaWY7IGZvbnQtc2l6ZTogMTZweDsgZm9udC13ZWlnaHQ6IDQwMDsiIGNsYXNzPSJsb29wVGV4dCIgdGV4dC1hbmNob3I9Im1pZGRsZSIgeT0iNTQ2IiB4PSIxNTUyLjUiPjx0c3BhbiB4PSIxNTUyLjUiPltSZXRyeTogRXhwb25lbnRpYWwgYmFja29mZl08L3RzcGFuPjwvdGV4dD48L2c+PGc+PHJlY3QgY2xhc3M9ImFjdGl2YXRpb24xIiByeT0iMCIgcng9IjAiIGhlaWdodD0iMTM0IiB3aWR0aD0iMTAiIHN0cm9rZT0iIzY2NiIgZmlsbD0iI0VERjJBRSIgeT0iNzEwIiB4PSIxMDMwIj48L3JlY3Q+PC9nPjxnPjxyZWN0IGNsYXNzPSJhY3RpdmF0aW9uMCIgcnk9IjAiIHJ4PSIwIiBoZWlnaHQ9IjEzNCIgd2lkdGg9IjEwIiBzdHJva2U9IiM2NjYiIGZpbGw9IiNFREYyQUUiIHk9IjcxMCIgeD0iMjAyMCI+PC9yZWN0PjwvZz48Zz48cmVjdCBjbGFzcz0ibm90ZSIgcnk9IjAiIHJ4PSIwIiBoZWlnaHQ9IjM2IiB3aWR0aD0iMTUwIiBzdHJva2U9IiM2NjYiIGZpbGw9IiNFREYyQUUiIHk9IjgwOCIgeD0iMTA1NSI+PC9yZWN0Pjx0ZXh0IHN0eWxlPSJmb250LWZhbWlseTogJnF1b3Q7dHJlYnVjaGV0IG1zJnF1b3Q7LCB2ZXJkYW5hLCBhcmlhbCwgc2Fucy1zZXJpZjsgZm9udC1zaXplOiAxNHB4OyBmb250LXdlaWdodDogNDAwOyIgZHk9IjFlbSIgY2xhc3M9Im5vdGVUZXh0IiBhbGlnbm1lbnQtYmFzZWxpbmU9Im1pZGRsZSIgZG9taW5hbnQtYmFzZWxpbmU9Im1pZGRsZSIgdGV4dC1hbmNob3I9Im1pZGRsZSIgeT0iODEzIiB4PSIxMTMwIj48dHNwYW4geD0iMTEzMCI+eyIifSw8L3RzcGFuPjwvdGV4dD48L2c+PGc+PGxpbmUgY2xhc3M9Imxvb3BMaW5lIiB5Mj0iNjczIiB4Mj0iMjA0MCIgeTE9IjY3MyIgeDE9IjEwMTUiPjwvbGluZT48bGluZSBjbGFzcz0ibG9vcExpbmUiIHkyPSI4NTQiIHgyPSIyMDQwIiB5MT0iNjczIiB4MT0iMjA0MCI+PC9saW5lPjxsaW5lIGNsYXNzPSJsb29wTGluZSIgeTI9Ijg1NCIgeDI9IjIwNDAiIHkxPSI4NTQiIHgxPSIxMDE1Ij48L2xpbmU+PGxpbmUgY2xhc3M9Imxvb3BMaW5lIiB5Mj0iODU0IiB4Mj0iMTAxNSIgeTE9IjY3MyIgeDE9IjEwMTUiPjwvbGluZT48cG9seWdvbiBjbGFzcz0ibGFiZWxCb3giIHBvaW50cz0iMTAxNSw2NzMgMTA2NSw2NzMgMTA2NSw2ODYgMTA1Ni42LDY5MyAxMDE1LDY5MyI+PC9wb2x5Z29uPjx0ZXh0IHN0eWxlPSJmb250LWZhbWlseTogJnF1b3Q7dHJlYnVjaGV0IG1zJnF1b3Q7LCB2ZXJkYW5hLCBhcmlhbCwgc2Fucy1zZXJpZjsgZm9udC1zaXplOiAxNnB4OyBmb250LXdlaWdodDogNDAwOyIgY2xhc3M9ImxhYmVsVGV4dCIgYWxpZ25tZW50LWJhc2VsaW5lPSJtaWRkbGUiIGRvbWluYW50LWJhc2VsaW5lPSJtaWRkbGUiIHRleHQtYW5jaG9yPSJtaWRkbGUiIHk9IjY4NiIgeD0iMTA0MCI+bG9vcDwvdGV4dD48dGV4dCBzdHlsZT0iZm9udC1mYW1pbHk6ICZxdW90O3RyZWJ1Y2hldCBtcyZxdW90OywgdmVyZGFuYSwgYXJpYWwsIHNhbnMtc2VyaWY7IGZvbnQtc2l6ZTogMTZweDsgZm9udC13ZWlnaHQ6IDQwMDsiIGNsYXNzPSJsb29wVGV4dCIgdGV4dC1hbmNob3I9Im1pZGRsZSIgeT0iNjkxIiB4PSIxNTUyLjUiPjx0c3BhbiB4PSIxNTUyLjUiPltSZXRyeTogRXhwb25lbnRpYWwgYmFja29mZl08L3RzcGFuPjwvdGV4dD48L2c+PGc+PHJlY3QgY2xhc3M9ImFjdGl2YXRpb24xIiByeT0iMCIgcng9IjAiIGhlaWdodD0iODgiIHdpZHRoPSIxMCIgc3Ryb2tlPSIjNjY2IiBmaWxsPSIjRURGMkFFIiB5PSI5ODkiIHg9IjEwMzAiPjwvcmVjdD48L2c+PGc+PHJlY3QgY2xhc3M9Im5vdGUiIHJ5PSIwIiByeD0iMCIgaGVpZ2h0PSIzNiIgd2lkdGg9IjE1MCIgc3Ryb2tlPSIjNjY2IiBmaWxsPSIjRURGMkFFIiB5PSIxMDQxIiB4PSIxODUwIj48L3JlY3Q+PHRleHQgc3R5bGU9ImZvbnQtZmFtaWx5OiAmcXVvdDt0cmVidWNoZXQgbXMmcXVvdDssIHZlcmRhbmEsIGFyaWFsLCBzYW5zLXNlcmlmOyBmb250LXNpemU6IDE0cHg7IGZvbnQtd2VpZ2h0OiA0MDA7IiBkeT0iMWVtIiBjbGFzcz0ibm90ZVRleHQiIGFsaWdubWVudC1iYXNlbGluZT0ibWlkZGxlIiBkb21pbmFudC1iYXNlbGluZT0ibWlkZGxlIiB0ZXh0LWFuY2hvcj0ibWlkZGxlIiB5PSIxMDQ2IiB4PSIxOTI1Ij48dHNwYW4geD0iMTkyNSI+PzwvdHNwYW4+PC90ZXh0PjwvZz48Zz48bGluZSBjbGFzcz0ibG9vcExpbmUiIHkyPSI5NTIiIHgyPSIyMDM1IiB5MT0iOTUyIiB4MT0iMTAxNSI+PC9saW5lPjxsaW5lIGNsYXNzPSJsb29wTGluZSIgeTI9IjEwODciIHgyPSIyMDM1IiB5MT0iOTUyIiB4MT0iMjAzNSI+PC9saW5lPjxsaW5lIGNsYXNzPSJsb29wTGluZSIgeTI9IjEwODciIHgyPSIyMDM1IiB5MT0iMTA4NyIgeDE9IjEwMTUiPjwvbGluZT48bGluZSBjbGFzcz0ibG9vcExpbmUiIHkyPSIxMDg3IiB4Mj0iMTAxNSIgeTE9Ijk1MiIgeDE9IjEwMTUiPjwvbGluZT48cG9seWdvbiBjbGFzcz0ibGFiZWxCb3giIHBvaW50cz0iMTAxNSw5NTIgMTA2NSw5NTIgMTA2NSw5NjUgMTA1Ni42LDk3MiAxMDE1LDk3MiI+PC9wb2x5Z29uPjx0ZXh0IHN0eWxlPSJmb250LWZhbWlseTogJnF1b3Q7dHJlYnVjaGV0IG1zJnF1b3Q7LCB2ZXJkYW5hLCBhcmlhbCwgc2Fucy1zZXJpZjsgZm9udC1zaXplOiAxNnB4OyBmb250LXdlaWdodDogNDAwOyIgY2xhc3M9ImxhYmVsVGV4dCIgYWxpZ25tZW50LWJhc2VsaW5lPSJtaWRkbGUiIGRvbWluYW50LWJhc2VsaW5lPSJtaWRkbGUiIHRleHQtYW5jaG9yPSJtaWRkbGUiIHk9Ijk2NSIgeD0iMTA0MCI+bG9vcDwvdGV4dD48dGV4dCBzdHlsZT0iZm9udC1mYW1pbHk6ICZxdW90O3RyZWJ1Y2hldCBtcyZxdW90OywgdmVyZGFuYSwgYXJpYWwsIHNhbnMtc2VyaWY7IGZvbnQtc2l6ZTogMTZweDsgZm9udC13ZWlnaHQ6IDQwMDsiIGNsYXNzPSJsb29wVGV4dCIgdGV4dC1hbmNob3I9Im1pZGRsZSIgeT0iOTcwIiB4PSIxNTUwIj48dHNwYW4geD0iMTU1MCI+W1JldHJ5OiBFeHBvbmVudGlhbCBiYWNrb2ZmXTwvdHNwYW4+PC90ZXh0PjwvZz48Zz48cmVjdCBjbGFzcz0ibm90ZSIgcnk9IjAiIHJ4PSIwIiBoZWlnaHQ9IjM2IiB3aWR0aD0iMzk4IiBzdHJva2U9IiM2NjYiIGZpbGw9IiNFREYyQUUiIHk9IjExNDEiIHg9IjYwNyI+PC9yZWN0Pjx0ZXh0IHN0eWxlPSJmb250LWZhbWlseTogJnF1b3Q7dHJlYnVjaGV0IG1zJnF1b3Q7LCB2ZXJkYW5hLCBhcmlhbCwgc2Fucy1zZXJpZjsgZm9udC1zaXplOiAxNHB4OyBmb250LXdlaWdodDogNDAwOyIgZHk9IjFlbSIgY2xhc3M9Im5vdGVUZXh0IiBhbGlnbm1lbnQtYmFzZWxpbmU9Im1pZGRsZSIgZG9taW5hbnQtYmFzZWxpbmU9Im1pZGRsZSIgdGV4dC1hbmNob3I9Im1pZGRsZSIgeT0iMTE0NiIgeD0iODA2Ij48dHNwYW4geD0iODA2Ij5EYXRhc2V0IGZpbGVzIG9ubHkgZ2V0IGNsZWFuZWQgdXAgd2hlbiBldmVyeXRoaW5ncyBzdWNjZWVkczwvdHNwYW4+PC90ZXh0PjwvZz48Zz48cmVjdCBjbGFzcz0iYWN0aXZhdGlvbjAiIHJ5PSIwIiByeD0iMCIgaGVpZ2h0PSIyMjQiIHdpZHRoPSIxMCIgc3Ryb2tlPSIjNjY2IiBmaWxsPSIjRURGMkFFIiB5PSIxMjIyIiB4PSIxMDI1Ij48L3JlY3Q+PC9nPjxnPjxyZWN0IGNsYXNzPSJub3RlIiByeT0iMCIgcng9IjAiIGhlaWdodD0iMzYiIHdpZHRoPSI2NjYiIHN0cm9rZT0iIzY2NiIgZmlsbD0iI0VERjJBRSIgeT0iMTI3NiIgeD0iMTMzNCI+PC9yZWN0Pjx0ZXh0IHN0eWxlPSJmb250LWZhbWlseTogJnF1b3Q7dHJlYnVjaGV0IG1zJnF1b3Q7LCB2ZXJkYW5hLCBhcmlhbCwgc2Fucy1zZXJpZjsgZm9udC1zaXplOiAxNHB4OyBmb250LXdlaWdodDogNDAwOyIgZHk9IjFlbSIgY2xhc3M9Im5vdGVUZXh0IiBhbGlnbm1lbnQtYmFzZWxpbmU9Im1pZGRsZSIgZG9taW5hbnQtYmFzZWxpbmU9Im1pZGRsZSIgdGV4dC1hbmNob3I9Im1pZGRsZSIgeT0iMTI4MSIgeD0iMTY2NyI+PHRzcGFuIHg9IjE2NjciPnsiZGF0YXNldGxpZmVjeWNsZTp7ImFyY2hpdmVTdGF0dXNNZXNzYWdlIjogIm1pc3NpbmdGaWxlc0Vycm9yIiwgImFyY2hpdmFibGUiOiBGYWxzZSwgInJldHJpZXZhYmxlIjpGYWxzZX19PC90c3Bhbj48L3RleHQ+PC9nPjxnPjxyZWN0IGNsYXNzPSJub3RlIiByeT0iMCIgcng9IjAiIGhlaWdodD0iMzYiIHdpZHRoPSIxODUiIHN0cm9rZT0iIzY2NiIgZmlsbD0iI0VERjJBRSIgeT0iMTQxMCIgeD0iNjA3Ij48L3JlY3Q+PHRleHQgc3R5bGU9ImZvbnQtZmFtaWx5OiAmcXVvdDt0cmVidWNoZXQgbXMmcXVvdDssIHZlcmRhbmEsIGFyaWFsLCBzYW5zLXNlcmlmOyBmb250LXNpemU6IDE0cHg7IGZvbnQtd2VpZ2h0OiA0MDA7IiBkeT0iMWVtIiBjbGFzcz0ibm90ZVRleHQiIGFsaWdubWVudC1iYXNlbGluZT0ibWlkZGxlIiBkb21pbmFudC1iYXNlbGluZT0ibWlkZGxlIiB0ZXh0LWFuY2hvcj0ibWlkZGxlIiB5PSIxNDE1IiB4PSI3MDAiPjx0c3BhbiB4PSI3MDAiPk5vIGNsZWFudXAgb2YgZGF0YXNldCBmaWxlczwvdHNwYW4+PC90ZXh0PjwvZz48Zz48cmVjdCBjbGFzcz0iYWN0aXZhdGlvbjAiIHJ5PSIwIiByeD0iMCIgaGVpZ2h0PSIyMjQiIHdpZHRoPSIxMCIgc3Ryb2tlPSIjNjY2IiBmaWxsPSIjRURGMkFFIiB5PSIxNDkxIiB4PSIxMDI1Ij48L3JlY3Q+PC9nPjxnPjxyZWN0IGNsYXNzPSJub3RlIiByeT0iMCIgcng9IjAiIGhlaWdodD0iMzYiIHdpZHRoPSI3MzIiIHN0cm9rZT0iIzY2NiIgZmlsbD0iI0VERjJBRSIgeT0iMTU0NSIgeD0iMTI2OCI+PC9yZWN0Pjx0ZXh0IHN0eWxlPSJmb250LWZhbWlseTogJnF1b3Q7dHJlYnVjaGV0IG1zJnF1b3Q7LCB2ZXJkYW5hLCBhcmlhbCwgc2Fucy1zZXJpZjsgZm9udC1zaXplOiAxNHB4OyBmb250LXdlaWdodDogNDAwOyIgZHk9IjFlbSIgY2xhc3M9Im5vdGVUZXh0IiBhbGlnbm1lbnQtYmFzZWxpbmU9Im1pZGRsZSIgZG9taW5hbnQtYmFzZWxpbmU9Im1pZGRsZSIgdGV4dC1hbmNob3I9Im1pZGRsZSIgeT0iMTU1MCIgeD0iMTYzNCI+PHRzcGFuIHg9IjE2MzQiPnsiZGF0YXNldGxpZmVjeWNsZTp7ImFyY2hpdmVTdGF0dXNNZXNzYWdlIjogInNjaGVkdWxlQXJjaGl2ZUpvYkZhaWxlZCIsICJhcmNoaXZhYmxlIjogImZhbHNlIiwgInJldHJpZXZhYmxlIjoiZmFsc2UifX08L3RzcGFuPjwvdGV4dD48L2c+PGc+PHJlY3QgY2xhc3M9Im5vdGUiIHJ5PSIwIiByeD0iMCIgaGVpZ2h0PSIzNiIgd2lkdGg9IjE4NSIgc3Ryb2tlPSIjNjY2IiBmaWxsPSIjRURGMkFFIiB5PSIxNjc5IiB4PSI2MDciPjwvcmVjdD48dGV4dCBzdHlsZT0iZm9udC1mYW1pbHk6ICZxdW90O3RyZWJ1Y2hldCBtcyZxdW90OywgdmVyZGFuYSwgYXJpYWwsIHNhbnMtc2VyaWY7IGZvbnQtc2l6ZTogMTRweDsgZm9udC13ZWlnaHQ6IDQwMDsiIGR5PSIxZW0iIGNsYXNzPSJub3RlVGV4dCIgYWxpZ25tZW50LWJhc2VsaW5lPSJtaWRkbGUiIGRvbWluYW50LWJhc2VsaW5lPSJtaWRkbGUiIHRleHQtYW5jaG9yPSJtaWRkbGUiIHk9IjE2ODQiIHg9IjcwMCI+PHRzcGFuIHg9IjcwMCI+Tm8gY2xlYW51cCBvZiBkYXRhc2V0IGZpbGVzPC90c3Bhbj48L3RleHQ+PC9nPjxnPjxsaW5lIGNsYXNzPSJsb29wTGluZSIgeTI9IjQ4MyIgeDI9IjIwNTAiIHkxPSI0ODMiIHgxPSI1NzIiPjwvbGluZT48bGluZSBjbGFzcz0ibG9vcExpbmUiIHkyPSIxNzI1IiB4Mj0iMjA1MCIgeTE9IjQ4MyIgeDE9IjIwNTAiPjwvbGluZT48bGluZSBjbGFzcz0ibG9vcExpbmUiIHkyPSIxNzI1IiB4Mj0iMjA1MCIgeTE9IjE3MjUiIHgxPSI1NzIiPjwvbGluZT48bGluZSBjbGFzcz0ibG9vcExpbmUiIHkyPSIxNzI1IiB4Mj0iNTcyIiB5MT0iNDgzIiB4MT0iNTcyIj48L2xpbmU+PGxpbmUgc3R5bGU9InN0cm9rZS1kYXNoYXJyYXk6IDMsIDM7IiBjbGFzcz0ibG9vcExpbmUiIHkyPSIxMTkyIiB4Mj0iMjA1MCIgeTE9IjExOTIiIHgxPSI1NzIiPjwvbGluZT48bGluZSBzdHlsZT0ic3Ryb2tlLWRhc2hhcnJheTogMywgMzsiIGNsYXNzPSJsb29wTGluZSIgeTI9IjE0NjEiIHgyPSIyMDUwIiB5MT0iMTQ2MSIgeDE9IjU3MiI+PC9saW5lPjxwb2x5Z29uIGNsYXNzPSJsYWJlbEJveCIgcG9pbnRzPSI1NzIsNDgzIDYyMiw0ODMgNjIyLDQ5NiA2MTMuNiw1MDMgNTcyLDUwMyI+PC9wb2x5Z29uPjx0ZXh0IHN0eWxlPSJmb250LWZhbWlseTogJnF1b3Q7dHJlYnVjaGV0IG1zJnF1b3Q7LCB2ZXJkYW5hLCBhcmlhbCwgc2Fucy1zZXJpZjsgZm9udC1zaXplOiAxNnB4OyBmb250LXdlaWdodDogNDAwOyIgY2xhc3M9ImxhYmVsVGV4dCIgYWxpZ25tZW50LWJhc2VsaW5lPSJtaWRkbGUiIGRvbWluYW50LWJhc2VsaW5lPSJtaWRkbGUiIHRleHQtYW5jaG9yPSJtaWRkbGUiIHk9IjQ5NiIgeD0iNTk3Ij5jcml0aWNhbDwvdGV4dD48dGV4dCBzdHlsZT0iZm9udC1mYW1pbHk6ICZxdW90O3RyZWJ1Y2hldCBtcyZxdW90OywgdmVyZGFuYSwgYXJpYWwsIHNhbnMtc2VyaWY7IGZvbnQtc2l6ZTogMTZweDsgZm9udC13ZWlnaHQ6IDQwMDsiIGNsYXNzPSJsb29wVGV4dCIgdGV4dC1hbmNob3I9Im1pZGRsZSIgeT0iNTAxIiB4PSIxMzM2Ij48dHNwYW4geD0iMTMzNiI+W1N1YmZsb3cgZm9yIHtEYXRhc2V0SWZ9XTwvdHNwYW4+PC90ZXh0Pjx0ZXh0IHN0eWxlPSJmb250LWZhbWlseTogJnF1b3Q7dHJlYnVjaGV0IG1zJnF1b3Q7LCB2ZXJkYW5hLCBhcmlhbCwgc2Fucy1zZXJpZjsgZm9udC1zaXplOiAxNnB4OyBmb250LXdlaWdodDogNDAwOyIgY2xhc3M9Imxvb3BUZXh0IiB0ZXh0LWFuY2hvcj0ibWlkZGxlIiB5PSIxMjEwIiB4PSIxMzExIj5bRmFpbHVyZSBVc2VyIEVycm9yXTwvdGV4dD48dGV4dCBzdHlsZT0iZm9udC1mYW1pbHk6ICZxdW90O3RyZWJ1Y2hldCBtcyZxdW90OywgdmVyZGFuYSwgYXJpYWwsIHNhbnMtc2VyaWY7IGZvbnQtc2l6ZTogMTZweDsgZm9udC13ZWlnaHQ6IDQwMDsiIGNsYXNzPSJsb29wVGV4dCIgdGV4dC1hbmNob3I9Im1pZGRsZSIgeT0iMTQ3OSIgeD0iMTMxMSI+W0ZhaWx1cmUgU3lzdGVtIEVycm9yXTwvdGV4dD48L2c+PGc+PHJlY3QgY2xhc3M9ImFjdGl2YXRpb24wIiByeT0iMCIgcng9IjAiIGhlaWdodD0iOTAiIHdpZHRoPSIxMCIgc3Ryb2tlPSIjNjY2IiBmaWxsPSIjRURGMkFFIiB5PSIxNzcwIiB4PSIxMDI1Ij48L3JlY3Q+PC9nPjxnPjxyZWN0IGNsYXNzPSJub3RlIiByeT0iMCIgcng9IjAiIGhlaWdodD0iMzYiIHdpZHRoPSIzMzUiIHN0cm9rZT0iIzY2NiIgZmlsbD0iI0VERjJBRSIgeT0iMTgyNCIgeD0iMTY2NSI+PC9yZWN0Pjx0ZXh0IHN0eWxlPSJmb250LWZhbWlseTogJnF1b3Q7dHJlYnVjaGV0IG1zJnF1b3Q7LCB2ZXJkYW5hLCBhcmlhbCwgc2Fucy1zZXJpZjsgZm9udC1zaXplOiAxNHB4OyBmb250LXdlaWdodDogNDAwOyIgZHk9IjFlbSIgY2xhc3M9Im5vdGVUZXh0IiBhbGlnbm1lbnQtYmFzZWxpbmU9Im1pZGRsZSIgZG9taW5hbnQtYmFzZWxpbmU9Im1pZGRsZSIgdGV4dC1hbmNob3I9Im1pZGRsZSIgeT0iMTgyOSIgeD0iMTgzMyI+PHRzcGFuIHg9IjE4MzMiPnsiam9iU3RhdHVzTWVzc2FnZSI6ICJmaW5pc2hlZFdpdGhEYXRhc2V0RXJyb3JzIn08L3RzcGFuPjwvdGV4dD48L2c+PGc+PHJlY3QgY2xhc3M9ImFjdGl2YXRpb24wIiByeT0iMCIgcng9IjAiIGhlaWdodD0iOTAiIHdpZHRoPSIxMCIgc3Ryb2tlPSIjNjY2IiBmaWxsPSIjRURGMkFFIiB5PSIxOTA1IiB4PSIxMDI1Ij48L3JlY3Q+PC9nPjxnPjxyZWN0IGNsYXNzPSJub3RlIiByeT0iMCIgcng9IjAiIGhlaWdodD0iMzYiIHdpZHRoPSIzMDQiIHN0cm9rZT0iIzY2NiIgZmlsbD0iI0VERjJBRSIgeT0iMTk1OSIgeD0iMTY5NiI+PC9yZWN0Pjx0ZXh0IHN0eWxlPSJmb250LWZhbWlseTogJnF1b3Q7dHJlYnVjaGV0IG1zJnF1b3Q7LCB2ZXJkYW5hLCBhcmlhbCwgc2Fucy1zZXJpZjsgZm9udC1zaXplOiAxNHB4OyBmb250LXdlaWdodDogNDAwOyIgZHk9IjFlbSIgY2xhc3M9Im5vdGVUZXh0IiBhbGlnbm1lbnQtYmFzZWxpbmU9Im1pZGRsZSIgZG9taW5hbnQtYmFzZWxpbmU9Im1pZGRsZSIgdGV4dC1hbmNob3I9Im1pZGRsZSIgeT0iMTk2NCIgeD0iMTg0OCI+PHRzcGFuIHg9IjE4NDgiPnsiam9iU3RhdHVzTWVzc2FnZSI6ICJmaW5pc2hlZFVuc3VjY2Vzc2Z1bCJ9PC90c3Bhbj48L3RleHQ+PC9nPjxnPjxsaW5lIGNsYXNzPSJsb29wTGluZSIgeTI9IjQzOCIgeDI9IjIwNjAiIHkxPSI0MzgiIHgxPSI1NjIiPjwvbGluZT48bGluZSBjbGFzcz0ibG9vcExpbmUiIHkyPSIyMDA1IiB4Mj0iMjA2MCIgeTE9IjQzOCIgeDE9IjIwNjAiPjwvbGluZT48bGluZSBjbGFzcz0ibG9vcExpbmUiIHkyPSIyMDA1IiB4Mj0iMjA2MCIgeTE9IjIwMDUiIHgxPSI1NjIiPjwvbGluZT48bGluZSBjbGFzcz0ibG9vcExpbmUiIHkyPSIyMDA1IiB4Mj0iNTYyIiB5MT0iNDM4IiB4MT0iNTYyIj48L2xpbmU+PGxpbmUgc3R5bGU9InN0cm9rZS1kYXNoYXJyYXk6IDMsIDM7IiBjbGFzcz0ibG9vcExpbmUiIHkyPSIxNzQwIiB4Mj0iMjA2MCIgeTE9IjE3NDAiIHgxPSI1NjIiPjwvbGluZT48bGluZSBzdHlsZT0ic3Ryb2tlLWRhc2hhcnJheTogMywgMzsiIGNsYXNzPSJsb29wTGluZSIgeTI9IjE4NzUiIHgyPSIyMDYwIiB5MT0iMTg3NSIgeDE9IjU2MiI+PC9saW5lPjxwb2x5Z29uIGNsYXNzPSJsYWJlbEJveCIgcG9pbnRzPSI1NjIsNDM4IDYxMiw0MzggNjEyLDQ1MSA2MDMuNiw0NTggNTYyLDQ1OCI+PC9wb2x5Z29uPjx0ZXh0IHN0eWxlPSJmb250LWZhbWlseTogJnF1b3Q7dHJlYnVjaGV0IG1zJnF1b3Q7LCB2ZXJkYW5hLCBhcmlhbCwgc2Fucy1zZXJpZjsgZm9udC1zaXplOiAxNnB4OyBmb250LXdlaWdodDogNDAwOyIgY2xhc3M9ImxhYmVsVGV4dCIgYWxpZ25tZW50LWJhc2VsaW5lPSJtaWRkbGUiIGRvbWluYW50LWJhc2VsaW5lPSJtaWRkbGUiIHRleHQtYW5jaG9yPSJtaWRkbGUiIHk9IjQ1MSIgeD0iNTg3Ij5jcml0aWNhbDwvdGV4dD48dGV4dCBzdHlsZT0iZm9udC1mYW1pbHk6ICZxdW90O3RyZWJ1Y2hldCBtcyZxdW90OywgdmVyZGFuYSwgYXJpYWwsIHNhbnMtc2VyaWY7IGZvbnQtc2l6ZTogMTZweDsgZm9udC13ZWlnaHQ6IDQwMDsiIGNsYXNzPSJsb29wVGV4dCIgdGV4dC1hbmNob3I9Im1pZGRsZSIgeT0iNDU2IiB4PSIxMzM2Ij48dHNwYW4geD0iMTMzNiI+W0pvYiBmb3IgZGF0YXNldGxpc3RdPC90c3Bhbj48L3RleHQ+PHRleHQgc3R5bGU9ImZvbnQtZmFtaWx5OiAmcXVvdDt0cmVidWNoZXQgbXMmcXVvdDssIHZlcmRhbmEsIGFyaWFsLCBzYW5zLXNlcmlmOyBmb250LXNpemU6IDE2cHg7IGZvbnQtd2VpZ2h0OiA0MDA7IiBjbGFzcz0ibG9vcFRleHQiIHRleHQtYW5jaG9yPSJtaWRkbGUiIHk9IjE3NTgiIHg9IjEzMTEiPltGYWlsdXJlIFVzZXIgRXJyb3JdPC90ZXh0Pjx0ZXh0IHN0eWxlPSJmb250LWZhbWlseTogJnF1b3Q7dHJlYnVjaGV0IG1zJnF1b3Q7LCB2ZXJkYW5hLCBhcmlhbCwgc2Fucy1zZXJpZjsgZm9udC1zaXplOiAxNnB4OyBmb250LXdlaWdodDogNDAwOyIgY2xhc3M9Imxvb3BUZXh0IiB0ZXh0LWFuY2hvcj0ibWlkZGxlIiB5PSIxODkzIiB4PSIxMzExIj5bRmFpbHVyZSBTeXN0ZW0gRXJyb3JdPC90ZXh0PjwvZz48Zz48cmVjdCBjbGFzcz0ibm90ZSIgcnk9IjAiIHJ4PSIwIiBoZWlnaHQ9IjM2IiB3aWR0aD0iMTI4My41IiBzdHJva2U9IiM2NjYiIGZpbGw9IiNFREYyQUUiIHk9IjIwMTUiIHg9IjEwMDUiPjwvcmVjdD48dGV4dCBzdHlsZT0iZm9udC1mYW1pbHk6ICZxdW90O3RyZWJ1Y2hldCBtcyZxdW90OywgdmVyZGFuYSwgYXJpYWwsIHNhbnMtc2VyaWY7IGZvbnQtc2l6ZTogMTRweDsgZm9udC13ZWlnaHQ6IDQwMDsiIGR5PSIxZW0iIGNsYXNzPSJub3RlVGV4dCIgYWxpZ25tZW50LWJhc2VsaW5lPSJtaWRkbGUiIGRvbWluYW50LWJhc2VsaW5lPSJtaWRkbGUiIHRleHQtYW5jaG9yPSJtaWRkbGUiIHk9IjIwMjAiIHg9IjE2NDciPjx0c3BhbiB4PSIxNjQ3Ij5TdWJmbG93IGBNb3ZlIERhdGFibG9ja3MgdG8gTFRTYDwvdHNwYW4+PC90ZXh0PjwvZz48Zz48cmVjdCBjbGFzcz0iYWN0aXZhdGlvbjAiIHJ5PSIwIiByeD0iMCIgaGVpZ2h0PSI0NCIgd2lkdGg9IjEwIiBzdHJva2U9IiM2NjYiIGZpbGw9IiNFREYyQUUiIHk9IjIxNjQiIHg9IjEwMjUiPjwvcmVjdD48L2c+PGc+PHJlY3QgY2xhc3M9ImFjdGl2YXRpb24wIiByeT0iMCIgcng9IjAiIGhlaWdodD0iMTM0IiB3aWR0aD0iMTAiIHN0cm9rZT0iIzY2NiIgZmlsbD0iI0VERjJBRSIgeT0iMjI1MyIgeD0iMTAyNSI+PC9yZWN0PjwvZz48Zz48cmVjdCBjbGFzcz0ibm90ZSIgcnk9IjAiIHJ4PSIwIiBoZWlnaHQ9IjM2IiB3aWR0aD0iMTUwIiBzdHJva2U9IiM2NjYiIGZpbGw9IiNFREYyQUUiIHk9IjIzNTEiIHg9IjE4NTAiPjwvcmVjdD48dGV4dCBzdHlsZT0iZm9udC1mYW1pbHk6ICZxdW90O3RyZWJ1Y2hldCBtcyZxdW90OywgdmVyZGFuYSwgYXJpYWwsIHNhbnMtc2VyaWY7IGZvbnQtc2l6ZTogMTRweDsgZm9udC13ZWlnaHQ6IDQwMDsiIGR5PSIxZW0iIGNsYXNzPSJub3RlVGV4dCIgYWxpZ25tZW50LWJhc2VsaW5lPSJtaWRkbGUiIGRvbWluYW50LWJhc2VsaW5lPSJtaWRkbGUiIHRleHQtYW5jaG9yPSJtaWRkbGUiIHk9IjIzNTYiIHg9IjE5MjUiPjx0c3BhbiB4PSIxOTI1Ij4/PC90c3Bhbj48L3RleHQ+PC9nPjxnPjxsaW5lIGNsYXNzPSJsb29wTGluZSIgeTI9IjIxNDkiIHgyPSIyMjczLjUiIHkxPSIyMTQ5IiB4MT0iMTAxNSI+PC9saW5lPjxsaW5lIGNsYXNzPSJsb29wTGluZSIgeTI9IjIzOTciIHgyPSIyMjczLjUiIHkxPSIyMTQ5IiB4MT0iMjI3My41Ij48L2xpbmU+PGxpbmUgY2xhc3M9Imxvb3BMaW5lIiB5Mj0iMjM5NyIgeDI9IjIyNzMuNSIgeTE9IjIzOTciIHgxPSIxMDE1Ij48L2xpbmU+PGxpbmUgY2xhc3M9Imxvb3BMaW5lIiB5Mj0iMjM5NyIgeDI9IjEwMTUiIHkxPSIyMTQ5IiB4MT0iMTAxNSI+PC9saW5lPjxsaW5lIHN0eWxlPSJzdHJva2UtZGFzaGFycmF5OiAzLCAzOyIgY2xhc3M9Imxvb3BMaW5lIiB5Mj0iMjIyMyIgeDI9IjIyNzMuNSIgeTE9IjIyMjMiIHgxPSIxMDE1Ij48L2xpbmU+PHBvbHlnb24gY2xhc3M9ImxhYmVsQm94IiBwb2ludHM9IjEwMTUsMjE0OSAxMDY1LDIxNDkgMTA2NSwyMTYyIDEwNTYuNiwyMTY5IDEwMTUsMjE2OSI+PC9wb2x5Z29uPjx0ZXh0IHN0eWxlPSJmb250LWZhbWlseTogJnF1b3Q7dHJlYnVjaGV0IG1zJnF1b3Q7LCB2ZXJkYW5hLCBhcmlhbCwgc2Fucy1zZXJpZjsgZm9udC1zaXplOiAxNnB4OyBmb250LXdlaWdodDogNDAwOyIgY2xhc3M9ImxhYmVsVGV4dCIgYWxpZ25tZW50LWJhc2VsaW5lPSJtaWRkbGUiIGRvbWluYW50LWJhc2VsaW5lPSJtaWRkbGUiIHRleHQtYW5jaG9yPSJtaWRkbGUiIHk9IjIxNjIiIHg9IjEwNDAiPmNyaXRpY2FsPC90ZXh0Pjx0ZXh0IHN0eWxlPSJmb250LWZhbWlseTogJnF1b3Q7dHJlYnVjaGV0IG1zJnF1b3Q7LCB2ZXJkYW5hLCBhcmlhbCwgc2Fucy1zZXJpZjsgZm9udC1zaXplOiAxNnB4OyBmb250LXdlaWdodDogNDAwOyIgY2xhc3M9Imxvb3BUZXh0IiB0ZXh0LWFuY2hvcj0ibWlkZGxlIiB5PSIyMTY3IiB4PSIxNjY5LjI1Ij48dHNwYW4geD0iMTY2OS4yNSI+PC90c3Bhbj48L3RleHQ+PHRleHQgc3R5bGU9ImZvbnQtZmFtaWx5OiAmcXVvdDt0cmVidWNoZXQgbXMmcXVvdDssIHZlcmRhbmEsIGFyaWFsLCBzYW5zLXNlcmlmOyBmb250LXNpemU6IDE2cHg7IGZvbnQtd2VpZ2h0OiA0MDA7IiBjbGFzcz0ibG9vcFRleHQiIHRleHQtYW5jaG9yPSJtaWRkbGUiIHk9IjIyNDEiIHg9IjE2NDQuMjUiPltNb3ZlIHRvIExUUyBGYWlsdXJlXTwvdGV4dD48L2c+PGc+PHJlY3QgY2xhc3M9ImFjdGl2YXRpb24wIiByeT0iMCIgcng9IjAiIGhlaWdodD0iMTM0IiB3aWR0aD0iMTAiIHN0cm9rZT0iIzY2NiIgZmlsbD0iI0VERjJBRSIgeT0iMjU1NSIgeD0iMTAyNSI+PC9yZWN0PjwvZz48Zz48cmVjdCBjbGFzcz0ibm90ZSIgcnk9IjAiIHJ4PSIwIiBoZWlnaHQ9IjM2IiB3aWR0aD0iMTUwIiBzdHJva2U9IiM2NjYiIGZpbGw9IiNFREYyQUUiIHk9IjI2MDkiIHg9IjE4NTAiPjwvcmVjdD48dGV4dCBzdHlsZT0iZm9udC1mYW1pbHk6ICZxdW90O3RyZWJ1Y2hldCBtcyZxdW90OywgdmVyZGFuYSwgYXJpYWwsIHNhbnMtc2VyaWY7IGZvbnQtc2l6ZTogMTRweDsgZm9udC13ZWlnaHQ6IDQwMDsiIGR5PSIxZW0iIGNsYXNzPSJub3RlVGV4dCIgYWxpZ25tZW50LWJhc2VsaW5lPSJtaWRkbGUiIGRvbWluYW50LWJhc2VsaW5lPSJtaWRkbGUiIHRleHQtYW5jaG9yPSJtaWRkbGUiIHk9IjI2MTQiIHg9IjE5MjUiPjx0c3BhbiB4PSIxOTI1Ij4/PC90c3Bhbj48L3RleHQ+PC9nPjxnPjxsaW5lIGNsYXNzPSJsb29wTGluZSIgeTI9IjI0MDciIHgyPSIyMjczLjUiIHkxPSIyNDA3IiB4MT0iNTcyIj48L2xpbmU+PGxpbmUgY2xhc3M9Imxvb3BMaW5lIiB5Mj0iMjY5OSIgeDI9IjIyNzMuNSIgeTE9IjI0MDciIHgxPSIyMjczLjUiPjwvbGluZT48bGluZSBjbGFzcz0ibG9vcExpbmUiIHkyPSIyNjk5IiB4Mj0iMjI3My41IiB5MT0iMjY5OSIgeDE9IjU3MiI+PC9saW5lPjxsaW5lIGNsYXNzPSJsb29wTGluZSIgeTI9IjI2OTkiIHgyPSI1NzIiIHkxPSIyNDA3IiB4MT0iNTcyIj48L2xpbmU+PGxpbmUgc3R5bGU9InN0cm9rZS1kYXNoYXJyYXk6IDMsIDM7IiBjbGFzcz0ibG9vcExpbmUiIHkyPSIyNTI1IiB4Mj0iMjI3My41IiB5MT0iMjUyNSIgeDE9IjU3MiI+PC9saW5lPjxwb2x5Z29uIGNsYXNzPSJsYWJlbEJveCIgcG9pbnRzPSI1NzIsMjQwNyA2MjIsMjQwNyA2MjIsMjQyMCA2MTMuNiwyNDI3IDU3MiwyNDI3Ij48L3BvbHlnb24+PHRleHQgc3R5bGU9ImZvbnQtZmFtaWx5OiAmcXVvdDt0cmVidWNoZXQgbXMmcXVvdDssIHZlcmRhbmEsIGFyaWFsLCBzYW5zLXNlcmlmOyBmb250LXNpemU6IDE2cHg7IGZvbnQtd2VpZ2h0OiA0MDA7IiBjbGFzcz0ibGFiZWxUZXh0IiBhbGlnbm1lbnQtYmFzZWxpbmU9Im1pZGRsZSIgZG9taW5hbnQtYmFzZWxpbmU9Im1pZGRsZSIgdGV4dC1hbmNob3I9Im1pZGRsZSIgeT0iMjQyMCIgeD0iNTk3Ij5jcml0aWNhbDwvdGV4dD48dGV4dCBzdHlsZT0iZm9udC1mYW1pbHk6ICZxdW90O3RyZWJ1Y2hldCBtcyZxdW90OywgdmVyZGFuYSwgYXJpYWwsIHNhbnMtc2VyaWY7IGZvbnQtc2l6ZTogMTZweDsgZm9udC13ZWlnaHQ6IDQwMDsiIGNsYXNzPSJsb29wVGV4dCIgdGV4dC1hbmNob3I9Im1pZGRsZSIgeT0iMjQyNSIgeD0iMTQ0Ny43NSI+PHRzcGFuIHg9IjE0NDcuNzUiPjwvdHNwYW4+PC90ZXh0Pjx0ZXh0IHN0eWxlPSJmb250LWZhbWlseTogJnF1b3Q7dHJlYnVjaGV0IG1zJnF1b3Q7LCB2ZXJkYW5hLCBhcmlhbCwgc2Fucy1zZXJpZjsgZm9udC1zaXplOiAxNnB4OyBmb250LXdlaWdodDogNDAwOyIgY2xhc3M9Imxvb3BUZXh0IiB0ZXh0LWFuY2hvcj0ibWlkZGxlIiB5PSIyNTQzIiB4PSIxNDIyLjc1Ij5bVmFsaWRhdGlvbiBGYWlsdXJlXTwvdGV4dD48L2c+PGc+PHJlY3QgY2xhc3M9ImFjdGl2YXRpb24wIiByeT0iMCIgcng9IjAiIGhlaWdodD0iOTAiIHdpZHRoPSIxMCIgc3Ryb2tlPSIjNjY2IiBmaWxsPSIjRURGMkFFIiB5PSIyNzQ0IiB4PSIxMDI1Ij48L3JlY3Q+PC9nPjxnPjxyZWN0IGNsYXNzPSJub3RlIiByeT0iMCIgcng9IjAiIGhlaWdodD0iMzYiIHdpZHRoPSI3MDMiIHN0cm9rZT0iIzY2NiIgZmlsbD0iI0VERjJBRSIgeT0iMjc5OCIgeD0iMTI5NyI+PC9yZWN0Pjx0ZXh0IHN0eWxlPSJmb250LWZhbWlseTogJnF1b3Q7dHJlYnVjaGV0IG1zJnF1b3Q7LCB2ZXJkYW5hLCBhcmlhbCwgc2Fucy1zZXJpZjsgZm9udC1zaXplOiAxNHB4OyBmb250LXdlaWdodDogNDAwOyIgZHk9IjFlbSIgY2xhc3M9Im5vdGVUZXh0IiBhbGlnbm1lbnQtYmFzZWxpbmU9Im1pZGRsZSIgZG9taW5hbnQtYmFzZWxpbmU9Im1pZGRsZSIgdGV4dC1hbmNob3I9Im1pZGRsZSIgeT0iMjgwMyIgeD0iMTY0OSI+PHRzcGFuIHg9IjE2NDkiPnsiZGF0YXNldGxpZmVjeWNsZSI6IHsiYXJjaGl2YWJsZSI6IEZhbHNlLCAicmV0cmlldmFibGUiOiBUcnVlLCAiYXJjaGl2ZVN0YXR1c01lc3NhZ2UiOiAiZGF0YXNldE9uQXJjaGl2ZURpc2sifX08L3RzcGFuPjwvdGV4dD48L2c+PGc+PGxpbmUgY2xhc3M9Imxvb3BMaW5lIiB5Mj0iMjcwOSIgeDI9IjIwMzUiIHkxPSIyNzA5IiB4MT0iMTAxNSI+PC9saW5lPjxsaW5lIGNsYXNzPSJsb29wTGluZSIgeTI9IjI4NDQiIHgyPSIyMDM1IiB5MT0iMjcwOSIgeDE9IjIwMzUiPjwvbGluZT48bGluZSBjbGFzcz0ibG9vcExpbmUiIHkyPSIyODQ0IiB4Mj0iMjAzNSIgeTE9IjI4NDQiIHgxPSIxMDE1Ij48L2xpbmU+PGxpbmUgY2xhc3M9Imxvb3BMaW5lIiB5Mj0iMjg0NCIgeDI9IjEwMTUiIHkxPSIyNzA5IiB4MT0iMTAxNSI+PC9saW5lPjxwb2x5Z29uIGNsYXNzPSJsYWJlbEJveCIgcG9pbnRzPSIxMDE1LDI3MDkgMTA2NSwyNzA5IDEwNjUsMjcyMiAxMDU2LjYsMjcyOSAxMDE1LDI3MjkiPjwvcG9seWdvbj48dGV4dCBzdHlsZT0iZm9udC1mYW1pbHk6ICZxdW90O3RyZWJ1Y2hldCBtcyZxdW90OywgdmVyZGFuYSwgYXJpYWwsIHNhbnMtc2VyaWY7IGZvbnQtc2l6ZTogMTZweDsgZm9udC13ZWlnaHQ6IDQwMDsiIGNsYXNzPSJsYWJlbFRleHQiIGFsaWdubWVudC1iYXNlbGluZT0ibWlkZGxlIiBkb21pbmFudC1iYXNlbGluZT0ibWlkZGxlIiB0ZXh0LWFuY2hvcj0ibWlkZGxlIiB5PSIyNzIyIiB4PSIxMDQwIj5sb29wPC90ZXh0Pjx0ZXh0IHN0eWxlPSJmb250LWZhbWlseTogJnF1b3Q7dHJlYnVjaGV0IG1zJnF1b3Q7LCB2ZXJkYW5hLCBhcmlhbCwgc2Fucy1zZXJpZjsgZm9udC1zaXplOiAxNnB4OyBmb250LXdlaWdodDogNDAwOyIgY2xhc3M9Imxvb3BUZXh0IiB0ZXh0LWFuY2hvcj0ibWlkZGxlIiB5PSIyNzI3IiB4PSIxNTUwIj48dHNwYW4geD0iMTU1MCI+W1JldHJ5OiBFeHBvbmVudGlhbCBiYWNrb2ZmXTwvdHNwYW4+PC90ZXh0PjwvZz48Zz48cmVjdCBjbGFzcz0iYWN0aXZhdGlvbjAiIHJ5PSIwIiByeD0iMCIgaGVpZ2h0PSI5MCIgd2lkdGg9IjEwIiBzdHJva2U9IiM2NjYiIGZpbGw9IiNFREYyQUUiIHk9IjI4ODkiIHg9IjEwMjUiPjwvcmVjdD48L2c+PGc+PHJlY3QgY2xhc3M9Im5vdGUiIHJ5PSIwIiByeD0iMCIgaGVpZ2h0PSIzNiIgd2lkdGg9IjI4OCIgc3Ryb2tlPSIjNjY2IiBmaWxsPSIjRURGMkFFIiB5PSIyOTQzIiB4PSIxNzEyIj48L3JlY3Q+PHRleHQgc3R5bGU9ImZvbnQtZmFtaWx5OiAmcXVvdDt0cmVidWNoZXQgbXMmcXVvdDssIHZlcmRhbmEsIGFyaWFsLCBzYW5zLXNlcmlmOyBmb250LXNpemU6IDE0cHg7IGZvbnQtd2VpZ2h0OiA0MDA7IiBkeT0iMWVtIiBjbGFzcz0ibm90ZVRleHQiIGFsaWdubWVudC1iYXNlbGluZT0ibWlkZGxlIiBkb21pbmFudC1iYXNlbGluZT0ibWlkZGxlIiB0ZXh0LWFuY2hvcj0ibWlkZGxlIiB5PSIyOTQ4IiB4PSIxODU2Ij48dHNwYW4geD0iMTg1NiI+eyJqb2JTdGF0dXNNZXNzYWdlIjogImZpbmlzaGVkU3VjY2Vzc2Z1bCJ9PC90c3Bhbj48L3RleHQ+PC9nPjxnPjxsaW5lIGNsYXNzPSJsb29wTGluZSIgeTI9IjI4NTQiIHgyPSIyMDM1IiB5MT0iMjg1NCIgeDE9IjEwMTUiPjwvbGluZT48bGluZSBjbGFzcz0ibG9vcExpbmUiIHkyPSIyOTg5IiB4Mj0iMjAzNSIgeTE9IjI4NTQiIHgxPSIyMDM1Ij48L2xpbmU+PGxpbmUgY2xhc3M9Imxvb3BMaW5lIiB5Mj0iMjk4OSIgeDI9IjIwMzUiIHkxPSIyOTg5IiB4MT0iMTAxNSI+PC9saW5lPjxsaW5lIGNsYXNzPSJsb29wTGluZSIgeTI9IjI5ODkiIHgyPSIxMDE1IiB5MT0iMjg1NCIgeDE9IjEwMTUiPjwvbGluZT48cG9seWdvbiBjbGFzcz0ibGFiZWxCb3giIHBvaW50cz0iMTAxNSwyODU0IDEwNjUsMjg1NCAxMDY1LDI4NjcgMTA1Ni42LDI4NzQgMTAxNSwyODc0Ij48L3BvbHlnb24+PHRleHQgc3R5bGU9ImZvbnQtZmFtaWx5OiAmcXVvdDt0cmVidWNoZXQgbXMmcXVvdDssIHZlcmRhbmEsIGFyaWFsLCBzYW5zLXNlcmlmOyBmb250LXNpemU6IDE2cHg7IGZvbnQtd2VpZ2h0OiA0MDA7IiBjbGFzcz0ibGFiZWxUZXh0IiBhbGlnbm1lbnQtYmFzZWxpbmU9Im1pZGRsZSIgZG9taW5hbnQtYmFzZWxpbmU9Im1pZGRsZSIgdGV4dC1hbmNob3I9Im1pZGRsZSIgeT0iMjg2NyIgeD0iMTA0MCI+bG9vcDwvdGV4dD48dGV4dCBzdHlsZT0iZm9udC1mYW1pbHk6ICZxdW90O3RyZWJ1Y2hldCBtcyZxdW90OywgdmVyZGFuYSwgYXJpYWwsIHNhbnMtc2VyaWY7IGZvbnQtc2l6ZTogMTZweDsgZm9udC13ZWlnaHQ6IDQwMDsiIGNsYXNzPSJsb29wVGV4dCIgdGV4dC1hbmNob3I9Im1pZGRsZSIgeT0iMjg3MiIgeD0iMTU1MCI+PHRzcGFuIHg9IjE1NTAiPltSZXRyeTogRXhwb25lbnRpYWwgYmFja29mZl08L3RzcGFuPjwvdGV4dD48L2c+PHRleHQgc3R5bGU9ImZvbnQtZmFtaWx5OiAmcXVvdDt0cmVidWNoZXQgbXMmcXVvdDssIHZlcmRhbmEsIGFyaWFsLCBzYW5zLXNlcmlmOyBmb250LXNpemU6IDE2cHg7IGZvbnQtd2VpZ2h0OiA0MDA7IiBkeT0iMWVtIiBjbGFzcz0ibWVzc2FnZVRleHQiIGFsaWdubWVudC1iYXNlbGluZT0ibWlkZGxlIiBkb21pbmFudC1iYXNlbGluZT0ibWlkZGxlIiB0ZXh0LWFuY2hvcj0ibWlkZGxlIiB5PSI4MCIgeD0iMTA1MCI+QXJjaGl2ZTogUE9TVCAvYXBpL3YxL2pvYnM8L3RleHQ+PGxpbmUgc3R5bGU9InN0cm9rZS1kYXNoYXJyYXk6IDMsIDM7IGZpbGw6IG5vbmU7IiBtYXJrZXItc3RhcnQ9InVybCgjc2VxdWVuY2VudW1iZXIpIiBtYXJrZXItZW5kPSJ1cmwoI2ZpbGxlZC1oZWFkKSIgc3Ryb2tlPSJub25lIiBzdHJva2Utd2lkdGg9IjIiIGNsYXNzPSJtZXNzYWdlTGluZTEiIHkyPSIxMDkiIHgyPSI3NSIgeTE9IjEwOSIgeDE9IjIwMjUiPjwvbGluZT48dGV4dCBjbGFzcz0ic2VxdWVuY2VOdW1iZXIiIHRleHQtYW5jaG9yPSJtaWRkbGUiIGZvbnQtc2l6ZT0iMTJweCIgZm9udC1mYW1pbHk9InNhbnMtc2VyaWYiIHk9IjExMyIgeD0iMjAyNSI+MTwvdGV4dD48dGV4dCBzdHlsZT0iZm9udC1mYW1pbHk6ICZxdW90O3RyZWJ1Y2hldCBtcyZxdW90OywgdmVyZGFuYSwgYXJpYWwsIHNhbnMtc2VyaWY7IGZvbnQtc2l6ZTogMTZweDsgZm9udC13ZWlnaHQ6IDQwMDsiIGR5PSIxZW0iIGNsYXNzPSJtZXNzYWdlVGV4dCIgYWxpZ25tZW50LWJhc2VsaW5lPSJtaWRkbGUiIGRvbWluYW50LWJhc2VsaW5lPSJtaWRkbGUiIHRleHQtYW5jaG9yPSJtaWRkbGUiIHk9IjE3MCIgeD0iNTU1Ij5DcmVhdGUgQXJjaGl2YWwgRmxvdyBmb3IgQWxsIERhdGFzZXQ8L3RleHQ+PGxpbmUgc3R5bGU9InN0cm9rZS1kYXNoYXJyYXk6IDMsIDM7IGZpbGw6IG5vbmU7IiBtYXJrZXItc3RhcnQ9InVybCgjc2VxdWVuY2VudW1iZXIpIiBtYXJrZXItZW5kPSJ1cmwoI2ZpbGxlZC1oZWFkKSIgc3Ryb2tlPSJub25lIiBzdHJva2Utd2lkdGg9IjIiIGNsYXNzPSJtZXNzYWdlTGluZTEiIHkyPSIxOTkiIHgyPSIxMDMwIiB5MT0iMTk5IiB4MT0iODAiPjwvbGluZT48dGV4dCBjbGFzcz0ic2VxdWVuY2VOdW1iZXIiIHRleHQtYW5jaG9yPSJtaWRkbGUiIGZvbnQtc2l6ZT0iMTJweCIgZm9udC1mYW1pbHk9InNhbnMtc2VyaWYiIHk9IjIwMyIgeD0iODAiPjI8L3RleHQ+PHRleHQgc3R5bGU9ImZvbnQtZmFtaWx5OiAmcXVvdDt0cmVidWNoZXQgbXMmcXVvdDssIHZlcmRhbmEsIGFyaWFsLCBzYW5zLXNlcmlmOyBmb250LXNpemU6IDE2cHg7IGZvbnQtd2VpZ2h0OiA0MDA7IiBkeT0iMWVtIiBjbGFzcz0ibWVzc2FnZVRleHQiIGFsaWdubWVudC1iYXNlbGluZT0ibWlkZGxlIiBkb21pbmFudC1iYXNlbGluZT0ibWlkZGxlIiB0ZXh0LWFuY2hvcj0ibWlkZGxlIiB5PSIyMTQiIHg9IjEwNTAiPjwvdGV4dD48bGluZSBzdHlsZT0ic3Ryb2tlLWRhc2hhcnJheTogMywgMzsgZmlsbDogbm9uZTsiIG1hcmtlci1zdGFydD0idXJsKCNzZXF1ZW5jZW51bWJlcikiIG1hcmtlci1lbmQ9InVybCgjYXJyb3doZWFkKSIgc3Ryb2tlPSJub25lIiBzdHJva2Utd2lkdGg9IjIiIGNsYXNzPSJtZXNzYWdlTGluZTEiIHkyPSIyMDkiIHgyPSIyMDIwIiB5MT0iMjA5IiB4MT0iODAiPjwvbGluZT48dGV4dCBjbGFzcz0ic2VxdWVuY2VOdW1iZXIiIHRleHQtYW5jaG9yPSJtaWRkbGUiIGZvbnQtc2l6ZT0iMTJweCIgZm9udC1mYW1pbHk9InNhbnMtc2VyaWYiIHk9IjIxMyIgeD0iODAiPjM8L3RleHQ+PHRleHQgc3R5bGU9ImZvbnQtZmFtaWx5OiAmcXVvdDt0cmVidWNoZXQgbXMmcXVvdDssIHZlcmRhbmEsIGFyaWFsLCBzYW5zLXNlcmlmOyBmb250LXNpemU6IDE2cHg7IGZvbnQtd2VpZ2h0OiA0MDA7IiBkeT0iMWVtIiBjbGFzcz0ibWVzc2FnZVRleHQiIGFsaWdubWVudC1iYXNlbGluZT0ibWlkZGxlIiBkb21pbmFudC1iYXNlbGluZT0ibWlkZGxlIiB0ZXh0LWFuY2hvcj0ibWlkZGxlIiB5PSIyMjQiIHg9IjIwMzAiPlJlcGx5PyBzY2hlZHVsZUZvckFyY2hpdmluZyBzdGF0dXM/IEFscmVhZHkgc2V0PzwvdGV4dD48cGF0aCBzdHlsZT0ic3Ryb2tlLWRhc2hhcnJheTogMywgMzsgZmlsbDogbm9uZTsiIG1hcmtlci1zdGFydD0idXJsKCNzZXF1ZW5jZW51bWJlcikiIG1hcmtlci1lbmQ9InVybCgjYXJyb3doZWFkKSIgc3Ryb2tlPSJub25lIiBzdHJva2Utd2lkdGg9IjIiIGNsYXNzPSJtZXNzYWdlTGluZTEiIGQ9Ik0gMjAzMCwyNTMgQyAyMDkwLDI0MyAyMDkwLDI4MyAyMDMwLDI3MyI+PC9wYXRoPjx0ZXh0IGNsYXNzPSJzZXF1ZW5jZU51bWJlciIgdGV4dC1hbmNob3I9Im1pZGRsZSIgZm9udC1zaXplPSIxMnB4IiBmb250LWZhbWlseT0ic2Fucy1zZXJpZiIgeT0iMjU3IiB4PSIyMDMwIj40PC90ZXh0Pjx0ZXh0IHN0eWxlPSJmb250LWZhbWlseTogJnF1b3Q7dHJlYnVjaGV0IG1zJnF1b3Q7LCB2ZXJkYW5hLCBhcmlhbCwgc2Fucy1zZXJpZjsgZm9udC1zaXplOiAxNnB4OyBmb250LXdlaWdodDogNDAwOyIgZHk9IjFlbSIgY2xhc3M9Im1lc3NhZ2VUZXh0IiBhbGlnbm1lbnQtYmFzZWxpbmU9Im1pZGRsZSIgZG9taW5hbnQtYmFzZWxpbmU9Im1pZGRsZSIgdGV4dC1hbmNob3I9Im1pZGRsZSIgeT0iMzQzIiB4PSIxNTI4Ij5QQVRDSCAvYXBpL3Y0L0pvYnMve0pvYklkfTwvdGV4dD48bGluZSBzdHlsZT0ic3Ryb2tlLWRhc2hhcnJheTogMywgMzsgZmlsbDogbm9uZTsiIG1hcmtlci1zdGFydD0idXJsKCNzZXF1ZW5jZW51bWJlcikiIG1hcmtlci1lbmQ9InVybCgjZmlsbGVkLWhlYWQpIiBzdHJva2U9Im5vbmUiIHN0cm9rZS13aWR0aD0iMiIgY2xhc3M9Im1lc3NhZ2VMaW5lMSIgeTI9IjM3MiIgeDI9IjIwMjAiIHkxPSIzNzIiIHgxPSIxMDM1Ij48L2xpbmU+PHRleHQgY2xhc3M9InNlcXVlbmNlTnVtYmVyIiB0ZXh0LWFuY2hvcj0ibWlkZGxlIiBmb250LXNpemU9IjEycHgiIGZvbnQtZmFtaWx5PSJzYW5zLXNlcmlmIiB5PSIzNzYiIHg9IjEwMzUiPjU8L3RleHQ+PHRleHQgc3R5bGU9ImZvbnQtZmFtaWx5OiAmcXVvdDt0cmVidWNoZXQgbXMmcXVvdDssIHZlcmRhbmEsIGFyaWFsLCBzYW5zLXNlcmlmOyBmb250LXNpemU6IDE2cHg7IGZvbnQtd2VpZ2h0OiA0MDA7IiBkeT0iMWVtIiBjbGFzcz0ibWVzc2FnZVRleHQiIGFsaWdubWVudC1iYXNlbGluZT0ibWlkZGxlIiBkb21pbmFudC1iYXNlbGluZT0ibWlkZGxlIiB0ZXh0LWFuY2hvcj0ibWlkZGxlIiB5PSI1NzgiIHg9IjE1MzAiPlBBVENIIC9hcGkvdjQvRGF0YXNldC97RGF0YXNldElkfTwvdGV4dD48bGluZSBzdHlsZT0ic3Ryb2tlLWRhc2hhcnJheTogMywgMzsgZmlsbDogbm9uZTsiIG1hcmtlci1zdGFydD0idXJsKCNzZXF1ZW5jZW51bWJlcikiIG1hcmtlci1lbmQ9InVybCgjZmlsbGVkLWhlYWQpIiBzdHJva2U9Im5vbmUiIHN0cm9rZS13aWR0aD0iMiIgY2xhc3M9Im1lc3NhZ2VMaW5lMSIgeTI9IjYwNyIgeDI9IjIwMjAiIHkxPSI2MDciIHgxPSIxMDQwIj48L2xpbmU+PHRleHQgY2xhc3M9InNlcXVlbmNlTnVtYmVyIiB0ZXh0LWFuY2hvcj0ibWlkZGxlIiBmb250LXNpemU9IjEycHgiIGZvbnQtZmFtaWx5PSJzYW5zLXNlcmlmIiB5PSI2MTEiIHg9IjEwNDAiPjY8L3RleHQ+PHRleHQgc3R5bGU9ImZvbnQtZmFtaWx5OiAmcXVvdDt0cmVidWNoZXQgbXMmcXVvdDssIHZlcmRhbmEsIGFyaWFsLCBzYW5zLXNlcmlmOyBmb250LXNpemU6IDE2cHg7IGZvbnQtd2VpZ2h0OiA0MDA7IiBkeT0iMWVtIiBjbGFzcz0ibWVzc2FnZVRleHQiIGFsaWdubWVudC1iYXNlbGluZT0ibWlkZGxlIiBkb21pbmFudC1iYXNlbGluZT0ibWlkZGxlIiB0ZXh0LWFuY2hvcj0ibWlkZGxlIiB5PSI3MjMiIHg9IjE1MzAiPkdFVCAvYXBpL3Y0L0RhdGFzZXRzL3tkYXRhc2V0X2lkfS9vcmlnZGF0YWJsb2NrczwvdGV4dD48bGluZSBzdHlsZT0ic3Ryb2tlLWRhc2hhcnJheTogMywgMzsgZmlsbDogbm9uZTsiIG1hcmtlci1zdGFydD0idXJsKCNzZXF1ZW5jZW51bWJlcikiIHN0cm9rZT0ibm9uZSIgc3Ryb2tlLXdpZHRoPSIyIiBjbGFzcz0ibWVzc2FnZUxpbmUxIiB5Mj0iNzU0IiB4Mj0iMjAyMCIgeTE9Ijc1NCIgeDE9IjEwNDAiPjwvbGluZT48dGV4dCBjbGFzcz0ic2VxdWVuY2VOdW1iZXIiIHRleHQtYW5jaG9yPSJtaWRkbGUiIGZvbnQtc2l6ZT0iMTJweCIgZm9udC1mYW1pbHk9InNhbnMtc2VyaWYiIHk9Ijc1OCIgeD0iMTA0MCI+NzwvdGV4dD48dGV4dCBzdHlsZT0iZm9udC1mYW1pbHk6ICZxdW90O3RyZWJ1Y2hldCBtcyZxdW90OywgdmVyZGFuYSwgYXJpYWwsIHNhbnMtc2VyaWY7IGZvbnQtc2l6ZTogMTZweDsgZm9udC13ZWlnaHQ6IDQwMDsiIGR5PSIxZW0iIGNsYXNzPSJtZXNzYWdlVGV4dCIgYWxpZ25tZW50LWJhc2VsaW5lPSJtaWRkbGUiIGRvbWluYW50LWJhc2VsaW5lPSJtaWRkbGUiIHRleHQtYW5jaG9yPSJtaWRkbGUiIHk9Ijc2OSIgeD0iMTUzMCI+c2RmPC90ZXh0PjxsaW5lIHN0eWxlPSJzdHJva2UtZGFzaGFycmF5OiAzLCAzOyBmaWxsOiBub25lOyIgbWFya2VyLXN0YXJ0PSJ1cmwoI3NlcXVlbmNlbnVtYmVyKSIgbWFya2VyLWVuZD0idXJsKCNmaWxsZWQtaGVhZCkiIHN0cm9rZT0ibm9uZSIgc3Ryb2tlLXdpZHRoPSIyIiBjbGFzcz0ibWVzc2FnZUxpbmUxIiB5Mj0iNzk4IiB4Mj0iMTA0MCIgeTE9Ijc5OCIgeDE9IjIwMjAiPjwvbGluZT48dGV4dCBjbGFzcz0ic2VxdWVuY2VOdW1iZXIiIHRleHQtYW5jaG9yPSJtaWRkbGUiIGZvbnQtc2l6ZT0iMTJweCIgZm9udC1mYW1pbHk9InNhbnMtc2VyaWYiIHk9IjgwMiIgeD0iMjAyMCI+ODwvdGV4dD48dGV4dCBzdHlsZT0iZm9udC1mYW1pbHk6ICZxdW90O3RyZWJ1Y2hldCBtcyZxdW90OywgdmVyZGFuYSwgYXJpYWwsIHNhbnMtc2VyaWY7IGZvbnQtc2l6ZTogMTZweDsgZm9udC13ZWlnaHQ6IDQwMDsiIGR5PSIxZW0iIGNsYXNzPSJtZXNzYWdlVGV4dCIgYWxpZ25tZW50LWJhc2VsaW5lPSJtaWRkbGUiIGRvbWluYW50LWJhc2VsaW5lPSJtaWRkbGUiIHRleHQtYW5jaG9yPSJtaWRkbGUiIHk9Ijg2OSIgeD0iODA0Ij5DcmVhdGUgRGF0YWJsb2NrczwvdGV4dD48bGluZSBzdHlsZT0ic3Ryb2tlLWRhc2hhcnJheTogMywgMzsgZmlsbDogbm9uZTsiIG1hcmtlci1zdGFydD0idXJsKCNzZXF1ZW5jZW51bWJlcikiIG1hcmtlci1lbmQ9InVybCgjYXJyb3doZWFkKSIgc3Ryb2tlPSJub25lIiBzdHJva2Utd2lkdGg9IjIiIGNsYXNzPSJtZXNzYWdlTGluZTEiIHkyPSI4OTgiIHgyPSI1ODIiIHkxPSI4OTgiIHgxPSIxMDI1Ij48L2xpbmU+PHRleHQgY2xhc3M9InNlcXVlbmNlTnVtYmVyIiB0ZXh0LWFuY2hvcj0ibWlkZGxlIiBmb250LXNpemU9IjEycHgiIGZvbnQtZmFtaWx5PSJzYW5zLXNlcmlmIiB5PSI5MDIiIHg9IjEwMjUiPjk8L3RleHQ+PHRleHQgc3R5bGU9ImZvbnQtZmFtaWx5OiAmcXVvdDt0cmVidWNoZXQgbXMmcXVvdDssIHZlcmRhbmEsIGFyaWFsLCBzYW5zLXNlcmlmOyBmb250LXNpemU6IDE2cHg7IGZvbnQtd2VpZ2h0OiA0MDA7IiBkeT0iMWVtIiBjbGFzcz0ibWVzc2FnZVRleHQiIGFsaWdubWVudC1iYXNlbGluZT0ibWlkZGxlIiBkb21pbmFudC1iYXNlbGluZT0ibWlkZGxlIiB0ZXh0LWFuY2hvcj0ibWlkZGxlIiB5PSI5MTMiIHg9IjkxMyI+TW92ZSBEYXRhYmxvY2tzIHRvIFN0YWdpbmc8L3RleHQ+PGxpbmUgc3R5bGU9InN0cm9rZS1kYXNoYXJyYXk6IDMsIDM7IGZpbGw6IG5vbmU7IiBtYXJrZXItc3RhcnQ9InVybCgjc2VxdWVuY2VudW1iZXIpIiBtYXJrZXItZW5kPSJ1cmwoI2Fycm93aGVhZCkiIHN0cm9rZT0ibm9uZSIgc3Ryb2tlLXdpZHRoPSIyIiBjbGFzcz0ibWVzc2FnZUxpbmUxIiB5Mj0iOTQyIiB4Mj0iMTI0MyIgeTE9Ijk0MiIgeDE9IjU4MiI+PC9saW5lPjx0ZXh0IGNsYXNzPSJzZXF1ZW5jZU51bWJlciIgdGV4dC1hbmNob3I9Im1pZGRsZSIgZm9udC1zaXplPSIxMnB4IiBmb250LWZhbWlseT0ic2Fucy1zZXJpZiIgeT0iOTQ2IiB4PSI1ODIiPjEwPC90ZXh0Pjx0ZXh0IHN0eWxlPSJmb250LWZhbWlseTogJnF1b3Q7dHJlYnVjaGV0IG1zJnF1b3Q7LCB2ZXJkYW5hLCBhcmlhbCwgc2Fucy1zZXJpZjsgZm9udC1zaXplOiAxNnB4OyBmb250LXdlaWdodDogNDAwOyIgZHk9IjFlbSIgY2xhc3M9Im1lc3NhZ2VUZXh0IiBhbGlnbm1lbnQtYmFzZWxpbmU9Im1pZGRsZSIgZG9taW5hbnQtYmFzZWxpbmU9Im1pZGRsZSIgdGV4dC1hbmNob3I9Im1pZGRsZSIgeT0iMTAwMiIgeD0iMTUzMyI+UmVnaXN0ZXIgZGF0YWJsb2NrcyBQT1NUIC9hcGkvdjQvRGF0YXNldHMve0RhdGFzZXRJRH08L3RleHQ+PGxpbmUgc3R5bGU9InN0cm9rZS1kYXNoYXJyYXk6IDMsIDM7IGZpbGw6IG5vbmU7IiBtYXJrZXItc3RhcnQ9InVybCgjc2VxdWVuY2VudW1iZXIpIiBtYXJrZXItZW5kPSJ1cmwoI2Fycm93aGVhZCkiIHN0cm9rZT0ibm9uZSIgc3Ryb2tlLXdpZHRoPSIyIiBjbGFzcz0ibWVzc2FnZUxpbmUxIiB5Mj0iMTAzMSIgeDI9IjIwMjUiIHkxPSIxMDMxIiB4MT0iMTA0MCI+PC9saW5lPjx0ZXh0IGNsYXNzPSJzZXF1ZW5jZU51bWJlciIgdGV4dC1hbmNob3I9Im1pZGRsZSIgZm9udC1zaXplPSIxMnB4IiBmb250LWZhbWlseT0ic2Fucy1zZXJpZiIgeT0iMTAzNSIgeD0iMTA0MCI+MTE8L3RleHQ+PHRleHQgc3R5bGU9ImZvbnQtZmFtaWx5OiAmcXVvdDt0cmVidWNoZXQgbXMmcXVvdDssIHZlcmRhbmEsIGFyaWFsLCBzYW5zLXNlcmlmOyBmb250LXNpemU6IDE2cHg7IGZvbnQtd2VpZ2h0OiA0MDA7IiBkeT0iMWVtIiBjbGFzcz0ibWVzc2FnZVRleHQiIGFsaWdubWVudC1iYXNlbGluZT0ibWlkZGxlIiBkb21pbmFudC1iYXNlbGluZT0ibWlkZGxlIiB0ZXh0LWFuY2hvcj0ibWlkZGxlIiB5PSIxMTAyIiB4PSI4MDQiPkNsZWFudXAgRGF0YXNldCBmaWxlcywgRGF0YWJsb2NrczwvdGV4dD48bGluZSBzdHlsZT0ic3Ryb2tlLWRhc2hhcnJheTogMywgMzsgZmlsbDogbm9uZTsiIG1hcmtlci1zdGFydD0idXJsKCNzZXF1ZW5jZW51bWJlcikiIG1hcmtlci1lbmQ9InVybCgjYXJyb3doZWFkKSIgc3Ryb2tlPSJub25lIiBzdHJva2Utd2lkdGg9IjIiIGNsYXNzPSJtZXNzYWdlTGluZTEiIHkyPSIxMTMxIiB4Mj0iNTgyIiB5MT0iMTEzMSIgeDE9IjEwMjUiPjwvbGluZT48dGV4dCBjbGFzcz0ic2VxdWVuY2VOdW1iZXIiIHRleHQtYW5jaG9yPSJtaWRkbGUiIGZvbnQtc2l6ZT0iMTJweCIgZm9udC1mYW1pbHk9InNhbnMtc2VyaWYiIHk9IjExMzUiIHg9IjEwMjUiPjEyPC90ZXh0Pjx0ZXh0IHN0eWxlPSJmb250LWZhbWlseTogJnF1b3Q7dHJlYnVjaGV0IG1zJnF1b3Q7LCB2ZXJkYW5hLCBhcmlhbCwgc2Fucy1zZXJpZjsgZm9udC1zaXplOiAxNnB4OyBmb250LXdlaWdodDogNDAwOyIgZHk9IjFlbSIgY2xhc3M9Im1lc3NhZ2VUZXh0IiBhbGlnbm1lbnQtYmFzZWxpbmU9Im1pZGRsZSIgZG9taW5hbnQtYmFzZWxpbmU9Im1pZGRsZSIgdGV4dC1hbmNob3I9Im1pZGRsZSIgeT0iMTIzNyIgeD0iMTUzMCI+UmVwb3J0IEVycm9yOiBQQVRDSCAvYXBpL3Y0L0RhdGFzZXQve0RhdGFzZXRJZH08L3RleHQ+PGxpbmUgc3R5bGU9InN0cm9rZS1kYXNoYXJyYXk6IDMsIDM7IGZpbGw6IG5vbmU7IiBtYXJrZXItc3RhcnQ9InVybCgjc2VxdWVuY2VudW1iZXIpIiBtYXJrZXItZW5kPSJ1cmwoI2ZpbGxlZC1oZWFkKSIgc3Ryb2tlPSJub25lIiBzdHJva2Utd2lkdGg9IjIiIGNsYXNzPSJtZXNzYWdlTGluZTEiIHkyPSIxMjY2IiB4Mj0iMjAyNSIgeTE9IjEyNjYiIHgxPSIxMDM1Ij48L2xpbmU+PHRleHQgY2xhc3M9InNlcXVlbmNlTnVtYmVyIiB0ZXh0LWFuY2hvcj0ibWlkZGxlIiBmb250LXNpemU9IjEycHgiIGZvbnQtZmFtaWx5PSJzYW5zLXNlcmlmIiB5PSIxMjcwIiB4PSIxMDM1Ij4xMzwvdGV4dD48dGV4dCBzdHlsZT0iZm9udC1mYW1pbHk6ICZxdW90O3RyZWJ1Y2hldCBtcyZxdW90OywgdmVyZGFuYSwgYXJpYWwsIHNhbnMtc2VyaWY7IGZvbnQtc2l6ZTogMTZweDsgZm9udC13ZWlnaHQ6IDQwMDsiIGR5PSIxZW0iIGNsYXNzPSJtZXNzYWdlVGV4dCIgYWxpZ25tZW50LWJhc2VsaW5lPSJtaWRkbGUiIGRvbWluYW50LWJhc2VsaW5lPSJtaWRkbGUiIHRleHQtYW5jaG9yPSJtaWRkbGUiIHk9IjEzMjciIHg9IjExMzkiPkNsZWFudXAgRGF0YWJsb2NrczwvdGV4dD48bGluZSBzdHlsZT0ic3Ryb2tlLWRhc2hhcnJheTogMywgMzsgZmlsbDogbm9uZTsiIG1hcmtlci1zdGFydD0idXJsKCNzZXF1ZW5jZW51bWJlcikiIG1hcmtlci1lbmQ9InVybCgjYXJyb3doZWFkKSIgc3Ryb2tlPSJub25lIiBzdHJva2Utd2lkdGg9IjIiIGNsYXNzPSJtZXNzYWdlTGluZTEiIHkyPSIxMzU2IiB4Mj0iMTI0MyIgeTE9IjEzNTYiIHgxPSIxMDM1Ij48L2xpbmU+PHRleHQgY2xhc3M9InNlcXVlbmNlTnVtYmVyIiB0ZXh0LWFuY2hvcj0ibWlkZGxlIiBmb250LXNpemU9IjEycHgiIGZvbnQtZmFtaWx5PSJzYW5zLXNlcmlmIiB5PSIxMzYwIiB4PSIxMDM1Ij4xNDwvdGV4dD48dGV4dCBzdHlsZT0iZm9udC1mYW1pbHk6ICZxdW90O3RyZWJ1Y2hldCBtcyZxdW90OywgdmVyZGFuYSwgYXJpYWwsIHNhbnMtc2VyaWY7IGZvbnQtc2l6ZTogMTZweDsgZm9udC13ZWlnaHQ6IDQwMDsiIGR5PSIxZW0iIGNsYXNzPSJtZXNzYWdlVGV4dCIgYWxpZ25tZW50LWJhc2VsaW5lPSJtaWRkbGUiIGRvbWluYW50LWJhc2VsaW5lPSJtaWRkbGUiIHRleHQtYW5jaG9yPSJtaWRkbGUiIHk9IjEzNzEiIHg9IjgwNCI+Q2xlYW51cCBEYXRhYmxvY2tzPC90ZXh0PjxsaW5lIHN0eWxlPSJzdHJva2UtZGFzaGFycmF5OiAzLCAzOyBmaWxsOiBub25lOyIgbWFya2VyLXN0YXJ0PSJ1cmwoI3NlcXVlbmNlbnVtYmVyKSIgbWFya2VyLWVuZD0idXJsKCNhcnJvd2hlYWQpIiBzdHJva2U9Im5vbmUiIHN0cm9rZS13aWR0aD0iMiIgY2xhc3M9Im1lc3NhZ2VMaW5lMSIgeTI9IjE0MDAiIHgyPSI1ODIiIHkxPSIxNDAwIiB4MT0iMTAyNSI+PC9saW5lPjx0ZXh0IGNsYXNzPSJzZXF1ZW5jZU51bWJlciIgdGV4dC1hbmNob3I9Im1pZGRsZSIgZm9udC1zaXplPSIxMnB4IiBmb250LWZhbWlseT0ic2Fucy1zZXJpZiIgeT0iMTQwNCIgeD0iMTAyNSI+MTU8L3RleHQ+PHRleHQgc3R5bGU9ImZvbnQtZmFtaWx5OiAmcXVvdDt0cmVidWNoZXQgbXMmcXVvdDssIHZlcmRhbmEsIGFyaWFsLCBzYW5zLXNlcmlmOyBmb250LXNpemU6IDE2cHg7IGZvbnQtd2VpZ2h0OiA0MDA7IiBkeT0iMWVtIiBjbGFzcz0ibWVzc2FnZVRleHQiIGFsaWdubWVudC1iYXNlbGluZT0ibWlkZGxlIiBkb21pbmFudC1iYXNlbGluZT0ibWlkZGxlIiB0ZXh0LWFuY2hvcj0ibWlkZGxlIiB5PSIxNTA2IiB4PSIxNTMwIj5SZXBvcnQgRXJyb3I6IFBBVENIIC9hcGkvdjQvRGF0YXNldC97RGF0YXNldElkfTwvdGV4dD48bGluZSBzdHlsZT0ic3Ryb2tlLWRhc2hhcnJheTogMywgMzsgZmlsbDogbm9uZTsiIG1hcmtlci1zdGFydD0idXJsKCNzZXF1ZW5jZW51bWJlcikiIG1hcmtlci1lbmQ9InVybCgjZmlsbGVkLWhlYWQpIiBzdHJva2U9Im5vbmUiIHN0cm9rZS13aWR0aD0iMiIgY2xhc3M9Im1lc3NhZ2VMaW5lMSIgeTI9IjE1MzUiIHgyPSIyMDI1IiB5MT0iMTUzNSIgeDE9IjEwMzUiPjwvbGluZT48dGV4dCBjbGFzcz0ic2VxdWVuY2VOdW1iZXIiIHRleHQtYW5jaG9yPSJtaWRkbGUiIGZvbnQtc2l6ZT0iMTJweCIgZm9udC1mYW1pbHk9InNhbnMtc2VyaWYiIHk9IjE1MzkiIHg9IjEwMzUiPjE2PC90ZXh0Pjx0ZXh0IHN0eWxlPSJmb250LWZhbWlseTogJnF1b3Q7dHJlYnVjaGV0IG1zJnF1b3Q7LCB2ZXJkYW5hLCBhcmlhbCwgc2Fucy1zZXJpZjsgZm9udC1zaXplOiAxNnB4OyBmb250LXdlaWdodDogNDAwOyIgZHk9IjFlbSIgY2xhc3M9Im1lc3NhZ2VUZXh0IiBhbGlnbm1lbnQtYmFzZWxpbmU9Im1pZGRsZSIgZG9taW5hbnQtYmFzZWxpbmU9Im1pZGRsZSIgdGV4dC1hbmNob3I9Im1pZGRsZSIgeT0iMTU5NiIgeD0iMTEzOSI+Q2xlYW51cCBEYXRhYmxvY2tzPC90ZXh0PjxsaW5lIHN0eWxlPSJzdHJva2UtZGFzaGFycmF5OiAzLCAzOyBmaWxsOiBub25lOyIgbWFya2VyLXN0YXJ0PSJ1cmwoI3NlcXVlbmNlbnVtYmVyKSIgbWFya2VyLWVuZD0idXJsKCNhcnJvd2hlYWQpIiBzdHJva2U9Im5vbmUiIHN0cm9rZS13aWR0aD0iMiIgY2xhc3M9Im1lc3NhZ2VMaW5lMSIgeTI9IjE2MjUiIHgyPSIxMjQzIiB5MT0iMTYyNSIgeDE9IjEwMzUiPjwvbGluZT48dGV4dCBjbGFzcz0ic2VxdWVuY2VOdW1iZXIiIHRleHQtYW5jaG9yPSJtaWRkbGUiIGZvbnQtc2l6ZT0iMTJweCIgZm9udC1mYW1pbHk9InNhbnMtc2VyaWYiIHk9IjE2MjkiIHg9IjEwMzUiPjE3PC90ZXh0Pjx0ZXh0IHN0eWxlPSJmb250LWZhbWlseTogJnF1b3Q7dHJlYnVjaGV0IG1zJnF1b3Q7LCB2ZXJkYW5hLCBhcmlhbCwgc2Fucy1zZXJpZjsgZm9udC1zaXplOiAxNnB4OyBmb250LXdlaWdodDogNDAwOyIgZHk9IjFlbSIgY2xhc3M9Im1lc3NhZ2VUZXh0IiBhbGlnbm1lbnQtYmFzZWxpbmU9Im1pZGRsZSIgZG9taW5hbnQtYmFzZWxpbmU9Im1pZGRsZSIgdGV4dC1hbmNob3I9Im1pZGRsZSIgeT0iMTY0MCIgeD0iODA0Ij5DbGVhbnVwIERhdGFibG9ja3M8L3RleHQ+PGxpbmUgc3R5bGU9InN0cm9rZS1kYXNoYXJyYXk6IDMsIDM7IGZpbGw6IG5vbmU7IiBtYXJrZXItc3RhcnQ9InVybCgjc2VxdWVuY2VudW1iZXIpIiBtYXJrZXItZW5kPSJ1cmwoI2Fycm93aGVhZCkiIHN0cm9rZT0ibm9uZSIgc3Ryb2tlLXdpZHRoPSIyIiBjbGFzcz0ibWVzc2FnZUxpbmUxIiB5Mj0iMTY2OSIgeDI9IjU4MiIgeTE9IjE2NjkiIHgxPSIxMDI1Ij48L2xpbmU+PHRleHQgY2xhc3M9InNlcXVlbmNlTnVtYmVyIiB0ZXh0LWFuY2hvcj0ibWlkZGxlIiBmb250LXNpemU9IjEycHgiIGZvbnQtZmFtaWx5PSJzYW5zLXNlcmlmIiB5PSIxNjczIiB4PSIxMDI1Ij4xODwvdGV4dD48dGV4dCBzdHlsZT0iZm9udC1mYW1pbHk6ICZxdW90O3RyZWJ1Y2hldCBtcyZxdW90OywgdmVyZGFuYSwgYXJpYWwsIHNhbnMtc2VyaWY7IGZvbnQtc2l6ZTogMTZweDsgZm9udC13ZWlnaHQ6IDQwMDsiIGR5PSIxZW0iIGNsYXNzPSJtZXNzYWdlVGV4dCIgYWxpZ25tZW50LWJhc2VsaW5lPSJtaWRkbGUiIGRvbWluYW50LWJhc2VsaW5lPSJtaWRkbGUiIHRleHQtYW5jaG9yPSJtaWRkbGUiIHk9IjE3ODUiIHg9IjE1MzAiPlJlcG9ydCBFcnJvcjogUEFUQ0ggL2FwaS92NC9Kb2JzL3tKb2JJZH08L3RleHQ+PGxpbmUgc3R5bGU9InN0cm9rZS1kYXNoYXJyYXk6IDMsIDM7IGZpbGw6IG5vbmU7IiBtYXJrZXItc3RhcnQ9InVybCgjc2VxdWVuY2VudW1iZXIpIiBtYXJrZXItZW5kPSJ1cmwoI2ZpbGxlZC1oZWFkKSIgc3Ryb2tlPSJub25lIiBzdHJva2Utd2lkdGg9IjIiIGNsYXNzPSJtZXNzYWdlTGluZTEiIHkyPSIxODE0IiB4Mj0iMjAyNSIgeTE9IjE4MTQiIHgxPSIxMDM1Ij48L2xpbmU+PHRleHQgY2xhc3M9InNlcXVlbmNlTnVtYmVyIiB0ZXh0LWFuY2hvcj0ibWlkZGxlIiBmb250LXNpemU9IjEycHgiIGZvbnQtZmFtaWx5PSJzYW5zLXNlcmlmIiB5PSIxODE4IiB4PSIxMDM1Ij4xOTwvdGV4dD48dGV4dCBzdHlsZT0iZm9udC1mYW1pbHk6ICZxdW90O3RyZWJ1Y2hldCBtcyZxdW90OywgdmVyZGFuYSwgYXJpYWwsIHNhbnMtc2VyaWY7IGZvbnQtc2l6ZTogMTZweDsgZm9udC13ZWlnaHQ6IDQwMDsiIGR5PSIxZW0iIGNsYXNzPSJtZXNzYWdlVGV4dCIgYWxpZ25tZW50LWJhc2VsaW5lPSJtaWRkbGUiIGRvbWluYW50LWJhc2VsaW5lPSJtaWRkbGUiIHRleHQtYW5jaG9yPSJtaWRkbGUiIHk9IjE5MjAiIHg9IjE1MzAiPlJlcG9ydCBFcnJvcjogUEFUQ0ggL2FwaS92NC9Kb2JzL3tKb2JJZH08L3RleHQ+PGxpbmUgc3R5bGU9InN0cm9rZS1kYXNoYXJyYXk6IDMsIDM7IGZpbGw6IG5vbmU7IiBtYXJrZXItc3RhcnQ9InVybCgjc2VxdWVuY2VudW1iZXIpIiBtYXJrZXItZW5kPSJ1cmwoI2ZpbGxlZC1oZWFkKSIgc3Ryb2tlPSJub25lIiBzdHJva2Utd2lkdGg9IjIiIGNsYXNzPSJtZXNzYWdlTGluZTEiIHkyPSIxOTQ5IiB4Mj0iMjAyNSIgeTE9IjE5NDkiIHgxPSIxMDM1Ij48L2xpbmU+PHRleHQgY2xhc3M9InNlcXVlbmNlTnVtYmVyIiB0ZXh0LWFuY2hvcj0ibWlkZGxlIiBmb250LXNpemU9IjEycHgiIGZvbnQtZmFtaWx5PSJzYW5zLXNlcmlmIiB5PSIxOTUzIiB4PSIxMDM1Ij4yMDwvdGV4dD48dGV4dCBzdHlsZT0iZm9udC1mYW1pbHk6ICZxdW90O3RyZWJ1Y2hldCBtcyZxdW90OywgdmVyZGFuYSwgYXJpYWwsIHNhbnMtc2VyaWY7IGZvbnQtc2l6ZTogMTZweDsgZm9udC13ZWlnaHQ6IDQwMDsiIGR5PSIxZW0iIGNsYXNzPSJtZXNzYWdlVGV4dCIgYWxpZ25tZW50LWJhc2VsaW5lPSJtaWRkbGUiIGRvbWluYW50LWJhc2VsaW5lPSJtaWRkbGUiIHRleHQtYW5jaG9yPSJtaWRkbGUiIHk9IjIwNjYiIHg9IjEwNTAiPk9wdGlvbmFsIHJlLXRyaWdnZXIgZnJvbSBTY2ljYXQ8L3RleHQ+PGxpbmUgc3R5bGU9InN0cm9rZS1kYXNoYXJyYXk6IDMsIDM7IGZpbGw6IG5vbmU7IiBtYXJrZXItc3RhcnQ9InVybCgjc2VxdWVuY2VudW1iZXIpIiBtYXJrZXItZW5kPSJ1cmwoI2Fycm93aGVhZCkiIHN0cm9rZT0ibm9uZSIgc3Ryb2tlLXdpZHRoPSIyIiBjbGFzcz0ibWVzc2FnZUxpbmUxIiB5Mj0iMjA5NSIgeDI9Ijc1IiB5MT0iMjA5NSIgeDE9IjIwMjUiPjwvbGluZT48dGV4dCBjbGFzcz0ic2VxdWVuY2VOdW1iZXIiIHRleHQtYW5jaG9yPSJtaWRkbGUiIGZvbnQtc2l6ZT0iMTJweCIgZm9udC1mYW1pbHk9InNhbnMtc2VyaWYiIHk9IjIwOTkiIHg9IjIwMjUiPjIxPC90ZXh0Pjx0ZXh0IHN0eWxlPSJmb250LWZhbWlseTogJnF1b3Q7dHJlYnVjaGV0IG1zJnF1b3Q7LCB2ZXJkYW5hLCBhcmlhbCwgc2Fucy1zZXJpZjsgZm9udC1zaXplOiAxNnB4OyBmb250LXdlaWdodDogNDAwOyIgZHk9IjFlbSIgY2xhc3M9Im1lc3NhZ2VUZXh0IiBhbGlnbm1lbnQtYmFzZWxpbmU9Im1pZGRsZSIgZG9taW5hbnQtYmFzZWxpbmU9Im1pZGRsZSIgdGV4dC1hbmNob3I9Im1pZGRsZSIgeT0iMjExMCIgeD0iNTUzIj5DcmVhdGUgYE1vdmUgZGF0YWJsb2NrIHRvIExUU2AgUGlwZWxpbmU8L3RleHQ+PGxpbmUgc3R5bGU9InN0cm9rZS1kYXNoYXJyYXk6IDMsIDM7IGZpbGw6IG5vbmU7IiBtYXJrZXItc3RhcnQ9InVybCgjc2VxdWVuY2VudW1iZXIpIiBtYXJrZXItZW5kPSJ1cmwoI2ZpbGxlZC1oZWFkKSIgc3Ryb2tlPSJub25lIiBzdHJva2Utd2lkdGg9IjIiIGNsYXNzPSJtZXNzYWdlTGluZTEiIHkyPSIyMTM5IiB4Mj0iMTAzMCIgeTE9IjIxMzkiIHgxPSI3NSI+PC9saW5lPjx0ZXh0IGNsYXNzPSJzZXF1ZW5jZU51bWJlciIgdGV4dC1hbmNob3I9Im1pZGRsZSIgZm9udC1zaXplPSIxMnB4IiBmb250LWZhbWlseT0ic2Fucy1zZXJpZiIgeT0iMjE0MyIgeD0iNzUiPjIyPC90ZXh0Pjx0ZXh0IHN0eWxlPSJmb250LWZhbWlseTogJnF1b3Q7dHJlYnVjaGV0IG1zJnF1b3Q7LCB2ZXJkYW5hLCBhcmlhbCwgc2Fucy1zZXJpZjsgZm9udC1zaXplOiAxNnB4OyBmb250LXdlaWdodDogNDAwOyIgZHk9IjFlbSIgY2xhc3M9Im1lc3NhZ2VUZXh0IiBhbGlnbm1lbnQtYmFzZWxpbmU9Im1pZGRsZSIgZG9taW5hbnQtYmFzZWxpbmU9Im1pZGRsZSIgdGV4dC1hbmNob3I9Im1pZGRsZSIgeT0iMjE3OSIgeD0iMTc1MyI+TW92ZSBEYXRhYmxvY2tzIHRvIExUUzwvdGV4dD48bGluZSBzdHlsZT0ic3Ryb2tlLWRhc2hhcnJheTogMywgMzsgZmlsbDogbm9uZTsiIG1hcmtlci1zdGFydD0idXJsKCNzZXF1ZW5jZW51bWJlcikiIG1hcmtlci1lbmQ9InVybCgjYXJyb3doZWFkKSIgc3Ryb2tlPSJub25lIiBzdHJva2Utd2lkdGg9IjIiIGNsYXNzPSJtZXNzYWdlTGluZTEiIHkyPSIyMjA4IiB4Mj0iMjI2My41IiB5MT0iMjIwOCIgeDE9IjEyNDMiPjwvbGluZT48dGV4dCBjbGFzcz0ic2VxdWVuY2VOdW1iZXIiIHRleHQtYW5jaG9yPSJtaWRkbGUiIGZvbnQtc2l6ZT0iMTJweCIgZm9udC1mYW1pbHk9InNhbnMtc2VyaWYiIHk9IjIyMTIiIHg9IjEyNDMiPjIzPC90ZXh0Pjx0ZXh0IHN0eWxlPSJmb250LWZhbWlseTogJnF1b3Q7dHJlYnVjaGV0IG1zJnF1b3Q7LCB2ZXJkYW5hLCBhcmlhbCwgc2Fucy1zZXJpZjsgZm9udC1zaXplOiAxNnB4OyBmb250LXdlaWdodDogNDAwOyIgZHk9IjFlbSIgY2xhc3M9Im1lc3NhZ2VUZXh0IiBhbGlnbm1lbnQtYmFzZWxpbmU9Im1pZGRsZSIgZG9taW5hbnQtYmFzZWxpbmU9Im1pZGRsZSIgdGV4dC1hbmNob3I9Im1pZGRsZSIgeT0iMjI2OCIgeD0iMTY0OSI+Q2xlYW51cCBMVFMgZm9sZGVyPC90ZXh0PjxsaW5lIHN0eWxlPSJzdHJva2UtZGFzaGFycmF5OiAzLCAzOyBmaWxsOiBub25lOyIgbWFya2VyLXN0YXJ0PSJ1cmwoI3NlcXVlbmNlbnVtYmVyKSIgbWFya2VyLWVuZD0idXJsKCNhcnJvd2hlYWQpIiBzdHJva2U9Im5vbmUiIHN0cm9rZS13aWR0aD0iMiIgY2xhc3M9Im1lc3NhZ2VMaW5lMSIgeTI9IjIyOTciIHgyPSIyMjYzLjUiIHkxPSIyMjk3IiB4MT0iMTAzNSI+PC9saW5lPjx0ZXh0IGNsYXNzPSJzZXF1ZW5jZU51bWJlciIgdGV4dC1hbmNob3I9Im1pZGRsZSIgZm9udC1zaXplPSIxMnB4IiBmb250LWZhbWlseT0ic2Fucy1zZXJpZiIgeT0iMjMwMSIgeD0iMTAzNSI+MjQ8L3RleHQ+PHRleHQgc3R5bGU9ImZvbnQtZmFtaWx5OiAmcXVvdDt0cmVidWNoZXQgbXMmcXVvdDssIHZlcmRhbmEsIGFyaWFsLCBzYW5zLXNlcmlmOyBmb250LXNpemU6IDE2cHg7IGZvbnQtd2VpZ2h0OiA0MDA7IiBkeT0iMWVtIiBjbGFzcz0ibWVzc2FnZVRleHQiIGFsaWdubWVudC1iYXNlbGluZT0ibWlkZGxlIiBkb21pbmFudC1iYXNlbGluZT0ibWlkZGxlIiB0ZXh0LWFuY2hvcj0ibWlkZGxlIiB5PSIyMzEyIiB4PSIxNTMwIj5SZXBvcnQgRXJyb3I8L3RleHQ+PGxpbmUgc3R5bGU9InN0cm9rZS1kYXNoYXJyYXk6IDMsIDM7IGZpbGw6IG5vbmU7IiBtYXJrZXItc3RhcnQ9InVybCgjc2VxdWVuY2VudW1iZXIpIiBtYXJrZXItZW5kPSJ1cmwoI2Fycm93aGVhZCkiIHN0cm9rZT0ibm9uZSIgc3Ryb2tlLXdpZHRoPSIyIiBjbGFzcz0ibWVzc2FnZUxpbmUxIiB5Mj0iMjM0MSIgeDI9IjIwMjUiIHkxPSIyMzQxIiB4MT0iMTAzNSI+PC9saW5lPjx0ZXh0IGNsYXNzPSJzZXF1ZW5jZU51bWJlciIgdGV4dC1hbmNob3I9Im1pZGRsZSIgZm9udC1zaXplPSIxMnB4IiBmb250LWZhbWlseT0ic2Fucy1zZXJpZiIgeT0iMjM0NSIgeD0iMTAzNSI+MjU8L3RleHQ+PHRleHQgc3R5bGU9ImZvbnQtZmFtaWx5OiAmcXVvdDt0cmVidWNoZXQgbXMmcXVvdDssIHZlcmRhbmEsIGFyaWFsLCBzYW5zLXNlcmlmOyBmb250LXNpemU6IDE2cHg7IGZvbnQtd2VpZ2h0OiA0MDA7IiBkeT0iMWVtIiBjbGFzcz0ibWVzc2FnZVRleHQiIGFsaWdubWVudC1iYXNlbGluZT0ibWlkZGxlIiBkb21pbmFudC1iYXNlbGluZT0ibWlkZGxlIiB0ZXh0LWFuY2hvcj0ibWlkZGxlIiB5PSIyNDM3IiB4PSIxNjQ3Ij5WYWxpZGF0ZSBEYXRhYmxvY2tzIGluIExUUzwvdGV4dD48bGluZSBzdHlsZT0ic3Ryb2tlLWRhc2hhcnJheTogMywgMzsgZmlsbDogbm9uZTsiIG1hcmtlci1zdGFydD0idXJsKCNzZXF1ZW5jZW51bWJlcikiIG1hcmtlci1lbmQ9InVybCgjYXJyb3doZWFkKSIgc3Ryb2tlPSJub25lIiBzdHJva2Utd2lkdGg9IjIiIGNsYXNzPSJtZXNzYWdlTGluZTEiIHkyPSIyNDY2IiB4Mj0iMjI2My41IiB5MT0iMjQ2NiIgeDE9IjEwMzAiPjwvbGluZT48dGV4dCBjbGFzcz0ic2VxdWVuY2VOdW1iZXIiIHRleHQtYW5jaG9yPSJtaWRkbGUiIGZvbnQtc2l6ZT0iMTJweCIgZm9udC1mYW1pbHk9InNhbnMtc2VyaWYiIHk9IjI0NzAiIHg9IjEwMzAiPjI2PC90ZXh0Pjx0ZXh0IHN0eWxlPSJmb250LWZhbWlseTogJnF1b3Q7dHJlYnVjaGV0IG1zJnF1b3Q7LCB2ZXJkYW5hLCBhcmlhbCwgc2Fucy1zZXJpZjsgZm9udC1zaXplOiAxNnB4OyBmb250LXdlaWdodDogNDAwOyIgZHk9IjFlbSIgY2xhc3M9Im1lc3NhZ2VUZXh0IiBhbGlnbm1lbnQtYmFzZWxpbmU9Im1pZGRsZSIgZG9taW5hbnQtYmFzZWxpbmU9Im1pZGRsZSIgdGV4dC1hbmNob3I9Im1pZGRsZSIgeT0iMjQ4MSIgeD0iODA2Ij5DbGVhbnVwIERhdGFzZXQgZmlsZXMsIERhdGFibG9ja3M8L3RleHQ+PGxpbmUgc3R5bGU9InN0cm9rZS1kYXNoYXJyYXk6IDMsIDM7IGZpbGw6IG5vbmU7IiBtYXJrZXItc3RhcnQ9InVybCgjc2VxdWVuY2VudW1iZXIpIiBtYXJrZXItZW5kPSJ1cmwoI2Fycm93aGVhZCkiIHN0cm9rZT0ibm9uZSIgc3Ryb2tlLXdpZHRoPSIyIiBjbGFzcz0ibWVzc2FnZUxpbmUxIiB5Mj0iMjUxMCIgeDI9IjU4MiIgeTE9IjI1MTAiIHgxPSIxMDMwIj48L2xpbmU+PHRleHQgY2xhc3M9InNlcXVlbmNlTnVtYmVyIiB0ZXh0LWFuY2hvcj0ibWlkZGxlIiBmb250LXNpemU9IjEycHgiIGZvbnQtZmFtaWx5PSJzYW5zLXNlcmlmIiB5PSIyNTE0IiB4PSIxMDMwIj4yNzwvdGV4dD48dGV4dCBzdHlsZT0iZm9udC1mYW1pbHk6ICZxdW90O3RyZWJ1Y2hldCBtcyZxdW90OywgdmVyZGFuYSwgYXJpYWwsIHNhbnMtc2VyaWY7IGZvbnQtc2l6ZTogMTZweDsgZm9udC13ZWlnaHQ6IDQwMDsiIGR5PSIxZW0iIGNsYXNzPSJtZXNzYWdlVGV4dCIgYWxpZ25tZW50LWJhc2VsaW5lPSJtaWRkbGUiIGRvbWluYW50LWJhc2VsaW5lPSJtaWRkbGUiIHRleHQtYW5jaG9yPSJtaWRkbGUiIHk9IjI1NzAiIHg9IjE1MzAiPlJlcG9ydCBFcnJvcjwvdGV4dD48bGluZSBzdHlsZT0ic3Ryb2tlLWRhc2hhcnJheTogMywgMzsgZmlsbDogbm9uZTsiIG1hcmtlci1zdGFydD0idXJsKCNzZXF1ZW5jZW51bWJlcikiIG1hcmtlci1lbmQ9InVybCgjYXJyb3doZWFkKSIgc3Ryb2tlPSJub25lIiBzdHJva2Utd2lkdGg9IjIiIGNsYXNzPSJtZXNzYWdlTGluZTEiIHkyPSIyNTk5IiB4Mj0iMjAyNSIgeTE9IjI1OTkiIHgxPSIxMDM1Ij48L2xpbmU+PHRleHQgY2xhc3M9InNlcXVlbmNlTnVtYmVyIiB0ZXh0LWFuY2hvcj0ibWlkZGxlIiBmb250LXNpemU9IjEycHgiIGZvbnQtZmFtaWx5PSJzYW5zLXNlcmlmIiB5PSIyNjAzIiB4PSIxMDM1Ij4yODwvdGV4dD48dGV4dCBzdHlsZT0iZm9udC1mYW1pbHk6ICZxdW90O3RyZWJ1Y2hldCBtcyZxdW90OywgdmVyZGFuYSwgYXJpYWwsIHNhbnMtc2VyaWY7IGZvbnQtc2l6ZTogMTZweDsgZm9udC13ZWlnaHQ6IDQwMDsiIGR5PSIxZW0iIGNsYXNzPSJtZXNzYWdlVGV4dCIgYWxpZ25tZW50LWJhc2VsaW5lPSJtaWRkbGUiIGRvbWluYW50LWJhc2VsaW5lPSJtaWRkbGUiIHRleHQtYW5jaG9yPSJtaWRkbGUiIHk9IjI2NjAiIHg9IjE2NDkiPkNsZWFudXAgRGF0YWJsb2NrczwvdGV4dD48bGluZSBzdHlsZT0ic3Ryb2tlLWRhc2hhcnJheTogMywgMzsgZmlsbDogbm9uZTsiIG1hcmtlci1zdGFydD0idXJsKCNzZXF1ZW5jZW51bWJlcikiIG1hcmtlci1lbmQ9InVybCgjYXJyb3doZWFkKSIgc3Ryb2tlPSJub25lIiBzdHJva2Utd2lkdGg9IjIiIGNsYXNzPSJtZXNzYWdlTGluZTEiIHkyPSIyNjg5IiB4Mj0iMjI2My41IiB5MT0iMjY4OSIgeDE9IjEwMzUiPjwvbGluZT48dGV4dCBjbGFzcz0ic2VxdWVuY2VOdW1iZXIiIHRleHQtYW5jaG9yPSJtaWRkbGUiIGZvbnQtc2l6ZT0iMTJweCIgZm9udC1mYW1pbHk9InNhbnMtc2VyaWYiIHk9IjI2OTMiIHg9IjEwMzUiPjI5PC90ZXh0Pjx0ZXh0IHN0eWxlPSJmb250LWZhbWlseTogJnF1b3Q7dHJlYnVjaGV0IG1zJnF1b3Q7LCB2ZXJkYW5hLCBhcmlhbCwgc2Fucy1zZXJpZjsgZm9udC1zaXplOiAxNnB4OyBmb250LXdlaWdodDogNDAwOyIgZHk9IjFlbSIgY2xhc3M9Im1lc3NhZ2VUZXh0IiBhbGlnbm1lbnQtYmFzZWxpbmU9Im1pZGRsZSIgZG9taW5hbnQtYmFzZWxpbmU9Im1pZGRsZSIgdGV4dC1hbmNob3I9Im1pZGRsZSIgeT0iMjc1OSIgeD0iMTUzMCI+UEFUQ0ggL2FwaS92NC9EYXRhc2V0cy97RGF0YXNldElkfTwvdGV4dD48bGluZSBzdHlsZT0ic3Ryb2tlLWRhc2hhcnJheTogMywgMzsgZmlsbDogbm9uZTsiIG1hcmtlci1zdGFydD0idXJsKCNzZXF1ZW5jZW51bWJlcikiIG1hcmtlci1lbmQ9InVybCgjYXJyb3doZWFkKSIgc3Ryb2tlPSJub25lIiBzdHJva2Utd2lkdGg9IjIiIGNsYXNzPSJtZXNzYWdlTGluZTEiIHkyPSIyNzg4IiB4Mj0iMjAyNSIgeTE9IjI3ODgiIHgxPSIxMDM1Ij48L2xpbmU+PHRleHQgY2xhc3M9InNlcXVlbmNlTnVtYmVyIiB0ZXh0LWFuY2hvcj0ibWlkZGxlIiBmb250LXNpemU9IjEycHgiIGZvbnQtZmFtaWx5PSJzYW5zLXNlcmlmIiB5PSIyNzkyIiB4PSIxMDM1Ij4zMDwvdGV4dD48dGV4dCBzdHlsZT0iZm9udC1mYW1pbHk6ICZxdW90O3RyZWJ1Y2hldCBtcyZxdW90OywgdmVyZGFuYSwgYXJpYWwsIHNhbnMtc2VyaWY7IGZvbnQtc2l6ZTogMTZweDsgZm9udC13ZWlnaHQ6IDQwMDsiIGR5PSIxZW0iIGNsYXNzPSJtZXNzYWdlVGV4dCIgYWxpZ25tZW50LWJhc2VsaW5lPSJtaWRkbGUiIGRvbWluYW50LWJhc2VsaW5lPSJtaWRkbGUiIHRleHQtYW5jaG9yPSJtaWRkbGUiIHk9IjI5MDQiIHg9IjE1MzAiPlBBVENIIC9hcGkvdjQvSm9icy97Sm9iSWR9PC90ZXh0PjxsaW5lIHN0eWxlPSJzdHJva2UtZGFzaGFycmF5OiAzLCAzOyBmaWxsOiBub25lOyIgbWFya2VyLXN0YXJ0PSJ1cmwoI3NlcXVlbmNlbnVtYmVyKSIgbWFya2VyLWVuZD0idXJsKCNhcnJvd2hlYWQpIiBzdHJva2U9Im5vbmUiIHN0cm9rZS13aWR0aD0iMiIgY2xhc3M9Im1lc3NhZ2VMaW5lMSIgeTI9IjI5MzMiIHgyPSIyMDI1IiB5MT0iMjkzMyIgeDE9IjEwMzUiPjwvbGluZT48dGV4dCBjbGFzcz0ic2VxdWVuY2VOdW1iZXIiIHRleHQtYW5jaG9yPSJtaWRkbGUiIGZvbnQtc2l6ZT0iMTJweCIgZm9udC1mYW1pbHk9InNhbnMtc2VyaWYiIHk9IjI5MzciIHg9IjEwMzUiPjMxPC90ZXh0PjxnPjxyZWN0IGNsYXNzPSJhY3RvciIgcnk9IjMiIHJ4PSIzIiBoZWlnaHQ9IjY1IiB3aWR0aD0iMTUwIiBzdHJva2U9IiM2NjYiIGZpbGw9IiNlYWVhZWEiIHk9IjMwMDkiIHg9IjAiPjwvcmVjdD48dGV4dCBzdHlsZT0idGV4dC1hbmNob3I6IG1pZGRsZTsgZm9udC1zaXplOiAxNHB4OyBmb250LXdlaWdodDogNDAwOyBmb250LWZhbWlseTogJnF1b3Q7T3BlbiBTYW5zJnF1b3Q7LCBzYW5zLXNlcmlmOyIgY2xhc3M9ImFjdG9yIiBhbGlnbm1lbnQtYmFzZWxpbmU9ImNlbnRyYWwiIGRvbWluYW50LWJhc2VsaW5lPSJjZW50cmFsIiB5PSIzMDQxLjUiIHg9Ijc1Ij48dHNwYW4gZHk9IjAiIHg9Ijc1Ij5BcmNoaXZhbCBTZXJ2aWNlPC90c3Bhbj48L3RleHQ+PC9nPjxnPjxyZWN0IGNsYXNzPSJhY3RvciIgcnk9IjMiIHJ4PSIzIiBoZWlnaHQ9IjY1IiB3aWR0aD0iMTUwIiBzdHJva2U9IiM2NjYiIGZpbGw9IiNlYWVhZWEiIHk9IjMwMDkiIHg9IjUwNyI+PC9yZWN0Pjx0ZXh0IHN0eWxlPSJ0ZXh0LWFuY2hvcjogbWlkZGxlOyBmb250LXNpemU6IDE0cHg7IGZvbnQtd2VpZ2h0OiA0MDA7IGZvbnQtZmFtaWx5OiAmcXVvdDtPcGVuIFNhbnMmcXVvdDssIHNhbnMtc2VyaWY7IiBjbGFzcz0iYWN0b3IiIGFsaWdubWVudC1iYXNlbGluZT0iY2VudHJhbCIgZG9taW5hbnQtYmFzZWxpbmU9ImNlbnRyYWwiIHk9IjMwNDEuNSIgeD0iNTgyIj48dHNwYW4gZHk9IjAiIHg9IjU4MiI+TGFuZGluZyBab25lPC90c3Bhbj48L3RleHQ+PC9nPjxnPjxyZWN0IGNsYXNzPSJhY3RvciIgcnk9IjMiIHJ4PSIzIiBoZWlnaHQ9IjY1IiB3aWR0aD0iMTUwIiBzdHJva2U9IiM2NjYiIGZpbGw9IiNlYWVhZWEiIHk9IjMwMDkiIHg9Ijk1NSI+PC9yZWN0Pjx0ZXh0IHN0eWxlPSJ0ZXh0LWFuY2hvcjogbWlkZGxlOyBmb250LXNpemU6IDE0cHg7IGZvbnQtd2VpZ2h0OiA0MDA7IGZvbnQtZmFtaWx5OiAmcXVvdDtPcGVuIFNhbnMmcXVvdDssIHNhbnMtc2VyaWY7IiBjbGFzcz0iYWN0b3IiIGFsaWdubWVudC1iYXNlbGluZT0iY2VudHJhbCIgZG9taW5hbnQtYmFzZWxpbmU9ImNlbnRyYWwiIHk9IjMwNDEuNSIgeD0iMTAzMCI+PHRzcGFuIGR5PSIwIiB4PSIxMDMwIj5Xb3JrZXI8L3RzcGFuPjwvdGV4dD48L2c+PGc+PHJlY3QgY2xhc3M9ImFjdG9yIiByeT0iMyIgcng9IjMiIGhlaWdodD0iNjUiIHdpZHRoPSIxNTAiIHN0cm9rZT0iIzY2NiIgZmlsbD0iI2VhZWFlYSIgeT0iMzAwOSIgeD0iMTE2OCI+PC9yZWN0Pjx0ZXh0IHN0eWxlPSJ0ZXh0LWFuY2hvcjogbWlkZGxlOyBmb250LXNpemU6IDE0cHg7IGZvbnQtd2VpZ2h0OiA0MDA7IGZvbnQtZmFtaWx5OiAmcXVvdDtPcGVuIFNhbnMmcXVvdDssIHNhbnMtc2VyaWY7IiBjbGFzcz0iYWN0b3IiIGFsaWdubWVudC1iYXNlbGluZT0iY2VudHJhbCIgZG9taW5hbnQtYmFzZWxpbmU9ImNlbnRyYWwiIHk9IjMwNDEuNSIgeD0iMTI0MyI+PHRzcGFuIGR5PSIwIiB4PSIxMjQzIj5TdGFnaW5nPC90c3Bhbj48L3RleHQ+PC9nPjxnPjxyZWN0IGNsYXNzPSJhY3RvciIgcnk9IjMiIHJ4PSIzIiBoZWlnaHQ9IjY1IiB3aWR0aD0iMTUwIiBzdHJva2U9IiM2NjYiIGZpbGw9IiNlYWVhZWEiIHk9IjMwMDkiIHg9IjE5NTAiPjwvcmVjdD48dGV4dCBzdHlsZT0idGV4dC1hbmNob3I6IG1pZGRsZTsgZm9udC1zaXplOiAxNHB4OyBmb250LXdlaWdodDogNDAwOyBmb250LWZhbWlseTogJnF1b3Q7T3BlbiBTYW5zJnF1b3Q7LCBzYW5zLXNlcmlmOyIgY2xhc3M9ImFjdG9yIiBhbGlnbm1lbnQtYmFzZWxpbmU9ImNlbnRyYWwiIGRvbWluYW50LWJhc2VsaW5lPSJjZW50cmFsIiB5PSIzMDQxLjUiIHg9IjIwMjUiPjx0c3BhbiBkeT0iMCIgeD0iMjAyNSI+U2NpQ2F0PC90c3Bhbj48L3RleHQ+PC9nPjxnPjxyZWN0IGNsYXNzPSJhY3RvciIgcnk9IjMiIHJ4PSIzIiBoZWlnaHQ9IjY1IiB3aWR0aD0iMTUwIiBzdHJva2U9IiM2NjYiIGZpbGw9IiNlYWVhZWEiIHk9IjMwMDkiIHg9IjIxODguNSI+PC9yZWN0Pjx0ZXh0IHN0eWxlPSJ0ZXh0LWFuY2hvcjogbWlkZGxlOyBmb250LXNpemU6IDE0cHg7IGZvbnQtd2VpZ2h0OiA0MDA7IGZvbnQtZmFtaWx5OiAmcXVvdDtPcGVuIFNhbnMmcXVvdDssIHNhbnMtc2VyaWY7IiBjbGFzcz0iYWN0b3IiIGFsaWdubWVudC1iYXNlbGluZT0iY2VudHJhbCIgZG9taW5hbnQtYmFzZWxpbmU9ImNlbnRyYWwiIHk9IjMwNDEuNSIgeD0iMjI2My41Ij48dHNwYW4gZHk9IjAiIHg9IjIyNjMuNSI+TFRTPC90c3Bhbj48L3RleHQ+PC9nPjwvc3ZnPg==;" vertex="1" parent="1">
                        <mxGeometry x="370" y="-1220" width="100" height="3095" as="geometry"/>
                    </mxCell>
                </UserObject>
            </root>
        </mxGraphModel>
    </diagram>
</mxfile>